<svg xmlns="http://www.w3.org/2000/svg" width="1285" height="1106" viewBox="0 0 848.56 730.25" shape-rendering="geometricPrecision" image-rendering="optimizeQuality" fill-rule="evenodd" xmlns:v="https://vecta.io/nano"><path d="M75.19 692.85c-9.27 5.24-19.59 7.86-30.95 7.86-13.18 0-23.86-4.25-32-12.77C4.07 679.45 0 668.18 0 654.16c0-14.31 4.53-26.06 13.58-35.24s20.52-13.78 34.4-13.78c10.06 0 18.51 1.65 25.34 4.91v11.99c-7.46-4.73-16.33-7.08-26.57-7.08-10.34 0-18.84 3.56-25.47 10.69-6.62 7.14-9.92 16.38-9.92 27.74 0 11.69 3.08 20.89 9.22 27.56 6.14 6.69 14.48 10.03 25.03 10.03 7.22 0 13.47-1.45 18.75-4.31v-25.93H44.11v-9.8h31.08v41.91zm27.02 6.32H91.62v-97.75h10.59zm45.38 1.54c-9.75 0-17.54-3.08-23.38-9.24-5.81-6.17-8.73-14.36-8.73-24.55 0-11.09 3.03-19.74 9.09-25.99 6.07-6.23 14.26-9.33 24.58-9.33 9.84 0 17.52 3.01 23.05 9.09 5.52 6.05 8.27 14.46 8.27 25.2 0 10.54-2.97 18.97-8.91 25.31-5.97 6.34-13.96 9.51-23.97 9.51zm.77-60.22c-6.78 0-12.15 2.31-16.11 6.93s-5.95 10.99-5.95 19.13c0 7.81 2.01 13.98 6.01 18.49 4.01 4.51 9.36 6.78 16.05 6.78 6.84 0 12.11-2.22 15.78-6.65 3.68-4.42 5.5-10.72 5.5-18.88 0-8.26-1.82-14.62-5.5-19.09-3.67-4.49-8.94-6.71-15.78-6.71zm56.25 49.13h-.26v9.55h-10.59v-97.75h10.59v43.32h.26c5.2-8.76 12.81-13.14 22.83-13.14 8.45 0 15.1 2.95 19.87 8.87 4.8 5.9 7.2 13.82 7.2 23.75 0 11.05-2.69 19.89-8.06 26.54-5.37 6.63-12.72 9.95-22.05 9.95-8.74 0-15.32-3.7-19.79-11.09zm-.26-26.64v9.23c0 5.46 1.76 10.1 5.32 13.91 3.55 3.81 8.04 5.7 13.5 5.7 6.4 0 11.42-2.45 15.05-7.35 3.63-4.91 5.46-11.71 5.46-20.45 0-7.35-1.7-13.1-5.11-17.28-3.39-4.16-7.99-6.25-13.78-6.25-6.16 0-11.09 2.13-14.83 6.4-3.74 4.3-5.61 9.64-5.61 16.09zm110.7 36.19h-10.58v-10.32h-.25c-4.6 7.92-11.38 11.86-20.31 11.86-6.58 0-11.73-1.74-15.45-5.22-3.72-3.47-5.57-8.1-5.57-13.86 0-12.33 7.26-19.53 21.79-21.53l19.79-2.77c0-11.23-4.54-16.84-13.61-16.84-7.94 0-15.12 2.71-21.52 8.12v-10.83c6.49-4.14 13.95-6.18 22.43-6.18 15.51 0 23.28 8.21 23.28 24.63v42.94zm-10.58-33.41l-15.92 2.2c-4.91.68-8.6 1.89-11.09 3.65-2.49 1.74-3.74 4.82-3.74 9.25 0 3.21 1.14 5.85 3.45 7.9 2.29 2.05 5.35 3.06 9.18 3.06 5.24 0 9.58-1.85 12.99-5.5 3.43-3.68 5.13-8.35 5.13-13.98v-6.58zm37.47 33.41h-10.59v-97.75h10.59zm54.68-3.74v-12.77c1.47 1.3 3.23 2.44 5.26 3.48 2.05 1.03 4.2 1.91 6.45 2.62 2.26.7 4.53 1.25 6.8 1.65 2.29.37 4.4.57 6.32.57 6.67 0 11.64-1.23 14.94-3.72 3.28-2.46 4.93-6.03 4.93-10.65 0-2.51-.55-4.67-1.65-6.52s-2.62-3.54-4.53-5.06c-1.94-1.54-4.23-2.99-6.87-4.4l-8.56-4.4c-3.22-1.63-6.23-3.3-9.03-4.98-2.79-1.67-5.21-3.52-7.28-5.54-2.07-2.03-3.68-4.32-4.87-6.87-1.19-2.56-1.78-5.55-1.78-8.98 0-4.23.92-7.88 2.77-11.01 1.85-3.12 4.3-5.68 7.29-7.7 3.01-2.03 6.45-3.52 10.3-4.51a46.91 46.91 0 0 1 11.75-1.5c9.12 0 15.76 1.1 19.95 3.3v12.19c-5.46-3.78-12.48-5.67-21.03-5.67-2.37 0-4.73.24-7.1.72-2.36.51-4.47 1.32-6.32 2.42-1.85 1.13-3.35 2.58-4.51 4.34-1.17 1.76-1.74 3.9-1.74 6.45 0 2.35.44 4.4 1.32 6.12.88 1.71 2.18 3.28 3.89 4.71 1.72 1.41 3.83 2.79 6.3 4.11 2.46 1.35 5.33 2.8 8.54 4.38 3.32 1.66 6.45 3.37 9.42 5.18 2.97 1.8 5.57 3.81 7.79 5.98 2.25 2.21 4.01 4.63 5.33 7.29s1.96 5.72 1.96 9.16c0 4.55-.88 8.43-2.67 11.57-1.78 3.17-4.2 5.75-7.22 7.71-3.03 1.98-6.53 3.41-10.47 4.29-3.96.88-8.12 1.32-12.53 1.32-1.45 0-3.25-.11-5.41-.35-2.14-.24-4.34-.57-6.58-1.04a52.84 52.84 0 0 1-6.34-1.67c-2.01-.66-3.61-1.41-4.82-2.22zm118.14-62.29l-30.37 76.6c-5.42 13.69-13.03 20.51-22.83 20.51-2.75 0-5.04-.29-6.89-.84v-9.48c2.27.77 4.36 1.16 6.26 1.16 5.32 0 9.33-3.17 11.99-9.53l5.28-12.52-25.79-65.9h11.73l17.87 50.82c.22.64.66 2.31 1.34 5.02h.4c.22-1.04.64-2.66 1.28-4.91l18.77-50.93h10.96zm101.49 66.03h-10.57v-37.93c0-7.3-1.14-12.58-3.39-15.84-2.26-3.28-6.05-4.91-11.38-4.91-4.51 0-8.36 2.07-11.51 6.18-3.17 4.14-4.75 9.07-4.75 14.84v37.66h-10.57v-39.2c0-12.99-5.02-19.48-15.03-19.48-4.65 0-8.45 1.94-11.47 5.83-3.01 3.9-4.51 8.96-4.51 15.19v37.66h-10.59v-66.03h10.59v10.45h.26c4.67-8.01 11.51-11.99 20.5-11.99 4.51 0 8.45 1.25 11.79 3.76 3.37 2.51 5.66 5.81 6.91 9.91 4.89-9.12 12.2-13.67 21.93-13.67 14.52 0 21.79 8.96 21.79 26.87v40.7zm27.22-9.55h-.27v9.55h-10.58v-97.75h10.58v43.32h.27c5.19-8.76 12.81-13.14 22.82-13.14 8.46 0 15.1 2.95 19.88 8.87 4.8 5.9 7.2 13.82 7.2 23.75 0 11.05-2.69 19.89-8.06 26.54-5.37 6.63-12.72 9.95-22.05 9.95-8.74 0-15.32-3.7-19.79-11.09zm-.27-26.64v9.23c0 5.46 1.76 10.1 5.33 13.91 3.54 3.81 8.03 5.7 13.49 5.7 6.41 0 11.43-2.45 15.06-7.35 3.63-4.91 5.46-11.71 5.46-20.45 0-7.35-1.7-13.1-5.11-17.28-3.39-4.16-7.99-6.25-13.78-6.25-6.16 0-11.09 2.13-14.83 6.4-3.75 4.3-5.62 9.64-5.62 16.09zm91.03 37.73c-9.75 0-17.54-3.08-23.37-9.24-5.81-6.17-8.74-14.36-8.74-24.55 0-11.09 3.04-19.74 9.09-25.99 6.07-6.23 14.26-9.33 24.59-9.33 9.83 0 17.52 3.01 23.04 9.09 5.53 6.05 8.28 14.46 8.28 25.2 0 10.54-2.97 18.97-8.92 25.31-5.96 6.34-13.95 9.51-23.97 9.51zm.77-60.22c-6.78 0-12.15 2.31-16.11 6.93s-5.94 10.99-5.94 19.13c0 7.81 2 13.98 6.01 18.49 4 4.51 9.35 6.78 16.04 6.78 6.85 0 12.11-2.22 15.78-6.65 3.68-4.42 5.51-10.72 5.51-18.88 0-8.26-1.83-14.62-5.51-19.09-3.67-4.49-8.93-6.71-15.78-6.71zm55.99 58.68H780.4v-97.75h10.59zm13.79-2.38v-11.35c5.75 4.24 12.11 6.38 19.02 6.38 9.29 0 13.93-3.1 13.93-9.29 0-1.76-.39-3.26-1.19-4.47-.81-1.23-1.87-2.31-3.23-3.26-1.34-.94-2.95-1.8-4.78-2.55l-5.9-2.35c-2.92-1.17-5.48-2.34-7.7-3.53-2.2-1.16-4.05-2.51-5.55-3.98-1.47-1.5-2.59-3.17-3.34-5.06-.75-1.9-1.13-4.12-1.13-6.65 0-3.1.71-5.83 2.12-8.23 1.43-2.38 3.32-4.38 5.68-5.99 2.37-1.61 5.06-2.84 8.1-3.65 3.01-.82 6.16-1.21 9.37-1.21 5.73 0 10.83.99 15.35 2.95v10.72c-4.85-3.2-10.44-4.78-16.76-4.78-1.98 0-3.76.22-5.37.68-1.58.44-2.95 1.08-4.09 1.89-1.12.82-2 1.81-2.64 2.93-.62 1.15-.93 2.4-.93 3.79 0 1.71.31 3.15.93 4.31.64 1.17 1.54 2.2 2.75 3.11 1.19.9 2.66 1.71 4.38 2.44l5.88 2.38c2.9 1.12 5.54 2.26 7.86 3.45 2.31 1.19 4.29 2.51 5.94 4.01a15.44 15.44 0 0 1 3.76 5.13c.88 1.93 1.32 4.22 1.32 6.89 0 3.27-.72 6.11-2.15 8.51a18.74 18.74 0 0 1-5.77 5.99c-2.42 1.61-5.2 2.77-8.32 3.57-3.15.77-6.43 1.14-9.89 1.14-6.77 0-12.67-1.3-17.65-3.92z" fill="#206eb5" fill-rule="nonzero"/><path d="M658.76 478.42l-113.29-41.23c-35.76 22.6-78.12 35.69-123.55 35.69-127.9 0-231.57-103.67-231.57-231.56 0-127.9 103.67-231.57 231.57-231.57 127.89 0 231.57 103.67 231.57 231.57 0 45.58-13.18 88.08-35.92 123.91l41.2 113.19h-.01z" stroke="#206eb5" stroke-width="19.5" stroke-linejoin="round" stroke-miterlimit="22.9256" fill="#cdeafb"/><path d="M467.1 114.65c-12.18-1.46-24.78-2.97-42.48-2.16h0 0c.64 4.41 2.87 9.13 6.8 13.78h0c11.88-5.08 23.86-9.03 35.68-11.62zm19.93-14.15c-8.19 4.4-15.85 10.66-19.93 14.15.94-9.03 1.34-16.36 1.25-22.02h0c6.55 1.7 12.99 4.4 18.68 7.87zm2.33 1.5c3.79 2.55 7.19 5.47 10 8.68 2.59 2.95 4.48 5.93 5.72 8.85h0 0c-14.7-3.64-26.53-4.27-37.98-4.88 5.27-3.73 13.53-9.11 22.26-12.65zm-22.26 12.65c13.88.92 26.83 3.25 38.7 6.79h0 0c1.5 4.55 1.37 8.89-.27 12.67h0 0c-14.88-9.52-26.85-14.57-38.43-19.46zm31.53 35.74c5.84-2.37 10.03-5.89 12.45-10.14 9.54 7.22 18.27 15.12 26.11 23.55h0c-4 7.01-10.92 12.82-20.55 16.72h0c-5.29-10.49-11.32-20.61-18.01-30.13zm-4.46-6.13c-8.16-10.82-17.21-20.8-27.07-29.61 13.52 5.83 26.12 12.92 37.66 21h0c-2.06 3.61-5.63 6.6-10.59 8.61zm-3.95-45.35c-6.69-4.09-14.26-7.26-21.97-9.27-.24-4.31-.82-7.41-1.73-9.32h0c12.71 3.31 25.16 8.52 36.2 15.25-3.93.03-8.23 1.36-12.5 3.34zm14.72-3.22c-11.91-7.26-25.34-12.87-39.05-16.44-.42-.55-.89-.97-1.41-1.15 16.06 4.17 31.19 10.65 45.02 19.06-1.42-.78-2.95-1.26-4.56-1.47zm2.29 2.76c7.37 4.96 14.01 10.66 19.48 16.91 5.95 7.3 7.31 9.23 11.1 17.18h0c-7.92-4.56-16.73-8.35-26.35-11.24h0c-1.46-3.44-3.69-6.95-6.73-10.42h0c-3.31-3.78-7.31-7.21-11.77-10.22 4.86-1.64 9.76-2.57 14.27-2.21zm2.58.36c2.08.42 4.05 1.17 5.87 2.29 26.67 17.85 47.96 43.11 60.93 72.83-2.78-6.15-6.35-11.95-10.57-17.33-3.28-7.73-8.18-15.62-14.75-23.46l-2.46-2.87h0c-.64-.73-1.29-1.43-1.97-2.12 7.08 8.09 12.29 16.26 15.68 24.27h0c-5.59-6.28-12.18-11.92-19.7-16.8-2.6-6.12-6.57-12.37-11.98-18.55-13.4-14.29-20.98-18.23-21.05-18.26zm-93.01 14.2c.75 5.19 3.38 10.74 8.01 16.21-10.14 4.71-20.17 10.21-29.94 16.39h0c-7.63-9.03-11.96-18.18-13.21-26.74a220.11 220.11 0 0 1 35.14-5.86zm-42.52 7.85c1.35 9.24 6.02 19.12 14.26 28.87h0a300.42 300.42 0 0 0-27.93 21.16h0c-10.78-12.76-16.91-25.69-18.66-37.79 10.26-4.88 21.09-9 32.33-12.24zm-66.9 33.4c8.58-6.65 17.96-12.63 27.96-17.86h0c1.84 12.66 8.24 26.17 19.51 39.52-8.71 7.81-16.95 16.1-24.56 24.74h0c-13.23-15.67-20.76-31.54-22.91-46.4zm-5.48 4.44c2.21 15.25 9.93 31.55 23.52 47.64-7.32 8.77-13.98 17.86-19.81 27.12-14.86-17.58-23.3-35.4-25.72-52.07 6.38-8.16 13.78-15.75 22.01-22.69zm-47.8 89.19c.36-9.25 2.02-18.69 5.1-28.18 2.52 17.39 11.33 35.98 26.82 54.32l.02-.05-.02.05c-3.12 9.39-5.05 18.29-5.87 26.6-15.05-17.81-23.6-35.85-26.05-52.74zm7.3-34.36c3.66-9.4 8.54-18.35 14.47-26.74 2.45 16.89 11 34.93 26.05 52.74h0c-5.47 9.34-10.09 18.82-13.69 28.32-15.5-18.34-24.3-36.92-26.83-54.32zm-7.34 40.37c2.42 16.67 10.85 34.49 25.71 52.07h0c-.33 8.06.43 15.52 2.21 22.29-10.15-12.01-17.03-24.14-20.78-35.87l2.2 6.45 1.35 3.6c3.88 9.92 10.03 20.07 18.54 30.14h0 0c2.1 6.14 5.08 11.64 8.92 16.44-19.85-23.87-33.23-53.3-37.46-85.61a93.74 93.74 0 0 1-.69-9.51zm-.57-12.34c-2.67-36.14 13.28-74.36 33.36-101.19-8.34 11.5-12.31 24.96-11.65 39.46h0 0c-5.94 8.28-10.83 17.15-14.49 26.53-.42-9.31.71-18.5 3.93-26.75-4.54 12.76-6.02 19-6.13 32.93v.01h0c-3.07 9.5-4.68 19.63-5.02 29.01zm61.75-129.07c-9.87 11.25-14.64 24.98-13.95 39.92h0 0c-8.25 6.7-15.66 14.1-22.06 22.11-.7-15.23 3.78-29.29 13.13-41.1 6.95-8.22 13.83-14.87 22.88-20.93zm-8.45 35.65c-.67-14.55 3.98-27.92 13.59-38.88l-.09.05.09-.05h0c8.03-4.73 16.76-8.47 26.03-11.18-8.19 9.33-12.14 20.72-11.57 33.11h0c-10.03 4.88-19.44 10.56-28.05 16.95zm75.58-55.28c-5.98 6.82-8.87 15.13-8.45 24.19h0c-11.28 2.82-22.16 6.54-32.45 11.07-.55-11.85 3.24-22.74 11.06-31.66 9.5-2.26 19.5-3.47 29.84-3.6zm-1.04 22.48c-.39-8.39 2.29-16.1 7.83-22.41 10.48.34 21.26 1.78 32.18 4.35-3.36 3.83-4.98 8.5-4.74 13.59-12.01.52-23.83 2.04-35.27 4.47zm85.77-.69c-14.18-2.99-28.41-3.77-42.66-3.98-.2-4.32 1.18-8.29 4.04-11.55h0c12.82 3.59 25.78 8.74 38.62 15.53zm0 0c-11.22 3.26-22.62 7.85-33.96 13.54h0c4.31 4.52 9.77 8.4 15.81 11.44 6.28-9.35 12.39-17.77 18.15-24.98zm-5.12 161.49c-2.07 11.46-4.44 22.74-7.11 33.62-24.81-3.3-50.03-10.62-73.4-21.21l13.35-31.82c21.38 9.69 44.45 16.38 67.16 19.41zm-20.26 77.47c-3.4 9.25-6.89 17.36-10.39 24.3-25.14-3.35-50.68-10.76-74.35-21.49 2.18-7.32 4.9-15.65 8.17-24.94 24.38 11.05 50.68 18.69 76.57 22.13zm-74.37-28.31c3.47-9.6 7.3-19.65 11.4-29.98 23.67 10.73 49.21 18.14 74.35 21.49-2.78 10.71-5.85 20.98-9.18 30.62-25.89-3.44-52.19-11.08-76.57-22.13zm45.07-107.59c17.73 8.04 36.86 13.59 55.7 16.1-1.29 11.62-2.91 23.29-4.84 34.83-22.11-2.95-44.58-9.47-65.4-18.91l14.54-32.02h0zm18.18-37.44c12.95 5.87 26.93 9.93 40.69 11.76-.44 11.16-1.24 22.64-2.38 34.22-18.01-2.4-36.31-7.71-53.26-15.4l14.95-30.58zm3.23-6.37c4.95-9.68 9.85-18.91 14.6-27.53h0c7.27 3.3 15.12 5.58 22.85 6.61.46 10.12.54 20.79.25 31.81-12.74-1.69-25.7-5.45-37.7-10.89zm37.1-27.44c-6.57-.87-13.24-2.81-19.43-5.61h0 0c5.47-9.74 10.72-18.57 15.6-26.2 1.83 9.57 3.09 20.29 3.83 31.81zm-52.4 251.6c-22.7-3.02-45.77-9.71-67.15-19.41.89-4.83 2.3-10.71 4.25-17.6h0c23.37 10.6 48.59 17.92 73.41 21.22h0c-3.51 6.44-7.03 11.71-10.51 15.79zm-15.47 10.26c-1.29.27-1.59.35-2.84.23a167.66 167.66 0 0 1-48.16-13.75c-.56-.34-.99-.98-1.29-1.87 16.96 7.69 34.28 13 52.29 15.39zm-52.19-26.66c20.83 9.44 43.29 15.96 65.4 18.9h0c-3.45 3.58-6.84 5.97-10.12 7.16-18.83-2.51-37.96-8.06-55.7-16.1-.37-2.25-.24-5.58.42-9.96zm75.96-250.18c5.07 5.32 11.5 9.88 18.6 13.46-5.43 8.29-10.98 17.21-16.54 26.6-11.72-5.9-22.33-13.43-30.68-22.21 9.36-6.63 18.95-12.63 28.62-17.85zm-34.69 22.27c9.02 9.47 20.47 17.6 33.12 23.97a938.21 938.21 0 0 0-16.59 29.8c-16.56-8.34-31.55-18.98-43.35-31.38 8.58-7.98 17.57-15.49 26.82-22.39zm-32.35 27.66c12.34 12.97 28.01 24.1 45.33 32.81-5.42 10.33-10.72 20.86-15.81 31.42-20.33-10.24-38.74-23.3-53.22-38.53 7.35-8.91 15.3-17.52 23.7-25.7zm-28.42 31.55c14.88 15.64 33.78 29.05 54.65 39.56-4.99 10.55-9.75 21.09-14.17 31.43-22.82-11.49-43.48-26.15-59.74-43.24 5.7-9.42 12.17-18.72 19.26-27.75h0zm-22.87 33.91c16.47 17.31 37.4 32.16 60.51 43.79-4.28 10.25-8.21 20.25-11.69 29.85-23.8-11.99-45.35-27.28-62.31-45.1 3.59-9.52 8.14-19.08 13.49-28.54zm-15.7 34.72c16.97 17.82 38.52 33.11 62.32 45.1h0c-3.25 9.3-5.87 17.67-7.88 25.07-23.11-11.63-44.04-26.48-60.51-43.79.94-8.18 2.94-17.01 6.07-26.38zm-3.72 57.45c14.49 15.23 32.9 28.29 53.22 38.52h0c-.29 4.56 0 8.09.85 10.57-17.31-8.72-32.99-19.84-45.32-32.81a42.92 42.92 0 0 0 1.9 2.15l2.9 2.99c11.44 11.44 25.61 21.3 41.16 29.13h0c.51.79 1.46 1.67 2.19 2.29-18.22-9.21-34.54-21.62-48.22-36.51l.07-.05c-3.84-4.63-6.77-10.08-8.75-16.28zm-1.15-4.15c-1.56-6.52-2.13-13.77-1.66-21.67h0c16.27 17.09 36.93 31.75 59.74 43.24h0c-1.74 6.98-2.88 12.99-3.43 17.99-20.87-10.51-39.77-23.92-54.65-39.56zm224.06-196.45c1.93-4.44 2.08-9.55.31-14.9 9.82 3.4 18.81 7.67 26.9 12.69h0c2.91 8.83 2.67 17.26-.52 24.58h0c-8.02-8.05-16.95-15.57-26.69-22.37zm31.79 27.7c3.44-7.91 3.7-17.01.56-26.54 7.69 5.33 14.44 11.39 20.17 18.04h0c4.1 12.47 3.76 24.37-.74 34.73h0c-5.67-9.15-12.37-17.94-19.99-26.23zm37.81 67.28c5.6-12.88 6.09-27.66 1.13-43.15l-.45-1.39a75.65 75.65 0 0 0-1.47-4.15l1.03 2.72c5.33 15.82 8.39 32.69 8.76 50.23 0-.26-.01-.52-.02-.78l-.05 10.2h0c-.26 7.88-1.94 15.4-4.99 22.41h0c-.43 9.87-2.14 19.66-5.23 29.22-.33 1.04-.68 2.07-1.05 3.11l-1.15 3.07-1.21 3.17c8.84-20.47 13.75-43.05 13.75-66.76l-.04-3.2c.08 8.8-1.6 17.19-4.97 24.95h0c-.12-9.9-1.5-19.83-4.04-29.65zm-1.82-6.39c-3.04-9.75-7.22-19.36-12.44-28.65 4.7-10.82 5.06-23.28.76-36.32 5.28 6.91 9.5 14.39 12.58 22.33h0c5.04 15.31 4.63 29.93-.9 42.64zm-85.24 166.12c3.1-1.26 6.04-2.63 8.81-4.1-5.29 2.91-10.74 5.55-16.35 7.9 2.57-1.12 5.09-2.4 7.54-3.8zm4.36-2.7c6.57-4.38 12.61-9.89 17.99-16.5 12.79-5.18 23.12-12.1 30.87-20.3-10.04 11.23-21.55 21.1-34.24 29.31l-8.11 4.93c2.16-1.22 4.28-2.5 6.37-3.82-3.93 2.36-8.23 4.5-12.88 6.38zm33.75-170.24c-3.44-11.15-7.68-22.14-12.65-32.8 10.39-4.21 17.86-10.48 22.18-18.05 7.44 8.65 13.97 17.78 19.49 27.23h0c-5.65 9.9-15.42 18.1-29.02 23.62zm2.12 7.29c14.23-5.77 24.45-14.35 30.36-24.71 5.08 9.58 9.13 19.44 12.06 29.42h0c-6.94 12.16-18.94 22.24-35.64 29.01-1.41-11.21-3.69-22.52-6.78-33.72zm7.57 41.02c17.16-6.95 29.48-17.3 36.6-29.78 2.43 10.02 3.73 20.12 3.79 30.14h0 0c-7.79 13.65-21.26 24.96-40.01 32.56.79-10.71.65-21.75-.38-32.92zm-.27 39.86c18.99-7.7 32.63-19.15 40.52-32.98-.49 9.98-2.23 19.83-5.31 29.39h0l-.02.05.01-.05c-8.12 14.24-22.16 26.03-41.72 33.96 3.16-9.62 5.32-19.81 6.52-30.37zm-8.73 36.55c19.56-7.93 33.61-19.72 41.73-33.96-1.71 4.4-3.62 8.56-5.82 12.58a168.98 168.98 0 0 1-13.69 20.71l-4.66 5.78c1.37-1.63 2.73-3.29 4.04-4.97-8.11 10-19.73 18.37-34.64 24.41 5.09-7.09 9.48-15.28 13.04-24.55zM308.55 116.52c5.91-5.37 12.2-10.34 18.84-14.83-2.8 1.96-5.38 4.05-7.74 6.26l-11.1 8.57zm16.11-11.68c4.02-3.76 8.7-7.17 14.02-10.18-2.92 1.66-5.79 3.41-8.6 5.24l8.85-5.38a167.9 167.9 0 0 1 52.76-19.12c.93-.13 1.9-.23 2.77-.32-3.15.35-6.32 1.02-9.4 1.76-14.88 3.57-26.62 9.64-35 17.47l-25.4 10.53zm76.87-30.92c6.7-.81 13.52-1.23 20.44-1.23a169.64 169.64 0 0 1 35.88 3.83c.82.23 1.58.71 2.31 1.37-13.79-2.99-27.69-3.87-40.45-2.21h0c-5.91-1.7-12.05-2.4-18.18-1.76zm22.21 3.09c11.83-1.53 24.7-.72 37.47 2.05h0 0c1.57 2.06 2.85 5.32 3.82 9.82-7.75-1.68-15.55-2.17-22.72-1.24h0 0c-6.14-4.78-12.37-8.31-18.57-10.63zm43.36 37.64c-6.68-9.62-13.67-17.52-20.8-23.73 6.09-.79 12.73-.37 19.31 1.06h0 0c.96 5.87 1.48 13.41 1.49 22.67zm0 0c-12.4-7.24-24.93-12.83-37.35-16.84 2.92-2.73 7.02-4.85 12.21-6.09.6-.15 1.22-.28 1.84-.4 7.92 6.08 15.75 13.85 23.3 23.33zm-29.9-26.08c-6.11 1.46-10.92 3.95-14.36 7.17-10.58-2.93-21.04-4.7-31.21-5.37 5.67-5.3 13.61-9.41 23.68-11.82a83.69 83.69 0 0 1 3.57-.76c6.8 2.22 13.67 5.65 20.48 10.31 0 .05-1.97.42-2.16.47zm-22.74-12.06a93.68 93.68 0 0 0-3.85.83c-10.87 2.61-19.45 7.04-25.57 12.76h0c-10.04-.17-19.77.76-29.02 2.76 8.02-7.49 19.24-13.3 33.47-16.71 1.66-.39 3.34-.75 5.04-1.08l19.93 1.44zm38.94 330.51c-12.44 2.35-25.75 2.77-39.43 1.56 3.79-1.13 7.64-3.47 11.48-7h0c18.41 1.62 36.37.67 52.72-3.24 3.16-.76 6.21-1.62 9.13-2.56-3.82 2.22-7.8 4.09-11.9 5.52a168.27 168.27 0 0 1-22 5.72zm38.06-13.87c-3 .97-6.12 1.85-9.38 2.63-16.78 4.02-35.23 4.99-54.13 3.33 3.84-4.05 7.66-9.29 11.39-15.7h0c20.66 1.82 40.82.76 59.17-3.64 3.55-.85 6.97-1.81 10.25-2.87-5.21 6.55-11.01 11.97-17.3 16.25zm20.61-20.68a139.47 139.47 0 0 1-10.38 2.91c-18.58 4.45-39.01 5.53-59.93 3.68 3.69-6.92 7.28-15.01 10.7-24.26h0c21.55 1.9 42.58.79 61.72-3.79 3.7-.89 7.27-1.89 10.69-3-3.55 9.26-7.86 17.42-12.8 24.46zm4.31-27.64c-19.14 4.58-40.17 5.69-61.72 3.79 3.31-9.64 6.27-19.93 8.87-30.66 20.92 1.85 41.35.77 59.93-3.68a139.47 139.47 0 0 0 10.38-2.91c-1.35 10.61-3.59 20.83-6.77 30.46 0 .21-9.77 2.78-10.69 3zm7.96-37.57c-18.34 4.4-38.51 5.47-59.17 3.64 2.44-10.91 4.52-22.22 6.23-33.72h0c18.9 1.67 37.34.69 54.13-3.33 3.25-.78 6.38-1.66 9.38-2.63.74 11.28.65 22.4-.31 33.17 0 .2-9.37 2.66-10.26 2.87zm.83-40.85c-16.34 3.91-34.31 4.87-52.72 3.24a538.15 538.15 0 0 0 3.48-34.97h0c15.68 1.38 30.97.57 44.9-2.77a104.64 104.64 0 0 0 7.78-2.17c2.68 11.34 4.6 22.78 5.69 34.11 0 .18-8.34 2.37-9.13 2.56zm-5.86-41.98c-13.31 3.19-27.94 3.97-42.93 2.64.6-11.64.81-23.17.62-34.41 11.46 1.01 22.63.42 32.81-2.02 1.97-.47 3.86-1 5.68-1.59a270.53 270.53 0 0 1 11.26 33.3c0 .14-6.8 1.93-7.44 2.08zm-44.82-71.1c6.43.57 12.71.24 18.42-1.13 1.11-.27 2.17-.56 3.19-.89 6.12 9.73 11.59 20.04 16.37 30.72.04.1-4.83 1.38-5.26 1.48-9.42 2.26-19.78 2.81-30.39 1.87h0c-.37-11.1-1.14-21.85-2.33-32.05zm-.84-6.56c-1.6-11.63-3.78-22.45-6.55-32.12 9.12 9.08 17.45 19.32 24.93 30.39h0c-.87.28-1.78.54-2.72.76-4.85 1.16-10.19 1.45-15.66.97zM411.5 409.15c8.34.74 16.55.82 24.5.21-4.63.38-9.3.58-14.03.58a168.57 168.57 0 0 1-14.09-.59 16.96 16.96 0 0 0 3.62-.2h0zm168.8-110.42c-.33 1.04-.68 2.07-1.05 3.11l-1.15 3.07c.63-1.45 3.13-8.31 2.2-6.18zm-31.47-168.46l-7.53-8.06 5.56 5.94c.68.69 1.33 1.39 1.97 2.12z" fill="#206eb5" fill-rule="nonzero"/></svg>