<svg id="Layer_1" data-name="Layer 1" xmlns="http://www.w3.org/2000/svg" xmlns:xlink="http://www.w3.org/1999/xlink" viewBox="0 0 480 94.2"><defs><style>.cls-1{fill:#fff;}.cls-2{fill:#d41318;}.cls-3{fill:url(#linear-gradient);}.cls-4,.cls-5,.cls-6{fill:none;stroke:#000;stroke-miterlimit:3.86;}.cls-4{stroke-width:0.85px;}.cls-5{stroke-width:0.68px;}.cls-6{stroke-width:0.51px;}.cls-7{fill:#8bb33f;stroke:#8bb33f;stroke-miterlimit:10;stroke-width:0.34px;}</style><linearGradient id="linear-gradient" x1="25.3" y1="34.15" x2="89" y2="34.15" gradientTransform="matrix(1, 0, 0, -1, 0, 118.72)" gradientUnits="userSpaceOnUse"><stop offset="0" stop-color="#fff" stop-opacity="0"/><stop offset="0.14" stop-color="#fff8cf" stop-opacity="0.14"/><stop offset="0.38" stop-color="#ffee86" stop-opacity="0.38"/><stop offset="0.59" stop-color="#ffe74d" stop-opacity="0.59"/><stop offset="0.77" stop-color="#ffe123" stop-opacity="0.77"/><stop offset="0.92" stop-color="#ffdd09" stop-opacity="0.92"/><stop offset="1" stop-color="#ffdc00"/></linearGradient></defs><title>logo-arasaac-texto</title><g id="Fondo"><path d="M0-197.28Z" transform="translate(-10 -5.62)"/><path d="M500-197.28Z" transform="translate(-10 -5.62)"/><path d="M0,302.72Z" transform="translate(-10 -5.62)"/><path d="M500,302.72Z" transform="translate(-10 -5.62)"/></g><circle class="cls-1" cx="47.1" cy="47.1" r="47.1"/><g id="relleno"><path class="cls-1" d="M70.9,77.52h4.3c6.7.4,8.9,2.6,13.8,5v3c-.9-.1-2.7-1.1-4.5-1.1-9.8,0-21.4,3.9-31.2,5.5-4.1.7-7.8,1.6-12,1.7H40.2c-6.1-.2-10.8-3.2-14.9-5.4v-2.9c1.3.1,2.5,1.3,4.8,1.3a24.89,24.89,0,0,0,6.1-.8c5.2-1.1,10.4-2.1,15.6-2.9C57.4,79.92,64.5,77.92,70.9,77.52Z" transform="translate(-10 -5.62)"/><path class="cls-2" d="M60.2,79.22H82.5c1,.5,2,1,3,1.6H53.1C55.3,80.32,57.7,79.72,60.2,79.22Z" transform="translate(-10 -5.62)"/><path class="cls-2" d="M44.7,82.22H88.4a3.33,3.33,0,0,1,.6.3v1.3H36.8C39.4,83.22,42,82.72,44.7,82.22Zm-18,1.6H25.3v-.4A3.71,3.71,0,0,1,26.7,83.82Z" transform="translate(-10 -5.62)"/><path class="cls-2" d="M25.2,85.32H75.5c-3.2.6-4.8.9-7.8,1.6H26.3a10.91,10.91,0,0,1-1.1-.6Zm62.8,0h1v.3A6.21,6.21,0,0,0,88,85.32Z" transform="translate(-10 -5.62)"/><path class="cls-2" d="M29.2,88.32H61.3c-2.6.6-5.2,1.1-7.6,1.5H32.5A16.58,16.58,0,0,1,29.2,88.32Z" transform="translate(-10 -5.62)"/><path class="cls-3" d="M70.9,77.52h4.3c6.7.4,8.9,2.6,13.8,5v3c-.9-.1-2.7-1.1-4.5-1.1-9.8,0-21.4,3.9-31.2,5.5-4.1.7-7.8,1.6-12,1.7H40.2c-6.1-.2-10.8-3.2-14.9-5.4v-2.9c1.3.1,2.5,1.3,4.8,1.3a24.89,24.89,0,0,0,6.1-.8c5.2-1.1,10.4-2.1,15.6-2.9C57.4,79.92,64.5,77.92,70.9,77.52Z" transform="translate(-10 -5.62)"/></g><g id="contorno"><path class="cls-4" d="M75.8,39.62a11,11,0,0,1-7.8,3.6c-6.6,0-11.9-6.4-11.9-14.5" transform="translate(-10 -5.62)"/><path class="cls-4" d="M72.9,41.82s-.7,3,.3,3.3a30,30,0,0,1,7.8,4.8c.9.9,2.9,6.2,3.6,10,0,.2-1,.2-.9.3.3,6.7.9,13.3.9,13.3V75" transform="translate(-10 -5.62)"/><line class="cls-4" x1="67.8" y1="50.8" x2="69.2" y2="69.2"/><path class="cls-4" d="M63.7,42c-.3,3.7-3.2,3.4-3.2,3.4a26.89,26.89,0,0,0-8.5,4.5,31.25,31.25,0,0,0-3,3.2c-.3.3.5.7.2.9-2.3,2.5-5.2,5.4-5.2,5.4l-5.7-6.3s1.5-5.6,1.3-8c-1.3-2.1-2.9,3.1-2.9,3.1a38.75,38.75,0,0,0-1.1-5.9,3.88,3.88,0,0,0-.9-1.5c-.9-.6-.2,6-.2,6A42.55,42.55,0,0,0,31.3,42s-1-.9-1.1-.2c-.2,1.1,2.7,6.6,2.7,6.6s-3.2-4.1-4.2-4.5-1.2.6-.6,1.4,2.9,4.5,2.9,4.5-2.8-2-3.6-1.3,6.1,6.1,7.1,6.2c2.5,4.5,7.2,12.9,9.9,12.5,4.2-2.3,9.6-7.7,9.6-7.7l3.3-3-1.9,18.6" transform="translate(-10 -5.62)"/><path class="cls-4" d="M25.1,44.72A9.9,9.9,0,0,1,34.2,38" transform="translate(-10 -5.62)"/><path class="cls-4" d="M25.7,39.12a7.63,7.63,0,0,1,5.9-2.7" transform="translate(-10 -5.62)"/><path class="cls-4" d="M60.9,45.42s3,7.1,6.3,7.1,6.3-3.8,7.4-6.5" transform="translate(-10 -5.62)"/><path class="cls-4" d="M49.2,53.92a55.06,55.06,0,0,1,4,6" transform="translate(-10 -5.62)"/><line class="cls-4" x1="73.3" y1="54.9" x2="68.1" y2="55.7"/><path class="cls-4" d="M56.5,28.82c3.6-.1,5.6-3.8,8.3-5.9,0,0,6,5.1,9.8,3.9A5.77,5.77,0,0,1,72.2,23s5.4,3.7,7.3,2.9" transform="translate(-10 -5.62)"/><path class="cls-4" d="M72.8,42.42l1.5,2.3a13.56,13.56,0,0,0,.8-3.3c1.2,2.7.3,3,.3,3s2.8-2.8,3-5.2a18.69,18.69,0,0,1,.8,2.6s1.2-8.5.9-12.3c1.4.2.7-1.6.7-1.6a31.85,31.85,0,0,0-.9-4.6s-2.7-8.4-10.5-9.5h-.6a11.55,11.55,0,0,0-7.9,1.7c-3.3,2.2-6.6,8.4-7,15.6.6-.7,2.1-2.1,2.1-2.1s-.8,9.7-.4,11.7a14,14,0,0,1,1.7-2.4s1.3,4.8.5,5.2c1.2.6,2.2-.8,3-1.8.3.3.9,2.9,1.2,3.1a3.32,3.32,0,0,0,1.5-2.7c-3-1.9-7.1-4-7.2-13.3,2.5.3,4.4-2.3,5.2-3s3-2.7,3-2.7,5.1,4.5,9.9,3.8a4,4,0,0,1-2.3-3.6s4.3,2.9,6.3,2.6c.7,3.5,1.1,8.3-1.1,11.9A16.61,16.61,0,0,1,72.7,42Z" transform="translate(-10 -5.62)"/><path class="cls-5" d="M73.2,36.42c-3.1,2.7-6.2,2.8-9.3.6" transform="translate(-10 -5.62)"/><path class="cls-6" d="M67.1,34.52a1.79,1.79,0,0,0,2.2,0" transform="translate(-10 -5.62)"/><path d="M73.2,29.72a1.49,1.49,0,0,0-.6.1c-.2.1-.3.2-.5.3a1.1,1.1,0,0,0-.3.9,1.4,1.4,0,0,0,.3.9,1.1,1.1,0,0,0,.9.3,1.4,1.4,0,0,0,.9-.3,1.1,1.1,0,0,0,.3-.9,1.4,1.4,0,0,0-.3-.9A.84.84,0,0,0,73.2,29.72Z" transform="translate(-10 -5.62)"/><path d="M63.5,32.32a1.56,1.56,0,0,0,.8-.6,1,1,0,0,0,.2-.9,1.56,1.56,0,0,0-.6-.8,1,1,0,0,0-.9-.1,1.56,1.56,0,0,0-.8.6,1.23,1.23,0,0,0-.2,1,1.56,1.56,0,0,0,.6.8A2.64,2.64,0,0,0,63.5,32.32Z" transform="translate(-10 -5.62)"/><path class="cls-7" d="M75.7,72.22H72.2l-1.4-3.6H64.7l-1.3,3.6H60l6.1-15.6h3.3Zm-5.8-6.1-2.2-5.7-2.1,5.7Z" transform="translate(-10 -5.62)"/></g><path class="cls-1" d="M114.6,78.82l20-55.9H148l20,55.9H155.3l-3.6-11.7H130.9L127,78.82Zm19.5-21.4h14.3l-7-21.7Z" transform="translate(-10 -5.62)"/><path class="cls-1" d="M222.2,78.82H209.3a43.12,43.12,0,0,1-1.3-9.9v-4.2c-.1-2.8-.7-4.8-1.9-6s-3.6-1.8-7.2-1.8H186.7v21.8H175.1V22.82h28.5c5.4,0,9.7,1.5,12.9,4.4s4.8,6.8,4.8,11.7c0,6.3-2.9,10.7-8.7,13.1,3.1,1.2,5.1,2.9,5.9,5.1s1.2,5.6,1.2,10.2v2.2a23.88,23.88,0,0,0,.4,5.1,3.36,3.36,0,0,0,2.1,2.5Zm-12.7-38.6c0-5-2.7-7.4-8.2-7.4H186.7v14.9h13.7C206.5,47.72,209.5,45.22,209.5,40.22Z" transform="translate(-10 -5.62)"/><path class="cls-1" d="M226.9,78.82l20-55.9h13.4l20,55.9H267.6L264,67.12H243.1l-3.9,11.7Zm19.5-21.4h14.3l-7-21.7Z" transform="translate(-10 -5.62)"/><path class="cls-1" d="M292.1,60.82c.4,8.6,5.7,12.8,15.8,12.8,4.6,0,8.1-.8,10.6-2.4s3.6-4.1,3.6-7.4a8,8,0,0,0-2-5.4c-1.3-1.4-4.6-2.8-9.8-4l-11.5-2.6a18,18,0,0,1-8.7-4.5c-2.1-2.1-3.2-5.1-3.2-8.8,0-5.1,1.7-9.3,5.1-12.4s8.3-4.7,14.7-4.7c5.8,0,10.7,1.4,14.5,4.1s6,7.2,6.3,13.5h-7.1c-.7-7.3-5.4-11-13.9-11a15.44,15.44,0,0,0-9,2.4,8.09,8.09,0,0,0-3.4,7.1,6.8,6.8,0,0,0,1.6,4.6c1.1,1.2,3.2,2.2,6.2,2.8l14.7,3.5c4.2.9,7.4,2.6,9.5,5s3.2,5.7,3.2,9.8c0,5.4-2,9.6-6,12.5S313.8,80,306.9,80c-7.2,0-12.7-1.8-16.4-5.3s-5.6-8.2-5.6-14.2h7.2Z" transform="translate(-10 -5.62)"/><path class="cls-1" d="M334.3,78.82l21.3-55.9h8.6l20,55.9H376l-5.4-16.3H348l-5.9,16.3Zm16.1-22.9h17.4L359.5,31Z" transform="translate(-10 -5.62)"/><path class="cls-1" d="M386.1,78.82l21.3-55.9H416l20,55.9h-8.2l-5.4-16.3H399.8l-5.9,16.3Zm16.2-22.9h17.4L411.4,31Z" transform="translate(-10 -5.62)"/><path class="cls-1" d="M482.7,58.42H490c-1.3,7.3-4,12.8-8.2,16.4s-9.6,5.5-16.2,5.5c-7.6,0-13.7-2.6-18.3-7.9s-6.9-12.4-6.9-21.5c0-8.9,2.4-16.1,7.1-21.4s11.1-8,19.2-8c6.1,0,11.1,1.5,15.1,4.6s6.6,7.6,7.7,13.7h-7.3c-1.9-7.7-7.1-11.6-15.5-11.6a17.15,17.15,0,0,0-13.4,5.9q-5.1,5.85-5.1,17.1c0,6.9,1.5,12.4,4.6,16.5s7.6,6.1,13.5,6.1a15,15,0,0,0,10.7-3.9C479.7,67.22,481.6,63.42,482.7,58.42Z" transform="translate(-10 -5.62)"/></svg>