<svg width="786" height="573" viewBox="0 0 786 573" fill="none" xmlns="http://www.w3.org/2000/svg">
<path d="M126.753 144.778C128.113 144.689 138.369 161.251 144.788 186.652C151.207 212.053 164.887 258.953 164.887 258.953C164.887 258.953 187.082 303.757 193.08 309.755C199.078 315.753 204.898 309.553 210.945 311.431C212.815 312.014 218.57 317.016 218.57 317.016C218.57 317.016 228.948 339.487 227.418 341.025C225.88 342.563 209.828 346.885 198.666 343.259C187.503 339.633 135.576 278.777 135.576 278.777C135.576 278.777 93.257 147.029 126.753 144.778Z" fill="#F48C7F"/>
<path d="M329.58 164.991L324.554 159.778C324.554 159.778 315.342 176.315 304.738 199.765C294.134 223.215 281.425 252.105 277.103 256.428C272.772 260.75 236.346 310.856 225.321 315.737C214.296 320.626 217.704 318.481 208.849 317.421C202.203 316.628 202.923 321.436 207.254 323.67C208.42 324.269 209.747 324.674 212.402 326.552C217.672 330.291 222.18 335.602 225.483 338.694C226.762 339.892 224.091 342.077 222.593 340.58C221.047 339.034 215.794 330.923 213.6 330.923C211.398 330.923 212.864 336.468 213.811 338.249C214.75 340.029 212.661 339.503 210.775 335.108C208.889 330.712 207.529 326.317 204.809 326.94C202.616 327.45 203.959 333.521 204.558 335.869C203.927 333.643 202.187 328.098 200.511 328.098C198.415 328.098 197.476 328.308 197.476 332.445C197.476 336.581 198.941 341.009 203.757 344.659C208.573 348.302 222.051 345.874 227.596 343.664C231.384 342.158 235.148 336.006 238.936 333.966C255.87 324.828 273.274 313.924 294.83 285.188C321.21 250.017 331.499 218.609 331.499 218.609L329.58 164.991Z" fill="#F4C0B8"/>
<path d="M319.81 564.049C319.81 564.049 317.017 552.328 319.81 538.089C322.603 523.851 337.675 451.274 337.675 436.202C337.675 421.129 344.936 399.072 344.936 399.072L300.553 387.909L296.085 431.175C296.085 431.175 293.713 532.083 289.666 536.13C285.618 540.178 268.506 546.16 263.147 546.16C257.149 546.16 247.654 546.564 247.654 549.584C247.654 552.603 248.488 554.562 248.488 554.562L319.81 564.049Z" fill="#F4C0B8"/>
<path d="M372.66 392.709L378.156 430.058C378.156 430.058 391.221 539.522 388.202 542.533C385.183 545.544 371.503 554.368 365.221 555.064C358.94 555.76 350.1 560.001 350.1 563.353C350.1 570.12 420.726 564.624 420.726 564.624C420.726 564.624 422.96 559.581 420.726 552.182C418.492 544.784 418.492 534.317 418.492 532.642C418.492 530.966 418.63 532.366 418.63 529.711C418.63 527.056 418.63 526.222 418.63 526.222C418.63 526.222 427.145 474.02 418.071 441.083L414.858 377.159L372.66 392.709Z" fill="#F4C0B8"/>
<path d="M78.9781 27.4704C78.9781 27.4704 62.6512 27.2761 51.343 33.6547C40.0752 40.009 37.0478 55.1703 36.8374 67.029C36.5622 82.336 41.5889 97.7401 51.1325 109.753C60.6923 121.781 77.513 127.188 77.513 127.188L124.851 97.0116C124.851 97.0116 130.484 82.9593 126.502 64.1149C122.527 45.2625 123.572 24.5402 78.9781 27.4704Z" fill="#184655"/>
<path d="M158.751 515.44C158.751 515.44 174.382 537.911 175.499 540.979C176.616 544.047 184.29 564.429 184.29 564.429L244.303 535.256L198.382 521.301L189.171 501.202L158.751 515.44Z" fill="#F48C7F"/>
<path d="M80.0305 356.372L129.019 458.535L161.26 523.017C161.26 523.017 189.875 511.992 196.99 504.869L173.823 423.639L147.443 329.571L91.9863 324.528L80.0305 356.372Z" fill="#355389"/>
<path d="M33.8345 525.81C33.8345 525.81 36.0686 540.882 36.0686 541.861C36.0686 542.841 32.7174 557.355 32.1589 561.264C31.6003 565.174 32.1589 568.242 32.1589 568.242L89.0319 554.635C89.0319 554.635 80.5892 549.122 73.0531 544.937C65.517 540.752 64.3999 520.791 64.3999 520.791L33.8345 525.81Z" fill="#F48C7F"/>
<path d="M25.877 329.571C25.877 329.571 35.6229 390.856 34.2549 411.359C32.2879 440.8 24.4847 452.116 30.07 529.323H69.7095C69.7095 529.323 72.5022 487.846 78.646 455.742C84.7898 423.639 98.1865 369.769 98.1865 369.769L120.236 320.068L25.877 329.571Z" fill="#86B1F2"/>
<path d="M48.809 99.1809C50.7193 105.171 55.5518 108.975 59.5992 107.68C63.6465 106.385 65.3787 100.484 63.4684 94.4941C61.558 88.5041 56.7256 84.6996 52.6782 85.9947C48.6309 87.2899 46.8986 93.1909 48.809 99.1809Z" fill="#F48C7F"/>
<path d="M116.116 86.3914C116.65 92.6567 120.511 97.4406 124.745 97.0844C128.978 96.7283 131.982 91.3534 131.447 85.0882C130.913 78.8229 127.052 74.039 122.818 74.3951C118.585 74.7594 115.59 80.1261 116.116 86.3914Z" fill="#F48C7F"/>
<path d="M697.912 105.56C706.873 95.8621 725.725 55.5103 732.104 44.0402C731.966 42.8907 731.456 36.2126 736.475 26.4262C740.02 19.5134 740.919 5.3801 744.764 8.44797C748.609 11.5158 743.056 23.844 746.585 23.1074C750.106 22.3708 763.333 -2.56077 766.822 0.215697C770.302 2.99216 756.339 25.6653 759.496 25.0096C762.645 24.354 773.233 2.20698 778.154 6.13289C783.076 10.0588 763.438 30.9511 766.077 33.0638C768.724 35.1684 780.777 21.6585 784.743 24.8235C788.71 27.9885 767.453 42.4455 769.307 42.057C771.16 41.6684 784.403 38.2363 785.059 40.9561C785.795 44.0321 752.939 56.6111 749.871 62.925C744.043 80.0047 733.82 111.104 720.302 126.816C703.764 146.041 656.192 199.352 656.192 199.352L636.425 161.866C636.417 161.866 687.292 117.054 697.912 105.56Z" fill="#966259"/>
<path d="M747.921 29.7694C749.151 31.3964 749.92 33.2987 750.446 35.2738C750.446 35.6137 752.559 41.8871 748.39 47.9824C749.588 43.5222 750.916 38.5764 747.921 29.7694Z" fill="#6B4744"/>
<path d="M29.6085 155.9C29.6085 155.9 34.2144 274.722 29.6085 296.917C25.0026 319.113 22.8899 333.505 22.8899 333.505C22.8899 333.505 86.5544 345.906 147.685 329.571C147.685 329.571 138.473 288.118 134.289 244.99C130.104 201.862 126.752 144.778 126.752 144.778C126.752 144.778 103.577 143.054 85.7206 144.689C45.134 148.405 29.6085 155.9 29.6085 155.9Z" fill="#FAE0B2"/>
<path d="M67.4676 114.561L65.6787 147.077C65.6787 147.077 68.7304 165.023 86.5224 166.067C104.314 167.111 99.0853 128.799 99.0853 128.799L98.0411 114.561H67.4676Z" fill="#F48C7F"/>
<path d="M98.5103 139.055C98.9393 139.055 99.3683 139.047 99.7892 139.023C99.6921 133.219 99.085 128.791 99.085 128.791L98.0408 114.553H67.4754L67.2083 119.434C71.037 125.966 82.3129 139.055 98.5103 139.055Z" fill="#F27A6A"/>
<path d="M33.235 549.292C33.235 549.292 35.3316 547.196 42.6572 547.827C49.9829 548.459 86.7245 552.538 88.2949 552.538C89.8653 552.538 110.887 568.501 111.834 571.399C112.773 574.297 66.4231 572.403 66.4231 572.403H31.1305C31.1224 572.394 27.7954 561.855 33.235 549.292Z" fill="#3C8F7C"/>
<path d="M178.842 548.523C178.842 548.523 176.697 549.972 176.697 551.923C176.697 553.218 178.882 562.041 181.416 568.315C182.889 571.973 187.236 573.519 190.692 571.617L254.349 536.519C254.349 536.519 258.987 532.504 228.964 530.602L178.842 548.523Z" fill="#3C8F7C"/>
<path d="M29.6089 155.9C29.6089 155.9 20.5671 159.858 15.2651 172.138C9.96312 184.418 -7.06804 239.971 4.3778 273.192C4.3778 273.192 9.5341 298.447 36.0522 315.753C62.5703 333.06 108.815 337.22 111.43 334.606C114.044 331.991 114.149 327.45 114.149 324.536C114.149 321.622 120.22 320.157 120.22 316.182C120.22 312.208 109.964 311.504 98.1705 311.504C98.1705 311.504 96.0741 311.293 98.6562 309.342C101.238 307.392 104.517 304.947 103.958 301.248C103.4 297.548 100.996 297.727 98.721 299.993C96.4545 302.26 88.9507 308.371 82.9526 306.623C76.9545 304.874 41.4999 275.774 35.6393 266.562C35.6474 266.554 37.9868 157.875 29.6089 155.9Z" fill="#F48C7F"/>
<path d="M324.562 159.786C324.562 159.786 343.666 149.182 363.951 146.802C384.236 144.422 413.328 152.039 413.328 152.039L430.108 394.296C430.108 394.296 354.747 430.09 298.222 394.296C298.222 394.296 313.4 292.578 313.4 278.275C313.4 263.972 313.4 263.972 313.4 263.972L324.562 159.786Z" fill="#50BFA5"/>
<path d="M247.687 551.696C245.679 551.47 243.777 552.652 243.097 554.562C242.312 556.756 242.66 558.714 244.303 560.366C247.306 563.369 299.679 571.941 317.965 571.544C319.907 571.504 322.676 565.732 319.81 564.057C315.342 561.434 261.496 553.259 247.687 551.696Z" fill="#13375B"/>
<path d="M263.148 546.16L267.478 554.975L277.111 557.63C277.111 557.63 272.643 541.861 268.733 542.557C264.823 543.254 263.148 546.16 263.148 546.16Z" fill="#13375B"/>
<path d="M350.092 563.919C348.255 563.911 346.604 565.077 346.037 566.825C345.576 568.234 345.422 569.845 346.474 570.897C348.708 573.131 423.705 571.593 423.705 571.593C423.705 571.593 425.518 566.016 422.256 564.891C420.095 564.146 363.133 563.952 350.092 563.919Z" fill="#13375B"/>
<path d="M372.693 551.907C372.021 550.684 366.848 551.98 365.221 555.064L371.875 564.615L379.695 564.591L372.693 551.907Z" fill="#13375B"/>
<path d="M539.645 503.476C539.645 503.476 536.626 529.719 531.712 541.157C526.807 552.603 510.609 559.831 496.379 562.632C482.14 565.441 486.884 567.683 488.972 569.764C491.061 571.852 552.766 573.26 563.654 571.285C563.654 571.285 559.469 549.802 559.469 546.451C559.469 543.1 576.5 490.347 576.5 490.347L539.645 503.476Z" fill="#966259"/>
<path d="M563.653 571.302C563.653 571.302 562.803 566.93 561.864 561.823C549.957 563.417 522.727 560.633 509.079 559.038C504.902 560.617 499.827 561.094 495.65 561.912C481.412 564.721 482.48 568.452 486.05 571.051C488.438 572.783 552.766 573.269 563.653 571.302Z" fill="#F47458"/>
<path d="M661.056 497.333C661.056 497.333 659.389 529.582 662.845 541.165C666.407 553.097 671.498 555.153 685.478 559.038C699.206 562.859 693.994 568.962 691.905 571.051C689.817 573.139 641.791 573.277 630.904 571.302C630.904 571.302 635.089 549.818 635.089 546.467C635.089 543.116 630.005 488.89 630.005 488.89L661.056 497.333Z" fill="#966259"/>
<path d="M630.904 571.302C630.904 571.302 631.754 566.93 632.693 561.823C644.6 563.417 671.831 560.633 685.478 559.038C690.198 560.179 694.018 561.127 698.179 562.648C711.81 567.627 710.596 568.97 708.508 571.051C706.427 573.131 641.792 573.269 630.904 571.302Z" fill="#F47458"/>
<path d="M413.328 152.039C413.328 152.039 397.001 171.296 405.371 203.545C413.749 235.786 433.986 287.147 458.966 315.737C463.013 320.367 472.362 330.138 476.556 332.93C480.74 335.723 498.468 337.674 498.468 337.674C498.468 337.674 506.287 313.665 504.053 311.439C501.819 309.213 483.047 308.994 477.956 303.903C472.856 298.795 423.374 152.039 413.328 152.039Z" fill="#F4C0B8"/>
<path d="M571.279 151.618C571.279 151.618 566.576 154.548 563.225 163.202C559.873 171.855 542.494 243.039 539.985 253.368C538.042 261.341 520.42 284.759 511.678 296.043C509.096 299.37 507.112 302.146 505.866 302.146C498.192 302.146 485.451 306.404 485.451 309.585C485.451 312.767 488.462 313.107 493.481 311.989C498.508 310.872 494.703 316.312 492.882 318.133C491.069 319.946 483.338 330.291 486.074 333.036C488.81 335.78 495.391 337.674 498.459 337.674C500.127 337.674 503.51 337.488 509.695 332.445C514.9 328.195 522.549 319.509 528.167 314.507C548.355 296.504 564.965 258.678 568.033 250.025C571.109 241.364 571.279 151.618 571.279 151.618Z" fill="#966259"/>
<path d="M506.595 320.149C506.595 320.149 508.691 320.359 508.691 324.439C508.691 328.519 505.13 334.8 502.725 337.212C500.321 339.616 478.271 333.764 478.271 333.764C478.271 333.764 486.293 333.966 489.029 330.567C490.252 329.045 492.575 321.93 494.874 321.93C497.173 321.93 494.663 331.562 494.663 331.562C494.663 331.562 499.059 318.894 501.366 318.894C503.664 318.894 503.875 321.193 502.831 325.07C501.778 328.94 505.178 319.032 506.595 320.149Z" fill="#F4C0B8"/>
<path d="M524.305 506.083C524.305 506.083 556.967 514.874 594.016 514.874C631.066 514.874 703.926 496.029 703.926 496.029C703.926 496.029 683.827 447.462 676.922 410.194C670.009 372.926 664.99 308.873 664.99 308.873H554.433L547.529 353.224L524.305 506.083Z" fill="#466EB6"/>
<path d="M571.279 151.618C571.279 151.618 564.066 159.996 564.066 185.956C564.066 211.915 562.812 250.859 560.715 264.255C558.619 277.652 552.337 310.945 552.337 310.945C552.337 310.945 570.761 326.228 618.495 322.043C666.229 317.858 668.738 311.439 668.738 311.439C668.738 311.439 662.036 203.553 662.036 192.245C662.036 180.937 651.788 148.235 651.788 148.235C651.788 148.235 624.21 145.393 611.647 146.357C599.092 147.312 571.279 151.618 571.279 151.618Z" fill="#FAE0B2"/>
<path d="M549.585 49.7226C549.585 49.7226 529.494 55.4212 531.162 76.0383C532.7 95.0527 542.049 94.0894 542.049 94.0894C542.049 94.0894 535.209 121.045 555.866 128.864C575.342 136.23 582.668 128.864 582.668 128.864C582.668 128.864 591.119 151.246 620.008 142.609C648.898 133.964 646.308 116.447 646.308 116.447C646.308 116.447 658.62 121.287 672.85 98.6791C687.089 76.0707 678.962 59.7843 660.126 49.7307C660.126 49.7307 666.399 20.9461 637.59 16.3402C608.781 11.7344 601.715 27.5432 601.715 27.5432C601.715 27.5432 596.591 9.89691 565.912 22.0389C545.813 29.9797 549.585 49.7226 549.585 49.7226Z" fill="#13375B"/>
<path d="M629.172 92.8753C627.051 98.7925 628.573 104.75 632.572 106.183C636.57 107.616 641.532 103.981 643.653 98.0639C645.774 92.1467 644.252 86.1891 640.253 84.7563C636.255 83.3155 631.293 86.9581 629.172 92.8753Z" fill="#966259"/>
<path d="M563.678 98.7439C564.649 104.953 568.834 109.461 573.035 108.806C577.236 108.15 579.851 102.581 578.879 96.3722C577.908 90.1636 573.723 85.6549 569.522 86.3105C565.321 86.9662 562.706 92.5353 563.678 98.7439Z" fill="#966259"/>
<path d="M598.121 125.934L599.238 150.355C599.238 150.355 599.796 159.85 609.704 161.105C619.612 162.36 628.686 154.694 628.686 147.004C628.686 146.025 623.805 112.529 623.805 112.529L598.121 125.934Z" fill="#966259"/>
<path d="M623.797 112.537L598.112 125.934L598.509 134.619C603.155 134.652 610.044 134.279 615.556 130.993C620.194 128.225 622.777 124.711 624.857 119.871C624.242 115.589 623.797 112.537 623.797 112.537Z" fill="#6B4744"/>
<path d="M207.262 316.781C207.262 316.781 213.519 320.829 217.235 319.938C220.95 319.048 219.121 317.146 217.372 315.405C215.624 313.657 210.953 311.423 210.953 311.423L207.262 316.781Z" fill="#F48C7F"/>
<path d="M83.6084 44.5258C73.4658 46.0233 66.0511 53.2033 60.6682 61.9698C49.9914 79.349 58.6769 104.928 61.6072 110.789C64.5374 116.649 76.2585 131.721 93.6377 131.721C111.017 131.721 123.159 115.807 124.624 100.322C126.583 79.5837 121.03 53.7294 101.295 46.5171C95.9123 44.5582 89.5337 43.6516 83.6084 44.5258Z" fill="#F48C7F"/>
<path fill-rule="evenodd" clip-rule="evenodd" d="M78.1131 87.9641C80.5653 87.6896 82.293 85.2186 81.9586 82.4732C81.6242 79.7277 79.3392 77.7509 76.887 78.0255C74.4347 78.3 72.707 80.771 73.0414 83.5164C73.3758 86.3168 75.6608 88.2936 78.1131 87.9641Z" fill="#1B3760"/>
<path fill-rule="evenodd" clip-rule="evenodd" d="M80.6592 102.79L107.289 100.529C105.69 124.843 82.4786 121.204 80.6592 102.79Z" fill="#1B3760"/>
<ellipse cx="93.9465" cy="91.7076" rx="13.2322" ry="23.7076" fill="#F48C7F"/>
<rect x="80.7144" y="93.3616" width="35.2858" height="14.3349" fill="#F48C7F"/>
<path fill-rule="evenodd" clip-rule="evenodd" d="M91.0239 78.1164L90.9859 79.3575C90.7577 83.5852 90.4916 88.86 93.7993 90.0236L94.4076 90.2563C96.8788 91.1096 99.8823 92.118 99.9964 96.3069C100.034 97.2378 99.7683 97.9747 99.3121 98.5953C98.5517 99.6425 97.297 100.224 96.0424 100.573C94.8258 100.922 93.6092 101 92.9629 101C92.5447 101 92.2405 100.922 92.1645 100.845L92.6967 100.069C92.7347 100.108 92.7347 99.9916 92.9248 99.9916C93.5331 99.9916 94.6737 99.914 95.8143 99.6037C96.9169 99.2934 98.0194 98.7892 98.6277 97.9359C98.9319 97.5093 99.122 96.9663 99.122 96.3069C99.0079 92.855 96.3846 91.9629 94.2175 91.226L93.6092 90.9933C89.6172 89.5582 89.8833 83.8567 90.1114 79.2411L90.1875 78L91.0239 78.1164Z" fill="#1B3760"/>
<path fill-rule="evenodd" clip-rule="evenodd" d="M109.545 86.8661C111.725 86.5916 113.26 84.1206 112.963 81.3751C112.666 78.6296 110.635 76.6529 108.455 76.9274C106.275 77.2569 104.74 79.6729 105.037 82.4184C105.334 85.2188 107.365 87.1956 109.545 86.8661Z" fill="#1B3760"/>
<path d="M363.286 45.0519C363.286 45.0519 354.706 44.631 345.074 49.2369C335.441 53.8427 325.395 74.5489 325.395 92.9723C325.395 104.183 320.433 108.814 316.548 110.716C314.46 111.736 313.901 114.447 315.439 116.188C319.235 120.502 323.186 125.246 328.172 128.144C347.065 139.136 366.087 139.468 387.319 135.574C404.399 132.442 420.516 124.752 432.633 112.149C434.916 109.777 434.293 105.859 431.395 104.297C427.388 102.144 422.653 97.5053 420.864 87.5408C417.513 68.9231 410.608 36.0507 363.286 45.0519Z" fill="#13375B"/>
<path d="M388.882 95.8945C387.514 102.03 389.772 107.753 393.925 108.676C398.069 109.599 402.546 105.373 403.906 99.2295C405.274 93.0937 403.015 87.3708 398.863 86.448C394.718 85.5252 390.25 89.7506 388.882 95.8945Z" fill="#F4C0B8"/>
<path d="M327.517 87.7027C327.517 93.9923 330.965 99.0838 335.207 99.0838C339.456 99.0838 342.896 93.9842 342.896 87.7027C342.896 81.4132 339.456 76.3217 335.207 76.3217C330.957 76.3217 327.517 81.4213 327.517 87.7027Z" fill="#F4C0B8"/>
<path d="M353.589 128.168L351.493 156.92C351.493 156.92 352.472 163.477 360.283 164.877C368.103 166.269 384.705 154.686 384.705 148.55L380.795 115.33L353.589 128.168Z" fill="#F4C0B8"/>
<path d="M352.569 142.196C364.913 142.811 374.846 137.25 382.196 127.107L380.811 115.322L353.597 128.16L352.569 142.196Z" fill="#F7A491"/>
<path d="M334.397 102.419C336.283 113.096 339.424 131.883 356.171 133.826C372.919 135.761 385.482 126.711 393.439 110.376C401.396 94.0489 399.51 72.4847 395.115 61.8079C391.618 53.3247 376.546 53.7294 369.131 53.8589C344.305 54.2637 330.228 78.7743 334.397 102.419Z" fill="#F4C0B8"/>
<path d="M358.891 50.4269C358.891 50.4269 358.632 64.1554 370.054 75.5851C381.483 87.0147 404.456 92.9805 404.456 92.9805L407.184 99.4319C407.184 99.4319 410.81 78.9039 402.157 65.2239C393.504 51.5439 358.891 50.4269 358.891 50.4269Z" fill="#13375B"/>
<path d="M611.315 46.7599C611.315 46.7599 623.473 50.2325 630.75 62.504C638.027 74.7755 642.422 110.02 617.208 125.06C591.993 140.107 575.132 115.945 573.367 93.4742C571.278 66.8994 582.87 42.2431 611.315 46.7599Z" fill="#966259"/>
<path fill-rule="evenodd" clip-rule="evenodd" d="M589.379 84.8755C587.566 84.3324 586.564 82.1602 587.184 79.9879C587.804 77.8651 589.76 76.5815 591.621 77.1245C593.434 77.6676 594.436 79.8892 593.816 82.0121C593.148 84.1349 591.192 85.4185 589.379 84.8755Z" fill="#1B3760"/>
<path fill-rule="evenodd" clip-rule="evenodd" d="M616.208 104.779L591.939 102.649C593.396 125.558 614.549 122.13 616.208 104.779Z" fill="#1B3760"/>
<ellipse rx="12.0591" ry="22.3377" transform="matrix(-1 0 0 1 604.099 94.3377)" fill="#966259"/>
<path fill-rule="evenodd" clip-rule="evenodd" d="M604.079 81.1062L604.113 82.2395C604.318 86.0995 604.558 90.9157 601.581 91.9781L601.033 92.1906C598.809 92.9696 596.106 93.8904 596.003 97.715C595.969 98.5649 596.209 99.2378 596.619 99.8044C597.303 100.761 598.433 101.292 599.562 101.61C600.657 101.929 601.752 102 602.333 102C602.71 102 602.984 101.929 603.052 101.858L602.573 101.15C602.539 101.185 602.539 101.079 602.368 101.079C601.82 101.079 600.794 101.008 599.767 100.725C598.775 100.442 597.783 99.9814 597.235 99.2024C596.961 98.8128 596.79 98.317 596.79 97.715C596.893 94.5632 599.254 93.7487 601.204 93.0759L601.752 92.8634C605.345 91.5531 605.105 86.3474 604.9 82.1332L604.831 81L604.079 81.1062Z" fill="#1B3760"/>
<path fill-rule="evenodd" clip-rule="evenodd" d="M617.719 84.8755C615.646 84.3324 614.501 82.1108 615.21 79.9879C615.919 77.8651 618.155 76.5815 620.281 77.1245C622.353 77.6676 623.499 79.8892 622.79 82.0121C622.081 84.1349 619.791 85.4185 617.719 84.8755Z" fill="#1B3760"/>
<path fill-rule="evenodd" clip-rule="evenodd" d="M346.379 92.8755C344.566 92.3324 343.564 90.1602 344.184 87.9879C344.804 85.8651 346.76 84.5815 348.621 85.1245C350.434 85.6676 351.436 87.8892 350.816 90.0121C350.148 92.1349 348.192 93.4185 346.379 92.8755Z" fill="#1B3760"/>
<path fill-rule="evenodd" clip-rule="evenodd" d="M373.208 112.779L348.939 110.649C350.396 133.558 371.55 130.13 373.208 112.779Z" fill="#1B3760"/>
<ellipse rx="12.0591" ry="22.3377" transform="matrix(-1 0 0 1 361.098 102.338)" fill="#F4C0B8"/>
<rect width="40" height="13.5065" transform="matrix(-1 0 0 1 381 103.896)" fill="#F4C0B8"/>
<path fill-rule="evenodd" clip-rule="evenodd" d="M360.079 89.1062L360.113 90.2395C360.318 94.0995 360.558 98.9157 357.581 99.9781L357.033 100.191C354.809 100.97 352.106 101.89 352.003 105.715C351.969 106.565 352.209 107.238 352.619 107.804C353.303 108.761 354.433 109.292 355.562 109.61C356.657 109.929 357.752 110 358.333 110C358.71 110 358.984 109.929 359.052 109.858L358.573 109.15C358.539 109.185 358.539 109.079 358.368 109.079C357.82 109.079 356.794 109.008 355.767 108.725C354.775 108.442 353.783 107.981 353.235 107.202C352.961 106.813 352.79 106.317 352.79 105.715C352.893 102.563 355.254 101.749 357.204 101.076L357.752 100.863C361.345 99.5531 361.105 94.3474 360.9 90.1332L360.831 89L360.079 89.1062Z" fill="#1B3760"/>
<path fill-rule="evenodd" clip-rule="evenodd" d="M375.719 95.8755C373.646 95.3324 372.501 93.1108 373.21 90.9879C373.919 88.8651 376.155 87.5815 378.281 88.1245C380.353 88.6676 381.499 90.8892 380.79 93.0121C380.081 95.1349 377.791 96.4185 375.719 95.8755Z" fill="#1B3760"/>
</svg>
