<svg width="573" height="563" viewBox="0 0 573 563" fill="none" xmlns="http://www.w3.org/2000/svg">
<path d="M529.399 241.168C553.225 241.168 572.54 230.336 572.54 216.975C572.54 203.613 553.225 192.782 529.399 192.782C505.573 192.782 486.258 203.613 486.258 216.975C486.258 230.336 505.573 241.168 529.399 241.168Z" fill="#80D8A5"/>
<path d="M524.745 214.86C524.745 214.86 481.604 214.86 459.611 214.86C457.919 214.86 457.919 218.243 459.611 218.243C481.604 218.243 503.598 218.243 524.745 218.243C527.283 218.243 527.283 214.86 524.745 214.86C527.283 214.86 524.745 214.86 524.745 214.86Z" fill="#845944"/>
<path d="M498.861 218.159C505.882 221.881 512.988 225.603 520.009 229.325C522.039 230.424 523.9 227.295 521.785 226.195C514.764 222.473 507.659 218.751 500.638 215.029C498.608 213.929 496.831 217.059 498.861 218.159Z" fill="#845944"/>
<path d="M500.638 217.398C507.659 213.676 514.764 209.954 521.785 206.232C523.816 205.132 522.039 202.087 520.009 203.102C512.988 206.824 505.882 210.546 498.861 214.268C496.831 215.368 498.608 218.497 500.638 217.398Z" fill="#845944"/>
<path d="M529.399 362.132C553.225 362.132 572.54 351.3 572.54 337.939C572.54 324.578 553.225 313.746 529.399 313.746C505.573 313.746 486.258 324.578 486.258 337.939C486.258 351.3 505.573 362.132 529.399 362.132Z" fill="#80D8A5"/>
<path d="M524.745 335.824C524.745 335.824 481.604 335.824 459.611 335.824C457.919 335.824 457.919 339.208 459.611 339.208C481.604 339.208 503.598 339.208 524.745 339.208C527.283 339.208 527.283 335.824 524.745 335.824C527.283 335.824 524.745 335.824 524.745 335.824Z" fill="#845944"/>
<path d="M498.861 339.123C505.882 342.845 512.988 346.567 520.009 350.289C522.039 351.389 523.9 348.259 521.785 347.159C514.764 343.437 507.659 339.715 500.638 335.993C498.608 334.894 496.831 338.024 498.861 339.123Z" fill="#845944"/>
<path d="M500.638 338.362C507.659 334.64 514.764 330.918 521.785 327.196C523.816 326.096 522.039 323.051 520.009 324.066C512.988 327.788 505.882 331.51 498.861 335.232C496.831 336.331 498.608 339.461 500.638 338.362Z" fill="#845944"/>
<path d="M226.988 42.0414C231.725 65.3883 224.873 86.4514 211.761 89.0737C198.65 91.696 184.185 74.9471 179.533 51.5155C174.795 28.1685 181.647 7.10551 194.759 4.4832C207.87 1.8609 222.251 18.6098 226.988 42.0414Z" fill="#80D8A5"/>
<path d="M201.949 51.5154C206.263 72.8322 210.492 94.0644 214.806 115.381C215.229 117.665 218.697 116.65 218.275 114.451C213.96 93.1339 209.731 71.9017 205.417 50.5849C204.909 48.2164 201.526 49.2314 201.949 51.5154Z" fill="#845944"/>
<path d="M210.409 76.3849C212.693 68.7718 214.892 61.0741 217.176 53.4609C217.853 51.2616 214.385 50.2465 213.708 52.5304C211.424 60.1436 209.225 67.8413 206.941 75.4544C206.264 77.6538 209.732 78.5843 210.409 76.3849Z" fill="#845944"/>
<path d="M209.223 74.7779C204.232 68.6028 199.157 62.4277 194.166 56.2526C192.728 54.4762 190.19 57.0139 191.628 58.7903C196.619 64.9654 201.694 71.1405 206.685 77.3156C208.208 79.092 210.746 76.5543 209.223 74.7779Z" fill="#845944"/>
<path d="M370.876 517.44C364.955 494.347 370.537 472.945 383.564 469.646C396.507 466.263 411.818 482.25 417.824 505.343C423.745 528.437 418.162 549.838 405.135 553.137C392.193 556.436 376.882 540.448 370.876 517.44Z" fill="#80D8A5"/>
<path d="M395.409 506.697C389.995 485.634 384.581 464.655 379.083 443.592C378.491 441.308 375.022 442.324 375.615 444.523C381.028 465.586 386.442 486.564 391.941 507.627C392.533 509.911 396.001 508.896 395.409 506.697Z" fill="#845944"/>
<path d="M385.596 482.081C383.735 489.863 381.958 497.561 380.097 505.343C379.59 507.627 383.058 508.558 383.566 506.274C385.427 498.491 387.203 490.794 389.064 483.011C389.572 480.812 386.103 479.881 385.596 482.081Z" fill="#845944"/>
<path d="M386.694 483.688C392.023 489.61 397.437 495.447 402.766 501.368C404.289 503.06 406.827 500.522 405.304 498.83C399.975 492.909 394.561 487.072 389.232 481.151C387.709 479.459 385.171 481.997 386.694 483.688Z" fill="#845944"/>
<path d="M357.258 434.408H233.756V456.401C233.756 456.486 233.756 456.655 233.756 456.74V518.914C233.756 522.382 236.886 525.765 240.354 525.765H259.133V548.943C259.133 553.849 262.94 557.91 267.93 557.91H322.914C327.82 557.91 331.881 553.934 331.881 548.943V525.765H350.998C354.466 525.765 357.258 522.382 357.258 518.914V456.74C357.258 456.655 357.258 456.486 357.258 456.401V434.408Z" fill="#B3B3B3"/>
<path d="M279.266 545.62C279.266 536.484 286.625 529.125 295.761 529.125C304.897 529.125 312.256 536.484 312.256 545.62C312.256 554.756 304.897 562.115 295.761 562.115C286.625 562.115 279.266 554.756 279.266 545.62Z" fill="#D34242"/>
<path d="M293.561 542.844C291.023 542.844 288.57 542.928 286.032 542.928C283.156 542.928 283.156 547.412 286.032 547.412C288.57 547.412 291.023 547.412 293.561 547.412C293.561 549.949 293.561 552.403 293.561 554.94C293.561 557.816 298.044 557.816 298.044 554.94C298.044 552.403 298.044 549.442 298.044 547.75C300.582 547.75 303.119 547.75 305.657 547.75C308.195 547.75 308.195 542.675 305.657 542.675C303.119 542.675 300.582 542.675 298.044 542.675C298.044 540.137 298.044 537.599 298.044 535.061C298.044 532.524 293.561 532.524 293.561 535.061C293.476 537.684 293.476 540.391 293.561 542.844Z" fill="white"/>
<path d="M288.74 505.802C288.74 505.126 289.248 504.618 289.925 504.618H301.09C301.767 504.618 302.275 505.126 302.275 505.802V516.968C302.275 517.645 301.767 518.153 301.09 518.153H289.925C289.248 518.153 288.74 517.645 288.74 516.968V505.802Z" fill="white"/>
<path d="M288.74 485.501C288.74 484.824 289.248 484.316 289.925 484.316H301.09C301.767 484.316 302.275 484.824 302.275 485.501V496.667C302.275 497.343 301.767 497.851 301.09 497.851H289.925C289.248 497.851 288.74 497.343 288.74 496.667V485.501Z" fill="white"/>
<path d="M281.466 477.549H292.631C293.308 477.549 293.816 477.042 293.816 476.365V465.368V465.199V454.202C293.816 453.526 293.308 453.018 292.631 453.018H281.466C280.789 453.018 280.281 453.526 280.281 454.202V465.199V465.368V476.365C280.281 477.042 280.789 477.549 281.466 477.549Z" fill="white"/>
<path d="M297.538 477.549H308.704C309.38 477.549 309.888 477.042 309.888 476.365V465.368V465.199V454.202C309.888 453.526 309.38 453.018 308.704 453.018H297.538C296.861 453.018 296.354 453.526 296.354 454.202V465.199V465.368V476.365C296.354 477.042 296.861 477.549 297.538 477.549Z" fill="white"/>
<path d="M268.438 505.802C268.438 505.126 268.945 504.618 269.622 504.618H280.788C281.464 504.618 281.972 505.126 281.972 505.802V516.968C281.972 517.645 281.464 518.153 280.788 518.153H269.622C268.945 518.153 268.438 517.645 268.438 516.968V505.802Z" fill="white"/>
<path d="M268.438 485.501C268.438 484.824 268.945 484.316 269.622 484.316H280.788C281.464 484.316 281.972 484.824 281.972 485.501V496.667C281.972 497.343 281.464 497.851 280.788 497.851H269.622C268.945 497.851 268.438 497.343 268.438 496.667V485.501Z" fill="white"/>
<path d="M309.041 505.802C309.041 505.126 309.549 504.618 310.225 504.618H321.391C322.068 504.618 322.575 505.126 322.575 505.802V516.968C322.575 517.645 322.068 518.153 321.391 518.153H310.225C309.549 518.153 309.041 517.645 309.041 516.968V505.802Z" fill="white"/>
<path d="M309.041 485.501C309.041 484.824 309.549 484.316 310.225 484.316H321.391C322.068 484.316 322.575 484.824 322.575 485.501V496.667C322.575 497.343 322.068 497.851 321.391 497.851H310.225C309.549 497.851 309.041 497.343 309.041 496.667V485.501Z" fill="white"/>
<path d="M336.109 505.802C336.109 505.126 336.617 504.618 337.294 504.618H348.46C349.136 504.618 349.644 505.126 349.644 505.802V516.968C349.644 517.645 349.136 518.153 348.46 518.153H337.294C336.617 518.153 336.109 517.645 336.109 516.968V505.802Z" fill="white"/>
<path d="M336.109 485.501C336.109 484.824 336.617 484.316 337.294 484.316H348.46C349.136 484.316 349.644 484.824 349.644 485.501V496.667C349.644 497.343 349.136 497.851 348.46 497.851H337.294C336.617 497.851 336.109 497.343 336.109 496.667V485.501Z" fill="white"/>
<path d="M241.369 505.802C241.369 505.126 241.877 504.618 242.553 504.618H253.719C254.396 504.618 254.904 505.126 254.904 505.802V516.968C254.904 517.645 254.396 518.153 253.719 518.153H242.553C241.877 518.153 241.369 517.645 241.369 516.968V505.802Z" fill="white"/>
<path d="M241.369 485.501C241.369 484.824 241.877 484.316 242.553 484.316H253.719C254.396 484.316 254.904 484.824 254.904 485.501V496.667C254.904 497.343 254.396 497.851 253.719 497.851H242.553C241.877 497.851 241.369 497.343 241.369 496.667V485.501Z" fill="white"/>
<path d="M76.1645 402.736C68.8897 404.935 63.2221 400.875 61.1919 394.277L46.1348 344.96C44.1047 338.362 46.5578 331.849 53.8325 329.649L76.1645 402.736Z" fill="#D34242"/>
<path d="M57.4692 341.492L72.5263 390.808C74.5565 397.406 81.0699 400.874 87.668 398.929L120.151 388.947C126.749 386.917 131.147 380.065 129.117 373.467L127.933 369.491C126.326 369.999 126.241 370.337 125.649 370.506L106.362 376.428C95.6195 379.727 84.7919 373.298 81.4929 362.47L81.0699 361.032C77.7709 350.289 83.1847 339.292 94.0123 335.993L113.299 330.072C113.891 329.903 113.976 329.649 115.667 329.226L114.145 324.235C112.115 317.637 104.586 314.169 97.988 316.199L65.4207 326.096C58.8226 328.126 55.439 334.978 57.4692 341.492Z" fill="#CBF3F0"/>
<path d="M19.7419 310.786L25.2403 328.888C26.6784 333.71 31.3308 336.501 36.1525 335.063L86.1455 319.752L75.2333 284.14L25.2403 299.451C20.5032 300.889 18.3039 306.049 19.7419 310.786ZM50.0253 311.632C51.7171 317.13 49.0102 323.136 43.5119 324.828L43.0043 324.997C37.5059 326.689 30.7387 323.559 29.0469 318.06L28.8777 317.553C27.1859 312.055 31.2463 306.472 36.8292 304.864L37.3367 304.695C42.8351 303.003 48.2489 305.626 49.9407 311.124L50.0253 311.632Z" fill="#FFBF69"/>
<path d="M121.505 299.45L116.006 281.348C114.568 276.526 108.816 273.312 104.079 274.75L75.3184 284.055L86.2305 319.667L114.991 310.362C119.644 308.924 122.943 304.272 121.505 299.45Z" fill="#39B2B2"/>
<path d="M2.1468 321.782C2.1468 321.782 -0.306321 324.658 0.0320405 325.842C0.624174 327.873 1.38547 328.042 4.43073 329.311L27.8623 337.516L17.2039 302.665L2.1468 321.782Z" fill="#896BD1"/>
<path d="M60.1755 416.947L65.6739 435.049C67.1119 439.871 71.7644 442.662 76.5861 441.224L126.579 425.913L115.667 390.301L65.6739 405.612C60.9368 407.05 58.7375 412.21 60.1755 416.947Z" fill="#87AFAB"/>
<path d="M118.205 398.506L123.704 416.608C125.142 421.43 130.894 424.644 135.631 423.206L160.331 417.369L149.419 381.757L124.719 387.594C119.982 389.032 116.767 393.684 118.205 398.506Z" fill="#FF8038"/>
<path d="M31.6682 424.982L37.1666 443.085C38.6046 447.906 44.3568 451.121 49.0938 449.683L68.2959 443.761L57.3837 408.149L38.1816 414.07C33.4446 415.508 30.2302 420.161 31.6682 424.982Z" fill="#EF5959"/>
<path d="M325.96 105.823C325.96 111.406 322.069 115.889 317.332 115.889H256.765C252.028 115.889 248.137 111.406 248.137 105.823V32.1445C248.137 26.5615 252.028 21.9937 256.765 21.9937H317.332C322.069 21.9937 325.96 26.5615 325.96 32.1445V105.823Z" fill="#FFBF69"/>
<path d="M239.678 4.22949V38.7424C239.678 43.9024 243.823 48.132 248.983 48.132C254.143 48.132 258.288 43.9024 258.288 38.7424V4.22949H239.678Z" fill="#D34242"/>
<path d="M258.287 4.22949V38.7424C258.287 43.9024 262.432 48.132 267.592 48.132C272.752 48.132 276.897 43.9024 276.897 38.7424V4.22949H258.287Z" fill="#CBF3F0"/>
<path d="M276.898 4.22949V38.7424C276.898 43.9024 281.043 48.132 286.203 48.132C291.363 48.132 295.508 43.9024 295.508 38.7424V4.22949H276.898Z" fill="#D34242"/>
<path d="M295.508 4.22949V38.7424C295.508 43.9024 300.076 48.132 305.236 48.132C310.396 48.132 314.964 43.9024 314.964 38.7424V4.22949H295.508Z" fill="#CBF3F0"/>
<path d="M314.963 4.22949V38.7424C314.963 43.9024 319.108 48.132 324.268 48.132C329.428 48.132 333.573 43.9024 333.573 38.7424V4.22949H314.963Z" fill="#D34242"/>
<path d="M334.419 6.2597C334.419 7.44396 333.404 8.45905 332.22 8.45905H241.877C240.693 8.45905 239.678 7.44396 239.678 6.2597V2.19935C239.678 1.01508 240.693 0 241.877 0H332.22C333.404 0 334.419 1.01508 334.419 2.19935V6.2597Z" fill="#39B2B2"/>
<path d="M277.658 54.9839H264.716C259.979 54.9839 255.834 59.0442 255.834 63.7813V102.693C256.68 102.693 256.595 102.355 256.849 102.355H286.202V63.7813C286.202 59.0442 282.395 54.9839 277.658 54.9839Z" fill="#39B2B2"/>
<path d="M321.732 84.1676C321.732 88.5663 318.179 92.2037 313.696 92.2037H300.161C295.762 92.2037 292.125 88.6509 292.125 84.1676V63.02C292.125 58.6213 295.678 54.9839 300.161 54.9839H313.696C318.094 54.9839 321.732 58.5367 321.732 63.02V84.1676Z" fill="#39B2B2"/>
<path d="M370.707 89.2429L364.363 86.8744L352.436 82.3911L359.88 62.5969L352.774 59.9746L345.33 79.7688L342.623 86.8744L335.771 105.061L342.962 107.768L349.814 89.5813L361.656 93.98L354.804 112.252L361.91 114.874L371.469 89.5813L370.707 89.2429Z" fill="#FF8038"/>
<path d="M410.973 109.46L416.218 113.774L426.03 121.725L439.395 105.315L445.317 110.137L431.951 126.547L427.13 132.468L414.864 147.526L408.943 142.704L421.208 127.647L411.396 119.611L399.13 134.752L393.209 129.931L410.296 108.952L410.973 109.46Z" fill="#FF8038"/>
<path d="M382.474 83.2405L378.852 89.937L404.15 103.621L407.772 96.9249L382.474 83.2405Z" fill="#D34242"/>
<path d="M383.227 119.188L394.477 98.3791L387.795 94.7417L376.544 115.636L374.345 114.367L372.314 118.089L383.48 124.179L385.426 120.457L383.227 119.188Z" fill="#FF8038"/>
<path d="M490.908 266.46H484.141V290.991H490.908V266.46Z" fill="#896BD1"/>
<path d="M490.909 267.306C490.909 267.306 531.513 267.306 551.815 267.306C554.352 267.306 554.352 263.922 551.815 263.922C531.513 263.922 511.211 263.922 490.909 263.922C489.218 263.922 489.218 267.306 490.909 267.306C489.218 267.306 490.909 267.306 490.909 267.306Z" fill="#FFBF69"/>
<path d="M490.909 292.683C490.909 292.683 531.513 292.683 551.815 292.683C554.352 292.683 554.352 289.299 551.815 289.299C531.513 289.299 511.211 289.299 490.909 289.299C489.218 289.299 489.218 292.683 490.909 292.683C489.218 292.683 490.909 292.683 490.909 292.683Z" fill="#FFBF69"/>
<path d="M556.89 252.08H556.467H552.237H462.994V257.155H551.814V299.45H462.994V304.526H552.237H556.467H556.89V252.08Z" fill="#CBF3F0"/>
<path d="M99.8505 157.93C86.9081 174.425 91.8144 195.065 107.041 204.624C122.69 214.521 130.895 209.192 149.59 184.576C161.517 168.842 166.508 156.661 149.759 144.903C136.14 136.698 120.491 130.946 99.8505 157.93Z" fill="#FDD79C"/>
<path d="M134.363 175.018C140.031 163.344 142.399 152.517 138.255 139.997C140.2 140.42 142.23 141.182 144.345 141.351C143.922 126.463 129.88 114.028 118.46 108.53C120.998 106.753 123.959 108.191 128.527 108.107C120.321 98.3788 99.4275 97.1945 87.9232 98.125C68.8057 99.7322 66.3526 123.671 66.3526 123.671C52.6489 126.886 46.0509 138.305 46.5584 151.755C47.4043 163.26 58.4857 183.561 65.5913 189.652C64.7454 183.984 63.7303 182.885 64.407 178.571C71.0897 187.453 88.0924 198.703 102.642 195.404C101.965 193.374 100.696 191.682 99.8504 189.821C112.877 190.667 124.466 183.477 134.363 175.018Z" fill="#FF8038"/>
<path d="M135.209 175.441C140.707 163.936 142.906 152.009 139.184 139.828C138.846 140.251 138.592 140.589 138.254 141.012C140.199 141.351 142.145 142.027 144.26 142.281C144.852 142.366 145.19 141.858 145.19 141.266C144.514 126.124 131.571 114.028 118.713 107.768C118.798 108.276 118.798 108.783 118.883 109.291C121.59 107.684 125.565 109.037 128.526 109.037C129.203 109.037 129.541 108.107 129.118 107.684C123.873 101.762 115.753 99.3939 108.224 98.125C103.91 97.3637 99.4269 97.1099 95.0281 97.1099C91.4753 97.1099 87.6688 97.0253 84.2006 97.9558C72.95 100.916 66.6057 112.675 65.4215 123.587C65.6752 123.333 65.929 123.079 66.1828 122.825C58.8234 124.686 52.9021 128.831 49.1801 135.429C45.5427 141.774 44.866 149.81 46.4732 156.915C48.0804 163.598 51.0411 169.942 54.4247 175.948C57.3008 181.108 60.5998 186.437 64.9985 190.329C65.5907 190.836 66.5212 190.244 66.352 189.567C65.7598 185.93 64.6602 182.462 65.1677 178.74C64.6602 178.909 64.1526 178.993 63.6451 179.163C72.1887 190.329 88.3455 199.38 102.641 196.335C103.149 196.25 103.656 195.742 103.403 195.235C102.641 193.289 101.542 191.513 100.696 189.736C100.357 190.159 100.104 190.498 99.7652 190.921C113.215 191.513 124.889 184.323 134.87 175.864C135.716 175.102 134.616 173.749 133.771 174.426C124.127 182.546 112.877 189.652 99.7652 189.06C99.1731 189.06 98.4964 189.567 98.8347 190.244C99.7652 192.105 100.865 193.797 101.626 195.742C101.88 195.319 102.049 194.981 102.303 194.558C88.5993 197.434 73.0346 188.806 64.9139 178.063C64.491 177.471 63.4759 177.725 63.3913 178.486C62.8838 182.377 63.9834 185.93 64.5756 189.736C64.9985 189.483 65.5061 189.229 65.929 188.975C62.0379 185.507 59.1618 180.939 56.6241 176.456C53.4096 171.042 50.7873 165.205 48.8417 159.199C44.1893 144.565 50.7873 128.493 66.352 124.517C66.6903 124.433 67.0287 124.179 67.1133 123.756C68.1284 113.943 73.5422 103.37 83.2701 99.9014C86.7383 98.7171 90.6294 98.7171 94.2668 98.7171C98.3272 98.7171 102.303 98.9709 106.279 99.4784C113.807 100.494 122.435 102.693 127.68 108.614C127.849 108.191 128.103 107.684 128.272 107.261C124.719 107.261 120.997 105.907 117.783 107.853C117.191 108.191 117.445 109.122 117.952 109.376C130.302 115.381 142.653 126.97 143.329 141.435C143.668 141.097 144.006 140.759 144.344 140.505C142.23 140.251 140.284 139.659 138.254 139.151C137.577 138.982 137.154 139.744 137.323 140.336C141.13 152.263 138.761 163.767 133.517 174.764C133.094 175.694 134.786 176.456 135.209 175.441Z" fill="#FF8038"/>
<path d="M68.2124 154.208C71.0038 156.323 71.5114 160.299 69.312 163.006C67.1973 165.797 63.2215 166.305 60.5146 164.105C57.7232 161.991 57.2156 158.015 59.4149 155.308C61.5297 152.517 65.5055 152.009 68.2124 154.208Z" fill="#FFBF69"/>
<path d="M67.8746 156.238C69.3972 157.423 69.651 159.622 68.4667 161.145C67.2825 162.667 65.0831 162.921 63.5605 161.737C62.0378 160.552 61.7841 158.353 62.9683 156.83C64.1526 155.308 66.3519 155.054 67.8746 156.238Z" fill="#FDD79C"/>
<path d="M103.91 110.813C106.701 112.928 107.209 116.904 105.009 119.611C102.895 122.402 98.9188 122.91 96.2119 120.71C93.4204 118.595 92.9129 114.62 95.1122 111.913C97.227 109.206 101.203 108.698 103.91 110.813Z" fill="#FFBF69"/>
<path d="M101.88 113.097C103.403 114.282 103.657 116.481 102.473 118.003C101.288 119.526 99.089 119.78 97.5663 118.596C96.0437 117.411 95.7899 115.212 96.9742 113.689C98.1585 112.167 100.358 111.913 101.88 113.097Z" fill="#FDD79C"/>
<path d="M73.3731 135.26C61.2767 150.74 65.8446 170.027 80.0558 178.993C94.7745 188.298 102.388 183.223 119.898 160.214C131.064 145.496 135.716 134.076 120.067 123.079C107.294 115.466 92.6597 109.968 73.3731 135.26Z" fill="#FFBF69"/>
<path d="M95.7893 161.821C96.9736 162.752 97.2274 164.443 96.2969 165.628C95.3664 166.812 93.6746 167.066 92.4903 166.135C91.306 165.205 91.0522 163.513 91.9827 162.329C92.8286 161.144 94.605 160.891 95.7893 161.821Z" fill="#33210A" stroke="#33210A" stroke-miterlimit="10"/>
<path d="M111.354 141.689C112.538 142.619 112.792 144.311 111.861 145.495C110.931 146.679 109.239 146.933 108.055 146.003C106.87 145.072 106.617 143.38 107.547 142.196C108.393 140.927 110.17 140.758 111.354 141.689Z" fill="#33210A" stroke="#33210A" stroke-miterlimit="10"/>
<path d="M103.91 158.099C108.224 160.045 111.354 156.999 107.97 152.854C106.617 154.546 105.264 156.323 103.91 158.099Z" fill="#33210A"/>
<path d="M103.656 159.03C105.602 159.876 107.97 160.13 109.578 158.438C111.185 156.661 110 154.124 108.816 152.516C108.478 152.093 107.801 152.093 107.463 152.516C106.109 154.293 104.84 155.9 103.402 157.761C102.726 158.692 104.079 159.707 104.756 158.861C106.194 157 107.463 155.393 108.816 153.616C108.224 153.447 107.801 153.532 107.378 153.532C108.139 154.547 109.155 156.154 108.139 157.338C107.294 158.438 105.263 157.846 104.248 157.423C103.318 157 102.641 158.607 103.656 159.03Z" fill="#33210A"/>
<path d="M107.124 157.677C107.124 157.677 110.339 160.13 112.2 161.568C112.623 161.906 113.723 160.553 113.3 160.214C111.439 158.776 109.662 157.423 108.224 156.323C107.294 155.646 106.194 157 107.124 157.677C106.194 157 107.124 157.677 107.124 157.677Z" fill="#33210A"/>
<path d="M114.823 152.009C115.5 151.163 114.146 150.063 113.47 150.909C112.793 151.755 114.146 152.855 114.823 152.009Z" fill="#FDD79C"/>
<path d="M116.177 155.9C116.853 155.054 115.5 153.954 114.823 154.8C114.146 155.731 115.5 156.83 116.177 155.9Z" fill="#FDD79C"/>
<path d="M119.728 151.332C120.405 150.486 119.051 149.386 118.375 150.232C117.613 151.163 119.051 152.262 119.728 151.332Z" fill="#FDD79C"/>
<path d="M103.149 167.066C103.826 166.22 102.472 165.12 101.796 165.966C101.119 166.897 102.472 167.996 103.149 167.066Z" fill="#FDD79C"/>
<path d="M102.979 172.057C103.656 171.211 102.303 170.111 101.626 170.957C100.949 171.887 102.303 172.902 102.979 172.057Z" fill="#FDD79C"/>
<path d="M107.463 166.727C108.139 165.882 106.786 164.782 106.109 165.628C105.348 166.558 106.786 167.658 107.463 166.727Z" fill="#FDD79C"/>
<path d="M151.534 145.58C154.072 137.713 154.156 129.677 150.942 121.979C147.474 113.774 136.985 108.783 139.184 98.8862C139.522 97.2789 136.985 97.0252 136.646 98.6324C134.954 106.499 139.607 110.813 144.259 116.396C151.027 124.602 152.295 134.668 149.166 144.734C148.658 146.257 151.027 147.187 151.534 145.58Z" fill="#FDD79C"/>
<path d="M139.1 101.508C127.258 101.677 132.502 86.2819 138.677 82.3062C141.976 86.5357 147.052 101.424 139.1 101.508Z" fill="#FF8038"/>
<path d="M139.27 100.239C128.95 99.9857 134.194 86.9587 139.523 83.3213C138.931 83.2367 138.339 83.2367 137.747 83.1522C139.946 86.1974 145.952 99.8165 138.931 100.324C137.324 100.409 137.747 102.946 139.354 102.862C149.336 102.185 142.992 86.0282 139.777 81.6295C139.354 81.0374 138.508 81.0374 138.001 81.4603C130.811 86.4512 126.327 102.608 139.101 102.946C140.623 102.777 140.877 100.239 139.27 100.239Z" fill="#FF8038"/>
<path d="M527.453 448.076C527.453 458.396 519.079 466.771 508.759 466.771C498.439 466.771 490.064 458.396 490.064 448.076C490.064 437.756 498.439 429.382 508.759 429.382C519.079 429.382 527.453 437.756 527.453 448.076Z" fill="#FFBF69"/>
<path d="M506.137 411.956C506.137 415.594 506.137 419.315 506.137 422.953C506.137 425.237 510.366 425.237 510.366 422.953C510.366 419.315 510.366 415.594 510.366 411.956C510.366 409.672 506.137 409.672 506.137 411.956Z" fill="#FFBF69"/>
<path d="M506.137 473.707C506.137 477.344 506.137 481.066 506.137 484.704C506.137 486.988 510.366 486.988 510.366 484.704C510.366 481.066 510.366 477.344 510.366 473.707C510.366 471.423 506.137 471.423 506.137 473.707Z" fill="#FFBF69"/>
<path d="M544.203 446.638C544.203 446.638 537.436 446.638 533.206 446.638C531.515 446.638 531.515 450.022 533.206 450.022C537.436 450.022 540.82 450.022 544.203 450.022C546.741 450.022 546.741 446.638 544.203 446.638C546.741 446.638 544.203 446.638 544.203 446.638Z" fill="#FFBF69"/>
<path d="M482.451 446.638C482.451 446.638 475.684 446.638 471.454 446.638C469.763 446.638 469.763 450.022 471.454 450.022C475.684 450.022 479.068 450.022 482.451 450.022C484.989 450.022 484.989 446.638 482.451 446.638C484.989 446.638 482.451 446.638 482.451 446.638Z" fill="#FFBF69"/>
<path d="M535.236 472.777C532.613 470.155 530.076 467.617 527.453 464.995C525.846 463.387 523.308 465.925 524.916 467.532C527.538 470.155 530.076 472.692 532.698 475.315C534.305 476.922 536.843 474.384 535.236 472.777Z" fill="#FFBF69"/>
<path d="M491.587 429.128C488.965 426.506 486.427 423.968 483.805 421.346C482.198 419.738 479.66 422.276 481.267 423.883C483.889 426.506 486.427 429.043 489.049 431.666C490.657 433.273 493.194 430.735 491.587 429.128Z" fill="#FFBF69"/>
<path d="M483.805 475.315C486.427 472.692 488.965 470.155 491.587 467.532C493.194 465.925 490.657 463.387 489.049 464.995C486.427 467.617 483.889 470.155 481.267 472.777C479.66 474.384 482.198 476.922 483.805 475.315Z" fill="#FFBF69"/>
<path d="M527.453 431.666C530.076 429.043 532.613 426.506 535.236 423.883C536.843 422.276 534.305 419.738 532.698 421.346C530.076 423.968 527.538 426.506 524.916 429.128C523.308 430.735 525.846 433.273 527.453 431.666Z" fill="#FFBF69"/>
<path d="M291.277 470.661C394.104 470.661 477.461 387.304 477.461 284.478C477.461 181.651 394.104 98.2939 291.277 98.2939C188.451 98.2939 105.094 181.651 105.094 284.478C105.094 387.304 188.451 470.661 291.277 470.661Z" fill="white"/>
<path d="M345.413 319.921C345.413 335.486 332.893 347.667 317.329 347.667H256.846C241.282 347.667 228.678 335.401 228.678 319.921V259.439C228.678 243.874 241.282 230.932 256.846 230.932H317.329C332.893 230.932 345.413 243.874 345.413 259.439V319.921Z" fill="#CBF3F0"/>
<path d="M353.872 309.77C353.872 325.335 341.268 338.362 325.703 338.362H265.221C249.656 338.362 237.137 325.335 237.137 309.77V249.288C237.137 233.724 249.656 220.781 265.221 220.781H325.703C341.268 220.781 353.872 233.808 353.872 249.288V309.77Z" fill="#FFBF69"/>
<path d="M252.786 289.807L237.137 309.094V309.771C237.137 325.335 250.164 339.208 265.728 339.208H326.633C327.564 339.208 328.494 338.531 329.425 338.447L290.852 290.146C280.362 277.119 263.275 276.78 252.786 289.807Z" fill="#57C58A"/>
<path d="M328.41 338.7C328.072 338.7 327.649 338.785 327.311 338.785C327.733 338.7 328.072 338.7 328.41 338.7Z" fill="#46AA73"/>
<path d="M341.692 307.909C334.163 298.52 321.982 298.435 314.538 307.825L309.209 314.507L328.58 338.7C339.323 337.685 348.29 330.58 352.096 320.852L341.692 307.909Z" fill="#46AA73"/>
<path d="M317.703 278.213C317.814 273.309 313.929 269.243 309.025 269.132C304.121 269.02 300.055 272.905 299.944 277.809C299.832 282.713 303.718 286.779 308.622 286.89C313.525 287.002 317.591 283.116 317.703 278.213Z" fill="#FF8038"/>
<path d="M219.204 366.785L232.062 363.063L219.627 358.072L215.821 345.299L210.914 357.734L198.057 361.456L210.491 366.446L214.298 379.22L219.204 366.785Z" fill="white"/>
<path d="M148.15 465.755L161.007 462.034L148.573 457.043L144.766 444.27L139.86 456.704L127.002 460.426L139.437 465.417L143.243 478.19L148.15 465.755Z" fill="white"/>
<path d="M447.683 66.7423L461.048 67.1653L450.728 58.6216L451.236 45.2563L442.608 55.4918L429.242 55.0688L439.562 63.6125L439.055 76.9778L447.683 66.7423Z" fill="white"/>
<path d="M381.449 199.972L388.301 197.096L381.111 195.151L378.235 188.299L376.289 195.489L369.438 198.45L376.628 200.311L379.504 207.247L381.449 199.972Z" fill="white"/>
<path d="M142.059 53.6305L148.911 50.7544L141.72 48.8089L138.844 41.957L136.899 49.1472L130.047 52.1079L137.237 53.9689L140.113 60.9053L142.059 53.6305Z" fill="white"/>
<path d="M71.0021 243.113L77.8539 240.237L70.6637 238.292L67.7876 231.44L65.8421 238.63L58.9902 241.591L66.1804 243.452L69.0565 250.388L71.0021 243.113Z" fill="white"/>
<path d="M356.579 164.275L363.431 161.315L356.24 159.454L353.28 152.517L351.334 159.792L344.482 162.668L351.673 164.614L354.633 171.465L356.579 164.275Z" fill="#80D8A5"/>
<path d="M465.702 140.59L472.554 137.629L465.364 135.768L462.403 128.832L460.457 136.106L453.605 138.982L460.796 140.928L463.756 147.78L465.702 140.59Z" fill="#80D8A5"/>
<path d="M480.083 44.1565L486.935 41.1958L479.744 39.3349L476.784 32.3984L474.838 39.6732L467.986 42.5493L475.177 44.4949L478.137 51.3467L480.083 44.1565Z" fill="#80D8A5"/>
<path d="M200.932 322.798L209.391 320.344L201.186 317.13L198.648 308.671L195.434 316.876L186.975 319.329L195.18 322.544L197.633 331.003L200.932 322.798Z" fill="#80D8A5"/>
<path d="M258.624 377.02L264.968 375.159L258.793 372.791L256.932 366.446L254.479 372.537L248.135 374.398L254.31 376.851L256.171 383.195L258.624 377.02Z" fill="#80D8A5"/>
<path d="M422.22 463.895L430.68 461.357L422.474 458.143L420.021 449.684L416.807 457.889L408.348 460.342L416.553 463.556L419.006 472.016L422.22 463.895Z" fill="#80D8A5"/>
<path d="M158.301 24.8699L166.76 22.3322L158.554 19.1177L156.101 10.6587L152.887 18.864L144.428 21.3171L152.633 24.5315L155.086 32.9906L158.301 24.8699Z" fill="#80D8A5"/>
<path d="M342.031 238.461C348.798 238.461 355.566 238.376 362.248 238.376C370.031 238.376 370.031 226.28 362.248 226.28C355.481 226.28 348.714 226.28 342.031 226.28C342.031 219.513 341.693 212.745 341.693 206.063C341.693 198.28 329.343 198.28 329.343 206.063C329.343 212.83 329.343 220.866 329.343 225.942C322.575 225.942 316.485 225.942 309.718 225.942C301.935 225.942 301.935 237.784 309.718 237.784C316.485 237.784 322.575 237.784 329.343 237.784C329.343 245.397 329.343 253.011 329.343 258.932C329.343 267.391 342.031 267.391 342.031 258.932C342.031 252.926 342.031 245.144 342.031 238.461Z" fill="#FF6900"/>
</svg>
