<svg width="400" height="426" viewBox="0 0 400 426" fill="none" xmlns="http://www.w3.org/2000/svg">
<path d="M212.26 415.987C315.874 415.987 399.871 331.991 399.871 228.376C399.871 124.761 315.874 40.7646 212.26 40.7646C108.645 40.7646 24.6484 124.761 24.6484 228.376C24.6484 331.991 108.645 415.987 212.26 415.987Z" fill="white"/>
<path d="M327.745 345.047C328.427 342.49 328.768 339.848 328.768 337.802C328.768 337.802 303.025 246.17 258.616 247.023H173.036C128.967 247.023 102.799 337.376 102.799 337.376C102.799 339.592 103.225 341.638 103.907 345.047H327.745Z" fill="#FF9F1C"/>
<path d="M214.887 283.676H217.188C232.446 283.676 243.527 271.657 243.527 256.314V247.023H187.27V256.314C187.27 271.657 199.629 283.676 214.887 283.676Z" fill="#FF8038"/>
<path d="M236.709 253.16C236.709 264.923 228.611 274.299 216.763 274.299H214.973C203.21 274.299 194.004 264.923 194.004 253.16V231.85C194.004 220.087 203.124 211.222 214.973 211.222H216.763C228.526 211.222 236.709 220.087 236.709 231.85V253.16Z" fill="#EDBC7A"/>
<path d="M299.019 134.252C291.945 91.9734 257.934 72.3685 216.849 76.2894C216.167 76.3747 215.57 76.4599 214.974 76.5452C214.377 76.4599 213.695 76.2894 213.099 76.2894C171.928 72.3685 137.918 91.9734 130.928 134.252C127.178 156.755 141.072 212.501 115.244 224.264C171.928 250.092 198.437 215.655 213.269 191.362C213.866 190.339 214.462 189.231 214.974 188.208C215.485 189.231 216.082 190.339 216.679 191.362C231.595 215.655 258.02 250.092 314.703 224.264C288.791 212.587 302.77 156.755 299.019 134.252Z" fill="#33210A"/>
<path d="M300.211 133.911C297.143 116.437 289.045 100.412 274.81 89.4164C261.342 78.932 244.124 74.7552 227.247 74.5848C224.945 74.5848 222.558 74.67 220.257 74.7552C218.382 74.8405 216.08 75.5224 214.205 75.1814C209.602 74.329 204.743 74.4995 200.14 74.5848C191.361 74.7552 182.581 76.2895 174.228 79.1024C158.544 84.3872 145.502 95.2978 137.49 109.874C132.546 118.909 129.477 129.479 128.881 139.793C128.284 149.425 129.222 159.142 129.648 168.689C130.074 179.344 130.33 190.169 128.54 200.739C127.005 209.859 123.255 219.065 114.475 223.242C113.623 223.668 113.623 225.032 114.475 225.458C135.7 235.005 159.567 239.181 180.876 227.674C196.049 219.491 208.153 204.489 215.995 189.146C215.228 189.146 214.546 189.146 213.779 189.146C221.706 204.489 233.725 219.235 248.897 227.674C269.866 239.437 294.33 234.919 315.298 225.543C316.151 225.202 316.151 223.668 315.298 223.327C300.211 216.167 299.785 195.283 299.785 180.878C299.785 165.364 302.683 149.339 300.211 133.911C299.955 132.292 297.483 132.974 297.739 134.593C298.933 142.179 298.336 150.107 297.995 157.778C297.569 167.069 297.143 176.445 297.398 185.736C297.739 199.801 299.7 218.468 314.19 225.287C314.19 224.52 314.19 223.838 314.19 223.071C292.881 232.447 269.355 236.368 248.642 224.35C234.577 216.167 223.326 201.761 215.995 187.527C215.569 186.674 214.205 186.674 213.779 187.527C206.363 201.932 195.111 215.911 181.047 224.35C160.59 236.624 136.041 232.447 115.583 223.071C115.583 223.838 115.583 224.52 115.583 225.287C128.369 219.321 131.097 204.148 132.035 191.618C133.228 175.593 131.097 159.568 131.267 143.543C131.438 126.154 138.342 108.851 150.531 96.4912C163.488 83.3644 181.985 77.7386 200.055 77.1419C202.783 77.0567 205.425 77.1419 208.153 77.2272C210.284 77.3124 213.097 78.1648 215.143 77.8238C220.513 76.8862 226.309 76.9715 231.764 77.2272C242.504 77.7386 253.244 80.2105 262.962 84.9839C282.567 94.6159 293.989 113.539 297.654 134.593C298.08 136.213 300.552 135.531 300.211 133.911Z" fill="#33210A"/>
<path d="M288.365 173.461C288.365 213.779 255.634 246.511 215.315 246.511C174.997 246.511 142.266 213.779 142.266 173.461C142.266 133.143 174.997 100.411 215.315 100.411C255.634 100.411 288.365 133.143 288.365 173.461Z" fill="#FDD79C"/>
<path d="M140.048 207.301C149.604 207.301 157.351 199.554 157.351 189.998C157.351 180.441 149.604 172.694 140.048 172.694C130.491 172.694 122.744 180.441 122.744 189.998C122.744 199.554 130.491 207.301 140.048 207.301Z" fill="#FDD79C"/>
<path d="M288.364 207.301C297.921 207.301 305.668 199.554 305.668 189.998C305.668 180.441 297.921 172.694 288.364 172.694C278.808 172.694 271.061 180.441 271.061 189.998C271.061 199.554 278.808 207.301 288.364 207.301Z" fill="#FDD79C"/>
<path d="M290.836 161.869C284.358 126.069 253.075 98.8774 215.399 98.8774C177.809 98.8774 146.526 125.983 139.963 161.699C142.691 161.954 145.418 162.125 148.231 162.125C177.809 162.125 203.381 145.418 216.252 120.954C229.038 145.418 254.695 162.125 284.273 162.125C286.404 162.125 288.62 162.04 290.836 161.869Z" fill="#33210A" stroke="#33210A" stroke-miterlimit="10"/>
<path d="M191.276 188.634C191.276 192.044 188.549 194.772 185.139 194.772C181.73 194.772 179.002 192.044 179.002 188.634C179.002 185.225 181.73 182.497 185.139 182.497C188.463 182.497 191.276 185.225 191.276 188.634Z" fill="#33210A" stroke="#33210A" stroke-miterlimit="10"/>
<path d="M168.943 169.711C175.336 164.597 183.093 162.04 191.276 163.233C193.577 163.574 194.515 160.079 192.213 159.738C182.581 158.374 173.887 161.102 166.386 167.154C164.511 168.603 167.153 171.16 168.943 169.711Z" fill="#33210A"/>
<path d="M234.408 188.634C234.408 192.044 237.136 194.772 240.545 194.772C243.955 194.772 246.683 192.044 246.683 188.634C246.683 185.225 243.955 182.497 240.545 182.497C237.136 182.497 234.408 185.225 234.408 188.634Z" fill="#33210A" stroke="#33210A" stroke-miterlimit="10"/>
<path d="M259.298 167.069C251.797 161.017 243.017 158.289 233.471 159.653C231.169 159.994 232.192 163.489 234.408 163.148C242.591 161.955 250.348 164.512 256.741 169.626C258.531 171.16 261.088 168.603 259.298 167.069Z" fill="#33210A"/>
<path d="M193.832 207.813C195.878 220.599 204.743 230.231 215.397 230.231C226.052 230.231 234.917 220.599 236.963 207.813H193.832Z" fill="#FC8181"/>
<path d="M209.093 197.925C211.309 194.856 215.657 195.027 217.702 198.096C218.64 199.459 220.856 198.181 219.918 196.817C216.679 192.044 210.201 192.044 206.877 196.646C205.939 198.01 208.155 199.289 209.093 197.925Z" fill="#D3AC79"/>
<path d="M281.887 344.536C281.887 349.565 277.88 353.571 272.851 353.571H156.244C151.215 353.571 147.209 349.565 147.209 344.536V268.843C147.209 263.814 151.215 259.808 156.244 259.808H272.851C277.88 259.808 281.887 263.814 281.887 268.843V344.536V344.536Z" fill="#666666"/>
<path d="M274.555 271.146C274.555 273.618 272.509 275.663 270.037 275.663C267.565 275.663 265.52 273.618 265.52 271.146C265.52 268.674 267.565 266.628 270.037 266.628C272.509 266.628 274.555 268.674 274.555 271.146Z" fill="#333333"/>
<path d="M134.424 359.539C127.435 366.528 115.757 366.358 108.767 359.368L106.636 357.237C99.5614 350.162 99.5614 338.826 106.636 331.751L146.358 292.029C153.432 284.954 164.769 284.954 171.844 292.029L173.975 294.16C181.05 301.15 181.22 312.828 174.145 319.817L134.424 359.539Z" fill="#FDD79C"/>
<path d="M296.972 359.539C303.962 366.528 315.64 366.358 322.629 359.368L324.76 357.237C331.835 350.162 331.835 338.826 324.76 331.751L285.039 292.029C277.964 284.954 266.627 284.954 259.552 292.029L257.421 294.16C250.347 301.15 250.176 312.828 257.251 319.817L296.972 359.539Z" fill="#FDD79C"/>
<path d="M337.46 75.1811L349.479 71.2602L337.545 66.913L333.624 54.9795L329.362 66.8277L317.344 70.7487L329.192 75.0107L333.113 87.0294L337.46 75.1811Z" fill="white"/>
<path d="M302.514 46.4552L309.674 44.1538L302.599 41.5966L300.297 34.4365L297.74 41.5114L290.58 43.8128L297.655 46.37L299.956 53.5301L302.514 46.4552Z" fill="#F77979"/>
<path d="M323.057 12.0187L330.217 9.71726L323.142 7.16009L320.755 0L318.198 7.07484L311.123 9.37629L318.198 11.9335L320.499 19.0936L323.057 12.0187Z" fill="#F77979"/>
<path d="M352.635 244.295L361.84 247.363L352.72 250.688L349.651 259.894L346.327 250.773L337.121 247.704L346.242 244.38L349.31 235.174L352.635 244.295Z" fill="white"/>
<path d="M380.252 215.314L385.707 217.104L380.252 219.149L378.462 224.605L376.501 219.149L370.961 217.359L376.416 215.399L378.206 209.858L380.252 215.314Z" fill="#F77979"/>
<path d="M387.497 261.513L393.037 263.303L387.582 265.264L385.792 270.804L383.832 265.349L378.291 263.559L383.746 261.513L385.536 256.058L387.497 261.513Z" fill="#F77979"/>
<path d="M97.0871 251.625L109.106 247.704L97.1724 243.357L93.2514 231.424L88.9894 243.272L76.9707 247.193L88.819 251.455L92.7399 263.474L97.0871 251.625Z" fill="white"/>
<path d="M88.5643 185.394L95.7244 183.093L88.6495 180.536L86.3481 173.375L83.7909 180.45L76.6309 182.752L83.7057 185.309L86.0072 192.469L88.5643 185.394Z" fill="#F77979"/>
<path d="M11.9335 112.601L19.0936 110.299L12.0187 107.742L9.63203 100.582L7.07486 107.657L0 109.958L7.07486 112.515L9.37629 119.676L11.9335 112.601Z" fill="#F77979"/>
<path d="M212.5 55.8316L154.537 66.8274C149.338 67.8503 145.928 72.7941 146.951 77.9937L150.105 94.4448C151.128 99.6444 156.071 103.054 161.271 102.031C161.271 102.031 183.007 97.8544 190.252 96.4906C197.498 95.1268 219.234 90.95 219.234 90.95C224.433 89.9272 227.843 84.9833 226.82 79.7837L223.666 63.3326C222.728 58.3035 217.699 54.8939 212.5 55.8316Z" fill="#896BD1"/>
<path d="M246.256 45.6029C245.659 42.5342 243.016 40.4033 240.033 40.4033C235.686 39.6361 196.902 32.9022 183.52 30.1746C182.156 29.9189 179.854 29.3222 177.979 29.6632C176.7 29.9189 174.484 31.2827 173.376 31.8794C160.59 39.6361 122.147 63.0769 122.147 63.0769C120.017 64.4407 118.823 66.9979 119.335 69.6403C119.846 72.2827 121.892 74.2432 124.364 74.6694V74.7546C124.364 74.7546 167.921 81.8295 183.008 84.8981C183.775 85.0685 186.588 85.6652 188.037 85.4095C189.486 85.1538 192.811 83.0228 193.493 82.5966C205.597 74.9251 238.499 54.8939 242.335 52.5925C245.147 51.5696 246.852 48.6715 246.256 45.6029Z" fill="#745CBF"/>
<path d="M141.752 61.9692C126.154 67.3392 124.96 84.5575 124.875 98.7072C124.875 100.327 127.432 100.327 127.432 98.7072C127.432 85.9213 128.029 69.2997 142.434 64.4411C143.969 63.9297 143.287 61.4577 141.752 61.9692Z" fill="#896BD1"/>
<path d="M126.496 100.412C121.808 101.009 122.32 106.379 121.297 111.237C124.365 111.493 127.69 110.982 130.673 110.641C130.247 107.657 130.077 99.9859 126.496 100.412Z" fill="#896BD1"/>
<path d="M126.152 99.2189C120.612 100.242 120.867 106.635 120.015 110.897C119.845 111.749 120.356 112.431 121.208 112.516C124.362 112.687 127.431 112.346 130.585 111.919C131.181 111.834 131.949 111.408 131.863 110.641C131.437 107.317 131.608 98.8779 126.408 99.1336C124.788 99.2189 124.788 101.776 126.408 101.691C129.136 101.52 129.05 108.851 129.306 110.641C129.732 110.215 130.159 109.788 130.585 109.362C127.431 109.788 124.362 110.129 121.208 109.959C121.635 110.47 122.061 111.067 122.402 111.579C122.998 108.339 122.572 102.373 126.749 101.691C128.454 101.35 127.687 98.8779 126.152 99.2189Z" fill="#896BD1"/>
<path d="M129.992 98.5368C129.992 100.753 128.202 102.628 125.9 102.628C123.684 102.628 121.809 100.838 121.809 98.5368C121.809 96.3206 123.599 94.4453 125.9 94.4453C128.202 94.4453 129.992 96.2353 129.992 98.5368Z" fill="#FF8038"/>
<path d="M128.712 98.5368C128.542 102.117 123.342 102.117 123.086 98.5368C122.916 94.8716 128.542 94.9568 128.712 98.5368C128.797 100.156 131.354 100.156 131.269 98.5368C131.099 95.5535 128.968 93.3373 125.899 93.1668C122.916 92.9963 120.7 95.7239 120.529 98.5368C120.359 101.52 123.086 103.736 125.899 103.907C128.882 104.077 131.099 101.35 131.269 98.5368C131.354 96.8321 128.797 96.9173 128.712 98.5368Z" fill="#FF8038"/>
<path d="M331.495 341.127C331.24 341.213 243.529 355.874 243.188 355.959C224.009 359.198 211.138 377.098 214.292 396.277C217.531 415.456 235.772 428.753 254.951 425.514C267.566 423.383 277.539 414.518 282.057 403.948L296.206 401.562L310.612 399.175C318.283 407.699 330.558 412.728 343.173 410.597C362.352 407.358 375.308 389.117 372.069 369.938C368.83 350.759 350.674 337.888 331.495 341.127Z" fill="#87AFAB"/>
<path d="M360.732 371.728C362.778 384.173 354.425 395.936 341.98 397.981C329.535 400.027 317.772 391.674 315.726 379.229C313.68 366.784 322.034 355.021 334.479 352.975C346.838 350.929 358.601 359.283 360.732 371.728Z" fill="#FFBF69"/>
<path d="M270.976 386.815C273.022 399.26 264.669 411.022 252.224 413.068C239.779 415.114 228.016 406.761 225.97 394.316C223.924 381.871 232.278 370.108 244.723 368.062C257.082 366.016 268.845 374.37 270.976 386.815Z" fill="#FFBF69"/>
<path d="M301.406 372.239C301.747 374.455 300.297 376.501 298.081 376.842L284.613 379.144C282.397 379.485 280.352 378.035 280.011 375.819C279.67 373.603 281.119 371.557 283.335 371.216L296.803 368.915C299.019 368.574 301.065 370.023 301.406 372.239Z" fill="#5B8984"/>
<path d="M299.446 342.406L285.978 344.707C285.722 344.707 285.552 344.793 285.296 344.878C285.04 344.878 284.87 344.878 284.614 344.963L271.146 347.265C268.93 347.606 267.396 349.566 267.737 351.868C279.074 349.992 292.541 347.691 304.219 345.73C303.793 343.344 301.662 342.065 299.446 342.406Z" fill="#5B8984"/>
<path d="M257.934 384.429L252.394 385.366L251.371 379.315C251.2 378.206 250.689 377.524 249.581 377.695L243.529 378.718C242.421 378.888 240.972 379.911 241.142 381.105L242.165 387.157L237.818 387.924C236.71 388.094 235.09 388.35 235.26 389.458L236.283 395.51C236.454 396.618 238.329 397.556 239.437 397.385L243.784 396.618L244.552 401.306C244.722 402.414 246.512 403.437 247.62 403.267L253.672 402.244C254.78 402.073 254.951 400.71 254.78 399.601L254.013 394.913L259.554 393.976C260.662 393.805 260.917 392.441 260.747 391.333L259.724 385.281C259.468 384.088 259.042 384.258 257.934 384.429Z" fill="#FF8038"/>
<path d="M341.554 364.226C342.065 367.21 340.019 369.937 337.121 370.449C334.138 370.96 331.41 368.914 330.899 366.016C330.387 363.033 332.433 360.305 335.331 359.794C338.229 359.282 341.042 361.328 341.554 364.226Z" fill="#EF5959"/>
<path d="M345.304 386.56C345.815 389.543 343.769 392.271 340.871 392.782C337.888 393.294 335.16 391.248 334.649 388.35C334.137 385.367 336.183 382.639 339.081 382.127C341.979 381.616 344.792 383.577 345.304 386.56Z" fill="#896BD1"/>
<path d="M350.076 379.74C347.093 380.251 344.365 378.205 343.854 375.307C343.342 372.324 345.388 369.596 348.286 369.085C351.27 368.573 353.997 370.619 354.509 373.517C355.02 376.501 353.06 379.228 350.076 379.74Z" fill="#57C58A"/>
<path d="M327.83 383.491C324.847 384.002 322.119 381.956 321.608 379.058C321.096 376.075 323.142 373.347 326.04 372.836C329.024 372.324 331.751 374.37 332.263 377.268C332.774 380.166 330.814 382.979 327.83 383.491Z" fill="#56C4CC"/>
<path d="M287.087 346.753C286.49 335.16 289.644 323.653 299.361 316.578C309.249 309.418 321.95 309.588 333.372 311.464C346.072 313.509 360.989 312.572 369.684 301.832C376.417 293.649 376.503 281.63 369.172 273.873C367.553 272.168 364.995 274.726 366.615 276.43C376.758 287.256 368.405 302.002 356.557 306.69C343.771 311.719 330.303 305.838 317.176 306.776C307.885 307.457 298.85 311.037 292.372 317.771C285.041 325.443 282.91 336.353 283.422 346.667C283.592 349.054 287.257 349.054 287.087 346.753Z" fill="#5B8984"/>
</svg>
