<svg width="179" height="68" viewBox="0 0 179 68" fill="none" xmlns="http://www.w3.org/2000/svg">
<g filter="url(#filter0_d)">
<path d="M144.879 3H33.7758C18.4356 3 6 15.4356 6 30.7758C6 46.1159 18.4356 58.5515 33.7758 58.5515H144.879C160.219 58.5515 172.655 46.1159 172.655 30.7758C172.655 15.4356 160.219 3 144.879 3Z" fill="#FF6900"/>
</g>
<path d="M34.598 36.18C33.626 36.18 32.684 36.042 31.772 35.766C30.872 35.49 30.158 35.124 29.63 34.668L30.44 32.85C30.956 33.258 31.586 33.594 32.33 33.858C33.086 34.11 33.842 34.236 34.598 34.236C35.534 34.236 36.23 34.086 36.686 33.786C37.154 33.486 37.388 33.09 37.388 32.598C37.388 32.238 37.256 31.944 36.992 31.716C36.74 31.476 36.416 31.29 36.02 31.158C35.624 31.026 35.084 30.876 34.4 30.708C33.44 30.48 32.66 30.252 32.06 30.024C31.472 29.796 30.962 29.442 30.53 28.962C30.11 28.47 29.9 27.81 29.9 26.982C29.9 26.286 30.086 25.656 30.458 25.092C30.842 24.516 31.412 24.06 32.168 23.724C32.936 23.388 33.872 23.22 34.976 23.22C35.744 23.22 36.5 23.316 37.244 23.508C37.988 23.7 38.63 23.976 39.17 24.336L38.432 26.154C37.88 25.83 37.304 25.584 36.704 25.416C36.104 25.248 35.522 25.164 34.958 25.164C34.034 25.164 33.344 25.32 32.888 25.632C32.444 25.944 32.222 26.358 32.222 26.874C32.222 27.234 32.348 27.528 32.6 27.756C32.864 27.984 33.194 28.164 33.59 28.296C33.986 28.428 34.526 28.578 35.21 28.746C36.146 28.962 36.914 29.19 37.514 29.43C38.114 29.658 38.624 30.012 39.044 30.492C39.476 30.972 39.692 31.62 39.692 32.436C39.692 33.132 39.5 33.762 39.116 34.326C38.744 34.89 38.174 35.34 37.406 35.676C36.638 36.012 35.702 36.18 34.598 36.18ZM41.7963 26.388H44.0463V36H41.7963V26.388ZM42.9303 24.804C42.5223 24.804 42.1803 24.678 41.9043 24.426C41.6283 24.162 41.4903 23.838 41.4903 23.454C41.4903 23.07 41.6283 22.752 41.9043 22.5C42.1803 22.236 42.5223 22.104 42.9303 22.104C43.3383 22.104 43.6803 22.23 43.9563 22.482C44.2323 22.722 44.3703 23.028 44.3703 23.4C44.3703 23.796 44.2323 24.132 43.9563 24.408C43.6923 24.672 43.3503 24.804 42.9303 24.804ZM56.5394 26.388V34.542C56.5394 37.926 54.8114 39.618 51.3554 39.618C50.4314 39.618 49.5554 39.498 48.7274 39.258C47.8994 39.03 47.2154 38.694 46.6754 38.25L47.6834 36.558C48.1034 36.906 48.6314 37.182 49.2674 37.386C49.9154 37.602 50.5694 37.71 51.2294 37.71C52.2854 37.71 53.0594 37.47 53.5514 36.99C54.0434 36.51 54.2894 35.778 54.2894 34.794V34.29C53.9054 34.71 53.4374 35.028 52.8854 35.244C52.3334 35.46 51.7274 35.568 51.0674 35.568C50.1554 35.568 49.3274 35.376 48.5834 34.992C47.8514 34.596 47.2694 34.044 46.8374 33.336C46.4174 32.628 46.2074 31.818 46.2074 30.906C46.2074 29.994 46.4174 29.19 46.8374 28.494C47.2694 27.786 47.8514 27.24 48.5834 26.856C49.3274 26.472 50.1554 26.28 51.0674 26.28C51.7634 26.28 52.3934 26.394 52.9574 26.622C53.5334 26.85 54.0134 27.198 54.3974 27.666V26.388H56.5394ZM51.4094 33.66C52.2614 33.66 52.9574 33.408 53.4974 32.904C54.0494 32.388 54.3254 31.722 54.3254 30.906C54.3254 30.102 54.0494 29.448 53.4974 28.944C52.9574 28.44 52.2614 28.188 51.4094 28.188C50.5454 28.188 49.8374 28.44 49.2854 28.944C48.7454 29.448 48.4754 30.102 48.4754 30.906C48.4754 31.722 48.7454 32.388 49.2854 32.904C49.8374 33.408 50.5454 33.66 51.4094 33.66ZM68.8035 26.388V36H66.6615V34.776C66.3015 35.208 65.8515 35.544 65.3115 35.784C64.7715 36.012 64.1895 36.126 63.5655 36.126C62.2815 36.126 61.2675 35.772 60.5235 35.064C59.7915 34.344 59.4255 33.282 59.4255 31.878V26.388H61.6755V31.572C61.6755 32.436 61.8675 33.084 62.2515 33.516C62.6475 33.936 63.2055 34.146 63.9255 34.146C64.7295 34.146 65.3655 33.9 65.8335 33.408C66.3135 32.904 66.5535 32.184 66.5535 31.248V26.388H68.8035ZM71.7494 26.388H73.9994V36H71.7494V26.388ZM72.8834 24.804C72.4754 24.804 72.1334 24.678 71.8574 24.426C71.5814 24.162 71.4434 23.838 71.4434 23.454C71.4434 23.07 71.5814 22.752 71.8574 22.5C72.1334 22.236 72.4754 22.104 72.8834 22.104C73.2914 22.104 73.6334 22.23 73.9094 22.482C74.1854 22.722 74.3234 23.028 74.3234 23.4C74.3234 23.796 74.1854 24.132 73.9094 24.408C73.6454 24.672 73.3034 24.804 72.8834 24.804ZM85.9886 31.248C85.9886 31.404 85.9766 31.626 85.9526 31.914H78.4106C78.5426 32.622 78.8846 33.186 79.4366 33.606C80.0006 34.014 80.6966 34.218 81.5246 34.218C82.5806 34.218 83.4506 33.87 84.1346 33.174L85.3406 34.56C84.9086 35.076 84.3626 35.466 83.7026 35.73C83.0426 35.994 82.2986 36.126 81.4706 36.126C80.4146 36.126 79.4846 35.916 78.6806 35.496C77.8766 35.076 77.2526 34.494 76.8086 33.75C76.3766 32.994 76.1606 32.142 76.1606 31.194C76.1606 30.258 76.3706 29.418 76.7906 28.674C77.2226 27.918 77.8166 27.33 78.5726 26.91C79.3286 26.49 80.1806 26.28 81.1286 26.28C82.0646 26.28 82.8986 26.49 83.6306 26.91C84.3746 27.318 84.9506 27.9 85.3586 28.656C85.7786 29.4 85.9886 30.264 85.9886 31.248ZM81.1286 28.08C80.4086 28.08 79.7966 28.296 79.2926 28.728C78.8006 29.148 78.5006 29.712 78.3926 30.42H83.8466C83.7506 29.724 83.4566 29.16 82.9646 28.728C82.4726 28.296 81.8606 28.08 81.1286 28.08ZM93.6038 26.28C94.8158 26.28 95.7878 26.634 96.5198 27.342C97.2518 28.05 97.6178 29.1 97.6178 30.492V36H95.3678V30.78C95.3678 29.94 95.1698 29.31 94.7738 28.89C94.3778 28.458 93.8138 28.242 93.0818 28.242C92.2538 28.242 91.5998 28.494 91.1198 28.998C90.6398 29.49 90.3998 30.204 90.3998 31.14V36H88.1498V26.388H90.2918V27.63C90.6638 27.186 91.1318 26.85 91.6958 26.622C92.2598 26.394 92.8958 26.28 93.6038 26.28ZM106.25 35.478C105.986 35.694 105.662 35.856 105.278 35.964C104.906 36.072 104.51 36.126 104.09 36.126C103.034 36.126 102.218 35.85 101.642 35.298C101.066 34.746 100.778 33.942 100.778 32.886V28.26H99.1941V26.46H100.778V24.264H103.028V26.46H105.602V28.26H103.028V32.832C103.028 33.3 103.142 33.66 103.37 33.912C103.598 34.152 103.928 34.272 104.36 34.272C104.864 34.272 105.284 34.14 105.62 33.876L106.25 35.478ZM116.821 31.248C116.821 31.404 116.809 31.626 116.785 31.914H109.243C109.375 32.622 109.717 33.186 110.269 33.606C110.833 34.014 111.529 34.218 112.357 34.218C113.413 34.218 114.283 33.87 114.967 33.174L116.173 34.56C115.741 35.076 115.195 35.466 114.535 35.73C113.875 35.994 113.131 36.126 112.303 36.126C111.247 36.126 110.317 35.916 109.513 35.496C108.709 35.076 108.085 34.494 107.641 33.75C107.209 32.994 106.993 32.142 106.993 31.194C106.993 30.258 107.203 29.418 107.623 28.674C108.055 27.918 108.649 27.33 109.405 26.91C110.161 26.49 111.013 26.28 111.961 26.28C112.897 26.28 113.731 26.49 114.463 26.91C115.207 27.318 115.783 27.9 116.191 28.656C116.611 29.4 116.821 30.264 116.821 31.248ZM111.961 28.08C111.241 28.08 110.629 28.296 110.125 28.728C109.633 29.148 109.333 29.712 109.225 30.42H114.679C114.583 29.724 114.289 29.16 113.797 28.728C113.305 28.296 112.693 28.08 111.961 28.08Z" fill="white"/>
<path d="M143.001 18L140.709 20.2908L149.776 29.3751H130V32.6249H149.776L140.709 41.7092L142.999 44L156 31.0012L143.001 18Z" fill="white"/>
<defs>
<filter id="filter0_d" x="0" y="0" width="178.655" height="67.5515" filterUnits="userSpaceOnUse" color-interpolation-filters="sRGB">
<feFlood flood-opacity="0" result="BackgroundImageFix"/>
<feColorMatrix in="SourceAlpha" type="matrix" values="0 0 0 0 0 0 0 0 0 0 0 0 0 0 0 0 0 0 127 0"/>
<feOffset dy="3"/>
<feGaussianBlur stdDeviation="3"/>
<feColorMatrix type="matrix" values="0 0 0 0 0 0 0 0 0 0 0 0 0 0 0 0 0 0 0.161 0"/>
<feBlend mode="normal" in2="BackgroundImageFix" result="effect1_dropShadow"/>
<feBlend mode="normal" in="SourceGraphic" in2="effect1_dropShadow" result="shape"/>
</filter>
</defs>
</svg>
