<svg width="179" height="68" viewBox="0 0 179 68" fill="none" xmlns="http://www.w3.org/2000/svg">
<g filter="url(#filter0_d)">
<path d="M144.879 3H33.7758C18.4356 3 6 15.4356 6 30.7758C6 46.1159 18.4356 58.5515 33.7758 58.5515H144.879C160.219 58.5515 172.655 46.1159 172.655 30.7758C172.655 15.4356 160.219 3 144.879 3Z" fill="white"/>
</g>
<path d="M82.864 32.084H76.564L75.322 35H72.91L78.58 22.4H80.884L86.572 35H84.124L82.864 32.084ZM82.09 30.248L79.714 24.74L77.356 30.248H82.09ZM93.4124 25.28C94.6244 25.28 95.5964 25.634 96.3284 26.342C97.0604 27.05 97.4264 28.1 97.4264 29.492V35H95.1764V29.78C95.1764 28.94 94.9784 28.31 94.5824 27.89C94.1864 27.458 93.6224 27.242 92.8904 27.242C92.0624 27.242 91.4084 27.494 90.9284 27.998C90.4484 28.49 90.2084 29.204 90.2084 30.14V35H87.9584V25.388H90.1004V26.63C90.4724 26.186 90.9404 25.85 91.5044 25.622C92.0684 25.394 92.7044 25.28 93.4124 25.28ZM106.059 34.478C105.795 34.694 105.471 34.856 105.087 34.964C104.715 35.072 104.319 35.126 103.899 35.126C102.843 35.126 102.027 34.85 101.451 34.298C100.875 33.746 100.587 32.942 100.587 31.886V27.26H99.0027V25.46H100.587V23.264H102.837V25.46H105.411V27.26H102.837V31.832C102.837 32.3 102.951 32.66 103.179 32.912C103.407 33.152 103.737 33.272 104.169 33.272C104.673 33.272 105.093 33.14 105.429 32.876L106.059 34.478ZM116.629 30.248C116.629 30.404 116.617 30.626 116.593 30.914H109.051C109.183 31.622 109.525 32.186 110.077 32.606C110.641 33.014 111.337 33.218 112.165 33.218C113.221 33.218 114.091 32.87 114.775 32.174L115.981 33.56C115.549 34.076 115.003 34.466 114.343 34.73C113.683 34.994 112.939 35.126 112.111 35.126C111.055 35.126 110.125 34.916 109.321 34.496C108.517 34.076 107.893 33.494 107.449 32.75C107.017 31.994 106.801 31.142 106.801 30.194C106.801 29.258 107.011 28.418 107.431 27.674C107.863 26.918 108.457 26.33 109.213 25.91C109.969 25.49 110.821 25.28 111.769 25.28C112.705 25.28 113.539 25.49 114.271 25.91C115.015 26.318 115.591 26.9 115.999 27.656C116.419 28.4 116.629 29.264 116.629 30.248ZM111.769 27.08C111.049 27.08 110.437 27.296 109.933 27.728C109.441 28.148 109.141 28.712 109.033 29.42H114.487C114.391 28.724 114.097 28.16 113.605 27.728C113.113 27.296 112.501 27.08 111.769 27.08ZM120.932 26.792C121.58 25.784 122.72 25.28 124.352 25.28V27.422C124.16 27.386 123.986 27.368 123.83 27.368C122.954 27.368 122.27 27.626 121.778 28.142C121.286 28.646 121.04 29.378 121.04 30.338V35H118.79V25.388H120.932V26.792ZM126.261 25.388H128.511V35H126.261V25.388ZM127.395 23.804C126.987 23.804 126.645 23.678 126.369 23.426C126.093 23.162 125.955 22.838 125.955 22.454C125.955 22.07 126.093 21.752 126.369 21.5C126.645 21.236 126.987 21.104 127.395 21.104C127.803 21.104 128.145 21.23 128.421 21.482C128.697 21.722 128.835 22.028 128.835 22.4C128.835 22.796 128.697 23.132 128.421 23.408C128.157 23.672 127.815 23.804 127.395 23.804ZM135.784 35.126C134.812 35.126 133.936 34.916 133.156 34.496C132.376 34.076 131.764 33.494 131.32 32.75C130.888 31.994 130.672 31.142 130.672 30.194C130.672 29.246 130.888 28.4 131.32 27.656C131.764 26.912 132.376 26.33 133.156 25.91C133.936 25.49 134.812 25.28 135.784 25.28C136.768 25.28 137.65 25.49 138.43 25.91C139.21 26.33 139.816 26.912 140.248 27.656C140.692 28.4 140.914 29.246 140.914 30.194C140.914 31.142 140.692 31.994 140.248 32.75C139.816 33.494 139.21 34.076 138.43 34.496C137.65 34.916 136.768 35.126 135.784 35.126ZM135.784 33.2C136.612 33.2 137.296 32.924 137.836 32.372C138.376 31.82 138.646 31.094 138.646 30.194C138.646 29.294 138.376 28.568 137.836 28.016C137.296 27.464 136.612 27.188 135.784 27.188C134.956 27.188 134.272 27.464 133.732 28.016C133.204 28.568 132.94 29.294 132.94 30.194C132.94 31.094 133.204 31.82 133.732 32.372C134.272 32.924 134.956 33.2 135.784 33.2ZM145.208 26.792C145.856 25.784 146.996 25.28 148.628 25.28V27.422C148.436 27.386 148.262 27.368 148.106 27.368C147.23 27.368 146.546 27.626 146.054 28.142C145.562 28.646 145.316 29.378 145.316 30.338V35H143.066V25.388H145.208V26.792Z" fill="#7F7F79"/>
<path d="M47.9994 43.5518L50.2913 41.261L41.2235 32.1766L61 32.1766L61 28.9269L41.2235 28.9269L50.2913 19.8425L48.0006 17.5518L35 30.5506L47.9994 43.5518Z" fill="#7F7F79"/>
<defs>
<filter id="filter0_d" x="0" y="0" width="178.655" height="67.5515" filterUnits="userSpaceOnUse" color-interpolation-filters="sRGB">
<feFlood flood-opacity="0" result="BackgroundImageFix"/>
<feColorMatrix in="SourceAlpha" type="matrix" values="0 0 0 0 0 0 0 0 0 0 0 0 0 0 0 0 0 0 127 0"/>
<feOffset dy="3"/>
<feGaussianBlur stdDeviation="3"/>
<feColorMatrix type="matrix" values="0 0 0 0 0 0 0 0 0 0 0 0 0 0 0 0 0 0 0.161 0"/>
<feBlend mode="normal" in2="BackgroundImageFix" result="effect1_dropShadow"/>
<feBlend mode="normal" in="SourceGraphic" in2="effect1_dropShadow" result="shape"/>
</filter>
</defs>
</svg>
