<svg width="599" height="691" viewBox="0 0 599 691" fill="none" xmlns="http://www.w3.org/2000/svg">
<path d="M310.033 633.859C310.033 633.859 312.148 652.089 312.148 655.185C312.148 658.282 312.148 658.282 312.148 658.282L310.637 661.426L310.033 662.672L320.937 677.975C320.937 677.975 364.722 678.626 365.704 678.626C366.677 678.626 359.842 668.043 359.842 668.043C359.842 668.043 345.35 657.14 342.754 649.483C340.149 641.836 344.963 625.882 344.963 625.882L310.033 633.859Z" fill="#F7A491"/>
<path d="M98.9691 524.773C98.9691 524.773 83.3733 534.45 80.9471 536.376C78.5209 538.302 78.5209 538.302 78.5209 538.302L77.0009 541.445L76.3967 542.692L57.6289 543.664C57.6289 543.664 29.8925 509.772 29.2883 509.008C28.6841 508.243 37.2656 510.159 37.2656 510.159C37.2656 510.159 54.7684 512.529 62.3869 509.81C69.996 507.091 85.3936 491.93 85.3936 491.93L98.9691 524.773Z" fill="#F7A491"/>
<path d="M240.693 353.72L72.707 496.801L98.5931 533.421C98.5931 533.421 271.223 426.233 280.258 425.015C289.293 423.797 296.618 427.941 298.327 434.54C300.036 441.13 304.388 638.938 304.388 638.938H349.24L372.624 389.896L240.693 353.72Z" fill="#50BFA5"/>
<path d="M482.71 149.652C495.133 141.505 524.333 110.172 534.227 99.5135C534.331 98.2579 535.275 91.0169 543.233 81.8029C548.85 75.2984 553.108 60.4578 556.79 64.6683C560.472 68.8788 551.333 80.6606 555.515 80.7456C559.697 80.8211 580.476 57.4746 583.809 61.2886C587.151 65.1026 566.051 85.853 569.799 85.9285C573.547 85.9946 590.662 64.9799 595.383 70.361C600.103 75.7515 572.943 93.226 575.473 96.1148C578.003 99.0037 594.835 87.5523 598.64 91.8855C602.435 96.2187 574.897 106.443 577.096 106.481C579.296 106.518 595.194 106.094 595.307 109.152C595.439 112.608 555.109 117.998 550.162 123.983C539.627 140.769 520.859 171.413 501.864 184.866C478.622 201.321 424.896 236.222 424.896 236.222L398.207 201.745C398.216 201.745 467.973 159.31 482.71 149.652Z" fill="#F7A491"/>
<path d="M555.516 88.147C556.545 90.1861 556.989 92.3953 557.14 94.6327C557.064 94.9914 558.046 102.204 551.891 107.68C554.289 103.224 556.922 98.2673 555.516 88.147Z" fill="#F48C7F"/>
<path d="M236.444 111.937C226.579 100.826 206.593 62.9502 199.834 50.0638C200.06 48.8271 201.042 41.5862 195.774 30.6162C192.055 22.8655 191.828 7.43019 187.174 10.5267C182.52 13.6232 188.26 27.397 184.2 26.3774C180.141 25.3578 166.197 -2.61458 161.977 0.198711C157.757 3.00256 172.692 28.5582 169.057 27.6425C165.423 26.7267 154.396 1.9641 148.43 5.92914C142.463 9.89418 164.111 33.8638 160.91 35.9974C157.71 38.1215 144.455 22.6673 139.66 25.8582C134.854 29.0491 158.767 46.1176 156.634 45.5795C154.5 45.0414 139.272 40.4722 138.357 43.3988C137.328 46.703 174.845 62.4498 178.054 69.5208C183.841 88.4775 193.933 122.964 208.755 140.91C226.89 162.869 269.609 210.61 269.609 210.61L304.379 184.309C304.379 184.309 248.141 125.116 236.444 111.937Z" fill="#F7A491"/>
<path d="M182.255 33.5334C180.725 35.2327 179.715 37.253 178.998 39.3677C178.979 39.7359 176.147 46.4387 180.65 53.3303C179.498 48.4023 178.252 42.9363 182.255 33.5334Z" fill="#F48C7F"/>
<path d="M310.683 190.455C315.743 182.902 324.457 178.616 333.529 179.239C360.199 181.052 414.293 185.328 419.419 190.455C426.254 197.29 446.769 241.896 427.236 304.402C407.704 366.908 396.96 360.394 381.006 360.394C365.051 360.394 289.848 324.907 289.848 324.907L310.683 190.455Z" fill="#355389"/>
<path d="M264.624 137.389L233.262 178.305L272.195 236.222C272.195 236.222 268.532 279.253 262.915 292.687C257.298 306.12 224.822 361.301 224.822 361.301C224.822 361.301 303.689 409.646 380.847 402.565C380.847 402.565 402.579 290.732 408.677 279.989C414.785 269.246 473.628 216.02 473.628 216.02L445.061 169.865L395.744 197.214C395.744 197.214 305.596 182.647 301.253 178.305C296.901 173.962 264.624 137.389 264.624 137.389Z" fill="#F7CC7F"/>
<path d="M366.355 53.7174C366.355 53.7174 335.918 37.6024 325.496 64.3003C325.496 64.3003 298.147 61.5342 302.867 89.8559C302.867 89.8559 275.357 103.696 292.775 139.343C292.775 139.343 285.128 172.876 324.354 174.991C324.354 174.991 330.216 186.877 348.115 184.111C366.024 181.344 370.575 176.624 370.575 176.624C370.575 176.624 402.314 185.904 411.924 157.252C411.924 157.252 433.732 152.041 419.09 124.05C419.09 124.05 438.131 87.7507 404.598 76.8468C404.608 76.8374 400.699 39.7265 366.355 53.7174Z" fill="#FF9247"/>
<path d="M362.191 291.525C359.057 310.907 340.808 324.076 321.427 320.942C302.045 317.808 288.876 299.55 292.01 280.168C295.144 260.787 313.393 247.617 332.774 250.751C352.156 253.886 365.326 272.144 362.191 291.525Z" fill="#FAE0B2"/>
<path d="M307.445 288.363C305.774 298.728 312.807 308.48 323.173 310.161C333.529 311.841 343.291 304.799 344.962 294.433L307.445 288.363Z" fill="#EFEFEF"/>
<path d="M378.655 132.357C376.182 139.258 377.957 146.206 382.62 147.887C387.284 149.558 393.071 145.319 395.544 138.418C398.018 131.517 396.243 124.569 391.579 122.898C386.916 121.217 381.129 125.456 378.655 132.357Z" fill="#F7A491"/>
<path d="M296.55 115.411C296.201 122.737 299.939 128.864 304.886 129.1C309.833 129.336 314.128 123.587 314.478 116.261C314.827 108.935 311.088 102.808 306.142 102.572C301.185 102.346 296.899 108.095 296.55 115.411Z" fill="#F7A491"/>
<path d="M331.358 163.917C331.358 164.398 327.403 181.391 325.307 190.379C324.523 193.73 326.223 197.157 329.357 198.583C337.721 202.406 354.186 207.74 365.562 197.431C366.6 196.487 367.157 195.137 367.11 193.73L365.713 153.164L331.358 163.917Z" fill="#F7A491"/>
<path d="M329.246 173.443C338.101 177.908 349.241 178.002 361.741 170.676C363.327 169.751 364.809 168.76 366.215 167.722L365.715 153.183L331.37 163.926C331.361 164.153 330.436 168.25 329.246 173.443Z" fill="#F48C7F"/>
<path d="M355.715 70.2665C355.715 70.2665 370.707 74.2315 379.515 88.8078C388.323 103.393 393.185 145.555 361.729 163.992C330.273 182.43 307.389 153.872 307.984 126.863C308.579 99.8438 320.587 65.3102 355.715 70.2665Z" fill="#F7A491"/>
<path d="M304.396 179.711C289.914 190.662 274.752 246.777 269.013 261.429L264.387 288.334L323.315 184.252C323.324 184.252 307.511 177.351 304.396 179.711Z" fill="#466EB6"/>
<path d="M375.936 193.91C375.936 193.91 374.171 263.052 379.382 286.824C384.593 310.586 398.216 318.893 398.216 318.893L404.919 291.242C404.919 291.242 398.216 230.171 395.743 197.214C395.365 192.201 375.936 193.91 375.936 193.91Z" fill="#466EB6"/>
<path d="M302.054 689.171C295.37 688.322 306.916 665.136 310.635 661.426L359.849 668.043C359.849 668.043 383.535 679.032 389.153 684.649C390.484 685.98 390.663 688.312 384.876 689.171C366.297 691.937 316.895 691.05 302.054 689.171Z" fill="#13375B"/>
<path d="M60.122 565.774C65.8996 569.248 76.4069 546.657 77.0017 541.446L37.2663 510.16C37.2663 510.16 6.61281 501.37 0.4198 507.554C-5.1879 513.162 47.009 557.891 60.122 565.774Z" fill="#13375B"/>
<path fill-rule="evenodd" clip-rule="evenodd" d="M327.794 112.19C325.752 111.655 324.624 109.515 325.322 107.375C326.021 105.283 328.223 104.019 330.318 104.554C332.36 105.089 333.488 107.277 332.79 109.369C332.038 111.46 329.835 112.725 327.794 112.19Z" fill="#1B3760"/>
<path fill-rule="evenodd" clip-rule="evenodd" d="M357.35 120.056C355.309 119.454 354.181 116.992 354.879 114.639C355.577 112.286 357.78 110.864 359.875 111.465C361.917 112.067 363.045 114.53 362.346 116.882C361.648 119.235 359.392 120.658 357.35 120.056Z" fill="#1B3760"/>
<path fill-rule="evenodd" clip-rule="evenodd" d="M343.406 100.65L343.459 102.351C343.773 108.146 344.14 115.376 339.578 116.971L338.739 117.29C335.331 118.46 331.188 119.842 331.031 125.584C330.978 126.86 331.345 127.87 331.974 128.72C333.023 130.156 334.754 130.953 336.484 131.432C338.162 131.91 339.84 132.017 340.732 132.017C341.309 132.017 341.728 131.91 341.833 131.804L341.099 130.741C341.046 130.794 341.046 130.634 340.784 130.634C339.945 130.634 338.372 130.528 336.799 130.103C335.278 129.677 333.757 128.986 332.918 127.817C332.499 127.232 332.237 126.487 332.237 125.584C332.394 120.852 336.012 119.629 339.001 118.619L339.84 118.3C345.346 116.333 344.979 108.518 344.665 102.191L344.56 100.49L343.406 100.65Z" fill="#1B3760"/>
<path d="M351 142C347.803 146.711 338.928 153.778 329 144.356" stroke="#1B3760" stroke-width="1.2" stroke-linecap="round" stroke-linejoin="round"/>
<path d="M351 142C347.803 146.711 338.928 153.778 329 144.356" stroke="#1B3760" stroke-width="1.2" stroke-linecap="round" stroke-linejoin="round"/>
<path d="M351 142C347.803 146.711 338.928 153.778 329 144.356" stroke="#1B3760" stroke-width="1.2" stroke-linecap="round" stroke-linejoin="round"/>
</svg>
