<svg width="378" height="505" viewBox="0 0 378 505" fill="none" xmlns="http://www.w3.org/2000/svg">
<path d="M188.868 472.986C293.177 472.986 377.736 388.427 377.736 284.118C377.736 179.809 293.177 95.2495 188.868 95.2495C84.5592 95.2495 0 179.809 0 284.118C0 388.427 84.5592 472.986 188.868 472.986Z" fill="white"/>
<path d="M228.17 242.242C254.771 249.193 266.698 281.629 249.193 303.596C244.817 309.088 252.54 316.897 256.916 311.319C268.157 297.246 271.675 278.883 265.24 261.807C259.49 246.79 246.619 235.635 231.087 231.602C224.222 229.885 221.391 240.44 228.17 242.242Z" fill="#FF4D0B"/>
<path d="M242.67 211.522C263.007 216.756 280.255 230.915 288.492 250.394C298.017 273.048 294.242 299.563 278.882 318.699C274.505 324.105 282.228 331.914 286.604 326.422C304.281 304.54 309.602 275.193 299.562 248.678C290.552 224.994 270.129 207.232 245.587 200.967C238.722 199.165 235.805 209.72 242.67 211.522Z" fill="#FF4D0B"/>
<path d="M262.066 180.974C290.898 188.267 315.268 208.69 326.595 236.321C339.638 267.985 334.146 304.969 312.608 331.57C308.232 336.976 315.869 344.785 320.331 339.293C344.444 309.603 351.308 269.186 337.15 233.404C324.707 202.083 297.505 178.657 264.897 170.419C258.118 168.703 255.201 179.257 262.066 180.974Z" fill="#FF4D0B"/>
<path d="M132.575 187.667L145.103 182.432L131.974 178.914L126.654 166.386L123.136 179.515L110.693 184.749L123.736 188.267L129.057 200.796L132.575 187.667Z" fill="white"/>
<path d="M293.212 48.1397L300.163 45.2221L292.869 43.2485L289.952 36.2979L287.978 43.5917L281.027 46.5951L288.321 48.4829L291.239 55.5193L293.212 48.1397Z" fill="white"/>
<path d="M267.984 11.9276L274.934 8.92425L267.64 7.03643L264.637 0L262.663 7.37967L255.713 10.2972L263.007 12.2708L266.01 19.2215L267.984 11.9276Z" fill="#9E88E5"/>
<path d="M76.3693 115.672L84.607 112.154L76.026 109.837L72.5078 101.599L70.1909 110.266L61.9531 113.784L70.62 116.015L74.0524 124.253L76.3693 115.672Z" fill="#9E88E5"/>
<path d="M87.5236 223.793L95.7613 220.275L87.1803 217.958L83.6621 209.72L81.3452 218.387L73.1074 221.905L81.7743 224.136L85.2067 232.374L87.5236 223.793Z" fill="#9E88E5"/>
<path d="M179.083 422.272L186.034 419.269L178.74 417.381L175.737 410.344L173.763 417.724L166.727 420.641L174.106 422.615L177.11 429.652L179.083 422.272Z" fill="white"/>
<path d="M296.558 497.013L303.594 494.009L296.215 492.036L293.211 485.085L291.238 492.379L284.287 495.382L291.581 497.356L294.584 504.392L296.558 497.013Z" fill="#9E88E5"/>
<path d="M200.451 450.675L207.487 447.671L200.107 445.698L197.104 438.747L195.13 446.041L188.18 449.044L195.474 451.018L198.477 458.054L200.451 450.675Z" fill="#9E88E5"/>
<path d="M55.7757 306.943L16.5605 324.448C6.52068 328.91 2.05854 340.666 6.52067 350.706L24.1118 390.007C28.5739 400.047 40.3299 404.509 50.3697 400.047L89.5849 382.542L55.7757 306.943Z" fill="#FF9F1C"/>
<path d="M221.561 362.205C223.019 365.466 221.561 369.327 218.3 370.786L89.5846 382.628L55.7754 306.943L150.252 218.559C153.513 217.1 157.375 218.559 158.833 221.819L221.561 362.205Z" fill="#FF9F1C"/>
<path d="M188.61 267.813L180.887 271.246L199.25 312.263L206.973 308.831C212.465 306.428 215.125 299.906 212.722 294.5L203.197 273.134C200.709 267.728 194.101 265.411 188.61 267.813Z" fill="#FFBF69"/>
<path d="M76.9707 388.205L52 399.36L85.2943 450.932C87.268 453.936 91.301 454.794 94.3044 452.906L106.146 445.269C109.15 443.295 110.008 439.262 108.12 436.259L76.9707 388.205Z" fill="#FFBF69"/>
<path d="M100.311 375.763C101.598 378.766 100.311 382.284 97.3073 383.572L88.1256 387.69C85.1222 388.978 81.604 387.69 80.3169 384.687L47.1083 309.861C45.8212 306.857 47.1083 303.339 50.1117 302.052L59.2934 297.933C62.2967 296.646 65.8149 297.933 67.1021 300.936L100.311 375.763Z" fill="#56C4CC"/>
<path fill-rule="evenodd" clip-rule="evenodd" d="M276.477 376.535C273.045 368.126 266.523 363.32 257.513 362.548C248.246 361.776 240.952 365.637 236.232 373.532C232.114 380.397 232.028 387.605 235.374 394.899C235.546 395.328 235.718 395.671 235.546 396.186C234.43 398.674 231.599 407.513 230.998 409.486C231.255 409.4 231.427 409.4 231.513 409.315C235.632 407.856 239.751 406.311 243.784 404.852C244.384 404.595 244.814 404.681 245.414 404.938C248.246 406.397 251.163 407.255 254.338 407.427C270.9 408.371 282.742 391.981 276.477 376.535Z" fill="#52A921"/>
<path fill-rule="evenodd" clip-rule="evenodd" d="M265.064 389.235C263.606 388.377 261.546 388.806 260.602 390.179C260.173 390.779 259.744 391.123 259.058 391.037C257.856 390.779 256.741 390.436 255.711 389.664C254.424 388.634 253.308 387.519 252.193 386.317C251.077 385.116 250.133 383.743 249.79 382.027C249.704 381.34 249.704 380.825 250.391 380.311C251.764 379.367 252.279 378.079 251.85 376.535C251.42 374.99 250.305 374.046 248.76 373.703C247.387 373.36 246.272 374.046 245.757 375.334C244.127 379.195 244.298 382.885 246.186 386.575C247.816 389.664 250.305 392.152 253.137 394.04C255.282 395.499 257.685 396.185 260.688 396.185C262.233 396.185 264.035 395.756 265.751 394.984C266.351 394.727 266.695 394.298 266.866 393.783C267.467 392.152 266.695 390.179 265.064 389.235Z" fill="#FEFEFC"/>
<path fill-rule="evenodd" clip-rule="evenodd" d="M333.542 417.724C333.542 430.939 322.816 441.665 309.601 441.665C296.386 441.665 285.66 430.939 285.66 417.724C285.66 404.509 296.386 393.783 309.601 393.783C322.816 393.697 333.542 404.423 333.542 417.724Z" fill="#2C509B"/>
<path fill-rule="evenodd" clip-rule="evenodd" d="M317.925 403.737C315.865 403.823 313.806 403.737 311.661 403.823C307.628 403.908 304.71 406.654 304.367 410.687C304.195 412.404 304.195 414.12 304.281 415.836C304.281 416.437 304.109 416.694 303.423 416.694C302.565 416.608 301.707 416.694 300.849 416.694C300.334 416.694 300.162 416.866 300.162 417.381C300.162 419.268 300.162 421.07 300.162 422.958C300.162 423.473 300.334 423.645 300.849 423.645C301.707 423.645 302.479 423.645 303.337 423.559C304.109 423.473 304.281 423.731 304.281 424.503C304.281 427.506 304.281 430.51 304.281 433.599C304.281 436.087 304.281 438.576 304.281 441.064C305.997 441.493 307.799 441.665 309.601 441.665C310.631 441.665 311.661 441.579 312.69 441.493C312.69 435.83 312.69 430.166 312.69 424.503C312.69 423.816 312.862 423.645 313.548 423.645C314.836 423.731 316.123 423.645 317.41 423.645C317.925 423.645 318.182 423.473 318.182 422.958C318.354 421.156 318.525 419.268 318.697 417.466C318.783 416.78 318.525 416.608 317.925 416.608C316.38 416.608 314.836 416.608 313.377 416.608C312.776 416.608 312.605 416.437 312.605 415.836C312.69 414.806 312.519 413.777 312.69 412.747C312.862 411.202 313.548 410.516 315.179 410.43C316.123 410.43 317.152 410.43 318.096 410.43C318.697 410.43 318.955 410.258 318.955 409.572C318.869 407.856 318.955 406.14 318.955 404.509C318.869 403.908 318.611 403.737 317.925 403.737Z" fill="#FEFEFC"/>
<path d="M221.819 56.8064L136.094 91.8169C128.629 94.9061 124.596 103.487 127.685 110.953L149.309 163.983C152.398 171.449 161.408 175.139 168.874 172.049L176.082 169.132L177.712 193.33C177.712 193.33 177.712 193.245 177.712 193.33V193.502C177.712 193.759 177.798 193.931 177.884 194.188C178.57 195.733 180.372 196.505 181.917 195.905C182.518 195.647 183.032 195.218 183.376 194.703C183.547 194.532 183.719 194.446 183.805 194.188L201.138 159.006L254.684 137.125C262.149 134.036 266.097 125.111 263.007 117.646L241.383 64.6151C238.208 57.1496 229.284 53.803 221.819 56.8064Z" fill="#B4B7B9"/>
<path d="M150.167 116.187C176.253 105.546 202.425 94.8202 228.512 84.1797C232.802 82.4635 230.914 75.3413 226.538 77.1433C200.452 87.7838 174.279 98.5101 148.193 109.151C143.903 110.867 145.791 117.903 150.167 116.187Z" fill="#896BD1"/>
<path d="M157.03 132.92C183.116 122.279 209.289 111.553 235.375 100.913C239.665 99.1965 237.778 92.0742 233.401 93.8762C207.315 104.517 181.143 115.243 155.056 125.883C150.766 127.6 152.654 134.722 157.03 132.92Z" fill="#896BD1"/>
<path d="M163.895 149.653C189.982 139.013 216.154 128.287 242.24 117.646C246.531 115.93 244.643 108.808 240.266 110.61C214.18 121.25 188.008 131.976 161.922 142.617C157.631 144.419 159.519 151.455 163.895 149.653Z" fill="#896BD1"/>
</svg>
