<svg width="414" height="417" viewBox="0 0 414 417" fill="none" xmlns="http://www.w3.org/2000/svg">
<path d="M227.778 416.556C330.38 416.556 413.556 333.38 413.556 230.778C413.556 128.176 330.38 45 227.778 45C125.176 45 42 128.176 42 230.778C42 333.38 125.176 416.556 227.778 416.556Z" fill="white"/>
<path d="M233.975 293.227C233.975 298.629 229.586 303.018 224.184 303.018L103.651 308.505C98.2495 308.505 93.8604 304.115 93.8604 298.713V216.839C93.8604 211.437 98.1651 207.048 103.567 207.048L224.184 214.392C229.586 214.392 233.975 218.781 233.975 224.183V293.227Z" fill="#666666"/>
<path d="M239.039 289.682C239.039 295.084 234.313 299.473 228.911 299.473L108.125 305.044C102.723 305.044 98.0811 300.655 98.0811 295.253V213.379C98.0811 207.977 102.555 203.588 107.957 203.588L228.911 210.931C234.313 210.931 239.039 215.32 239.039 220.722V289.682Z" fill="#F2F2F2"/>
<path d="M230.598 285.799C230.598 290.611 226.715 294.493 221.904 294.493L114.455 299.389C109.644 299.389 105.677 295.506 105.677 290.695V217.768C105.677 212.957 109.644 209.074 114.455 209.074L221.904 215.658C226.715 215.658 230.598 219.541 230.598 224.352V285.799Z" fill="#57C58A"/>
<path d="M147.037 268.496C147.037 272.97 143.491 276.431 139.102 276.431H121.799C117.326 276.431 114.118 272.97 114.118 268.496V251.193C114.118 246.72 117.326 243.512 121.799 243.512H139.102C143.576 243.512 147.037 246.804 147.037 251.193V268.496Z" fill="#CBF3F0"/>
<path d="M221.313 270.1C221.313 274.574 217.684 278.119 213.295 278.119H195.991C191.518 278.119 187.551 274.574 187.551 270.1V252.797C187.551 248.323 191.518 245.2 195.991 245.2H213.295C217.768 245.2 221.313 248.408 221.313 252.797V270.1Z" fill="#CBF3F0"/>
<path d="M131.844 234.565C131.844 236.844 130.324 238.448 128.045 238.448H119.183C116.904 238.448 114.878 236.844 114.878 234.565V225.702C114.878 223.423 116.904 221.566 119.183 221.566H128.045C130.324 221.566 131.844 223.423 131.844 225.702V234.565Z" fill="#CBF3F0"/>
<path d="M154.633 235.325C154.633 237.604 152.861 239.292 150.582 239.292H141.719C139.44 239.292 137.752 237.604 137.752 235.325V226.462C137.752 224.183 139.44 222.411 141.719 222.411H150.582C152.861 222.411 154.633 224.183 154.633 226.462V235.325Z" fill="#CBF3F0"/>
<path d="M176.579 236C176.579 238.279 174.722 240.136 172.443 240.136H163.833C161.554 240.136 159.697 238.279 159.697 236V227.39C159.697 225.111 161.554 223.254 163.833 223.254H172.443C174.722 223.254 176.579 225.111 176.579 227.39V236Z" fill="#CBF3F0"/>
<path d="M199.369 236.928C199.369 239.207 197.765 240.98 195.486 240.98H186.623C184.344 240.98 182.487 239.207 182.487 236.928V228.066C182.487 225.787 184.344 224.099 186.623 224.099H195.486C197.765 224.099 199.369 225.787 199.369 228.066V236.928Z" fill="#CBF3F0"/>
<path d="M221.314 236.928C221.314 239.207 219.457 240.98 217.178 240.98H208.315C206.036 240.98 204.433 239.207 204.433 236.928V228.066C204.433 225.787 206.036 224.099 208.315 224.099H217.178C219.457 224.099 221.314 225.787 221.314 228.066V236.928Z" fill="#CBF3F0"/>
<path d="M181.643 268.327C181.643 272.379 178.435 275.586 174.384 275.586H159.022C155.055 275.586 152.101 272.379 152.101 268.327V252.544C152.101 248.492 155.055 245.2 159.022 245.2H174.384C178.351 245.2 181.643 248.492 181.643 252.544V268.327Z" fill="#FFBF69"/>
<path d="M156.068 262.925L152.101 267.905V268.074C152.101 272.041 155.392 275.502 159.359 275.502H175.059C175.312 275.502 175.566 275.418 175.734 275.333L165.859 262.925C163.158 259.634 158.769 259.634 156.068 262.925Z" fill="#57C58A"/>
<path d="M178.942 267.652C177.001 265.204 173.878 265.204 171.936 267.652L170.586 269.34L175.566 275.586C178.351 275.333 180.63 273.476 181.643 271.028L178.942 267.652Z" fill="#46AA73"/>
<path d="M172.78 259.887C172.78 261.153 171.767 262.166 170.501 262.166C169.235 262.166 168.222 261.153 168.222 259.887C168.222 258.621 169.235 257.608 170.501 257.608C171.767 257.608 172.78 258.621 172.78 259.887Z" fill="#FF8038"/>
<path d="M273.308 353.999C280.567 361.427 292.637 361.343 300.064 354.084L302.343 351.889C309.771 344.63 309.856 332.729 302.597 325.301L253.641 274.995C246.382 267.567 234.481 267.483 227.053 274.742L224.774 276.937C217.346 284.195 217.009 296.266 224.268 303.693L273.308 353.999Z" fill="#FDD79C"/>
<path d="M282.339 319.477L281.326 316.523C278.118 306.648 267.483 301.246 257.608 304.538L167.546 328.425L166.618 284.111C166.618 284.027 166.955 260.393 166.955 260.393C167.04 256.257 163.748 252.881 159.612 252.881C155.476 252.797 152.1 256.088 152.1 260.224L152.016 266.133C150.581 265.795 149.061 265.626 147.542 265.626L144.419 265.711C134.037 265.88 125.512 274.405 125.596 284.787L127.116 357.545C127.284 367.927 136.063 376.198 146.445 376.03L149.568 375.945C153.282 375.861 270.269 343.533 270.269 343.533C280.228 340.157 285.546 329.353 282.339 319.477Z" fill="#FDD79C"/>
<path d="M263.769 295.421L204.263 314.075L221.65 368.855L281.157 350.201C296.265 345.39 304.706 329.268 299.895 314.075C295.084 298.967 278.878 290.61 263.769 295.421Z" fill="#D34242"/>
<path d="M393.333 314.413C382.529 297.701 368.686 285.124 351.72 285.208L269.424 293.902C246.213 296.181 258.283 373.329 266.301 412.746C322.009 400.845 368.433 363.959 393.333 314.413Z" fill="#D34242"/>
<path d="M229.922 229.923C229.922 234.143 226.462 237.604 222.241 237.604C218.021 237.604 214.561 234.143 214.561 229.923C214.561 225.702 218.021 222.242 222.241 222.242C226.546 222.242 229.922 225.702 229.922 229.923Z" fill="#EDBC7A"/>
<path d="M343.196 283.014C345.644 293.987 337.963 301.245 326.23 304.875L324.458 305.381C312.725 309.011 303.947 302.596 300.655 296.012L294.156 274.742C290.527 263.009 297.026 251.361 308.758 247.816L310.531 247.31C322.263 243.68 333.067 250.011 336.697 261.828L343.196 283.014Z" fill="#EDBC7A"/>
<path d="M376.875 213.087C382.086 169.204 350.735 129.407 306.852 124.196C262.969 118.986 223.172 150.336 217.961 194.219C212.751 238.102 244.101 277.9 287.984 283.11C331.867 288.321 371.665 256.97 376.875 213.087Z" fill="#FDD79C"/>
<path d="M366.407 146.782C355.012 129.648 344.546 126.694 337.878 130.661C332.982 108.462 297.447 107.956 285.04 112.429C274.911 116.059 262.419 124.077 253.05 128.044C231.695 140.03 217.43 148.386 190.336 141.38C190.336 152.438 206.458 169.234 214.645 174.974C229.416 185.356 243.849 187.635 256.51 187.635C272.126 187.635 286.728 183.161 299.051 175.396C305.972 209.243 334.333 235.24 369.362 238.785C373.666 230.007 375.523 220.216 377.211 210.087C381.094 186.622 377.802 163.832 366.407 146.782Z" fill="#33210A"/>
<path d="M367.504 146.107C361.512 137.245 349.526 122.642 337.203 129.564C337.793 129.817 338.469 130.07 339.06 130.323C333.911 108.969 303.356 105.677 285.715 110.825C278.034 113.104 270.859 117.494 263.769 121.292C256.173 125.343 248.492 129.226 240.895 133.277C233.805 137.076 226.377 140.199 218.443 141.803C209.158 143.659 199.705 142.478 190.589 140.199C189.829 140.03 188.985 140.621 188.985 141.38C189.323 150.243 195.822 158.262 201.393 164.592C208.568 172.78 217.346 179.448 227.475 183.584C250.939 193.037 278.287 189.661 299.642 176.493C299.051 176.24 298.376 175.987 297.785 175.734C305.128 210.34 334.248 236.253 369.277 240.051C369.699 240.136 370.205 239.798 370.374 239.461C377.296 224.774 379.912 207.049 379.912 190.927C379.997 175.143 376.114 159.359 367.504 146.107C366.66 144.757 364.466 146.023 365.31 147.373C374.848 162.06 378.055 179.448 377.296 196.751C376.874 206.12 375.185 215.574 372.991 224.689C372.569 226.293 369.868 237.688 368.095 237.435C364.213 237.013 360.414 236.169 356.7 235.24C328.171 227.728 306.31 203.757 300.233 175.143C300.064 174.383 299.051 173.961 298.376 174.383C278.709 186.538 254.147 189.998 232.117 182.655C221.819 179.279 213.041 173.033 205.529 165.352C199.536 159.19 191.855 150.496 191.518 141.465C191.011 141.887 190.42 142.309 189.914 142.647C204.347 146.276 218.612 146.023 232.455 140.114C239.798 136.991 246.719 133.024 253.64 129.142C260.899 125.09 268.665 121.376 276.177 117.662C286.981 112.26 297.363 110.572 309.349 111.923C320.912 113.273 333.658 118.591 336.612 130.914C336.781 131.758 337.793 132.096 338.469 131.674C349.273 125.597 360.161 139.777 365.31 147.289C366.238 148.724 368.433 147.458 367.504 146.107Z" fill="#33210A"/>
<path d="M324.12 237.435C333.443 237.435 341.001 229.877 341.001 220.554C341.001 211.23 333.443 203.672 324.12 203.672C314.796 203.672 307.238 211.23 307.238 220.554C307.238 229.877 314.796 237.435 324.12 237.435Z" fill="#FDD79C"/>
<path d="M256.764 221.82C256.764 225.365 259.633 228.235 263.179 228.235C266.724 228.235 269.593 225.365 269.593 221.82C269.593 218.275 266.724 215.405 263.179 215.405C259.633 215.405 256.764 218.275 256.764 221.82Z" fill="#33210A" stroke="#33210A" stroke-miterlimit="10"/>
<path d="M282.676 199.452C274.827 193.206 265.795 190.336 255.751 191.687C253.472 192.024 254.485 195.485 256.679 195.147C265.289 193.966 273.392 196.582 280.06 201.984C281.917 203.419 284.449 200.887 282.676 199.452Z" fill="#33210A"/>
<path d="M232.539 250.602C238.87 259.38 246.973 266.808 256.257 272.379C257.27 272.295 258.283 272.21 259.296 272.041C271.535 269.678 279.553 256.595 279.047 241.486L232.539 250.602Z" fill="#FC8181"/>
<path d="M95.5477 190.927C92.0871 185.693 88.7108 180.376 85.3346 175.143C82.8024 171.26 76.6408 174.889 79.1729 178.772C82.5492 184.005 86.0098 189.323 89.3861 194.556C91.8339 198.354 98.0799 194.809 95.5477 190.927Z" fill="#FFBF69"/>
<path d="M79.0042 207.302C74.0243 207.049 69.1287 206.795 64.1487 206.542C59.5064 206.289 59.5064 213.464 64.1487 213.717C69.1287 213.97 74.0243 214.223 79.0042 214.476C83.6466 214.73 83.6466 207.555 79.0042 207.302Z" fill="#FFBF69"/>
<path d="M118.337 184.765C119.181 179.869 119.941 174.974 120.785 170.078C121.545 165.52 114.623 163.579 113.864 168.137C113.02 173.033 112.26 177.928 111.416 182.824C110.741 187.382 117.578 189.323 118.337 184.765Z" fill="#FFBF69"/>
<path d="M215.151 89.6395L227.812 85.4192L215.151 81.0301L210.931 68.3691L206.542 80.9457L193.881 85.2504L206.457 89.6395L210.762 102.3L215.151 89.6395Z" fill="#FF8038"/>
<path d="M56.4676 297.279L69.1286 293.058L56.4676 288.669L52.2473 276.008L47.8582 288.585L35.1973 292.89L47.7738 297.279L52.0785 309.94L56.4676 297.279Z" fill="#FF8038"/>
<path d="M255.16 14.0114L263.432 11.226L255.16 8.27181L252.374 0L249.42 8.27181L241.148 11.0572L249.42 14.0114L252.206 22.2832L255.16 14.0114Z" fill="#74DFE2"/>
<path d="M258.79 111.585L267.146 108.8L258.79 105.93L256.004 97.5737L253.135 105.846L244.778 108.715L253.05 111.585L255.92 119.941L258.79 111.585Z" fill="#74DFE2"/>
<path d="M165.098 58.4094L173.455 55.624L165.098 52.7542L162.313 44.3979L159.443 52.6697L151.087 55.5396L159.359 58.4094L162.229 66.7656L165.098 58.4094Z" fill="#74DFE2"/>
<path d="M36.5476 257.101L44.8194 254.316L36.5476 251.362L33.7621 243.09L30.8079 251.362L22.5361 254.147L30.8079 257.101L33.5934 265.373L36.5476 257.101Z" fill="#74DFE2"/>
<path d="M14.0114 336.106L22.3676 333.32L14.0114 330.45L11.226 322.094L8.35623 330.366L0 333.236L8.27182 336.106L11.1416 344.462L14.0114 336.106Z" fill="#74DFE2"/>
<path d="M96.7292 362.272L105.085 359.486L96.7292 356.616L93.9438 348.26L91.074 356.532L82.7178 359.402L90.9896 362.272L93.8594 370.628L96.7292 362.272Z" fill="#74DFE2"/>
</svg>
