<svg width="623" height="632" viewBox="0 0 623 632" fill="none" xmlns="http://www.w3.org/2000/svg">
<path d="M207.098 218.742C207.098 218.742 219.184 277.667 229.798 288.251C235.836 294.272 252.299 318.641 264.964 318.641C275.037 318.641 281.046 319.38 282.736 319.38C286.667 319.38 282.242 343.379 278.559 347.053C278.559 347.053 277.334 350.726 269.967 350.726C262.6 350.726 223.56 324.038 211.769 312.279C199.987 300.53 178.132 236.37 178.132 236.37L207.098 218.742Z" fill="#F7A491"/>
<path d="M167.979 137.521C170.779 138.483 182.235 146.61 188.905 159.41C195.575 172.211 213.204 225.696 213.204 225.696L184.194 236.279L167.979 137.521Z" fill="#50BFA5"/>
<path d="M23.1602 576.955C23.1602 576.955 18.3997 593.888 14.6199 597.673C10.8402 601.458 -1.67026 616.131 1.40498 623.397C4.48022 630.671 80.7614 641.092 83.6462 638.194C86.5405 635.295 70.4694 623.025 61.3579 615.512C52.2465 607.989 45.7247 598.741 49.5425 587.519C53.3604 576.297 53.3604 577.413 53.3604 576.297C53.3699 575.182 23.1602 576.955 23.1602 576.955Z" fill="#F7A491"/>
<path d="M83.3433 637.486C86.7797 634.908 76.1205 623.391 60.6806 614.509C54.2149 614.5 45.6004 614.064 38.2923 612.234C26.8662 609.372 18.1002 599.457 15.4969 596.234C15.2603 596.566 -3.12369 614.291 0.464113 622.775C3.53126 630.017 76.4896 642.642 83.3433 637.486Z" fill="#355389"/>
<path d="M148.894 585.284C148.894 585.284 150.31 602.668 147.441 607.186C144.571 611.703 134.51 629.583 140.114 635.168C145.164 640.201 215.356 636.97 217.556 633.51C219.756 630.05 207.743 619.728 197.165 614.372C186.587 609.025 178.171 601.429 179.452 589.649C180.734 577.869 180.982 578.956 180.734 577.869C180.495 576.792 148.894 585.284 148.894 585.284Z" fill="#F7A491"/>
<path d="M225.609 636.054C229.231 633.71 213.231 618.95 196.248 613.567C189.94 614.995 181.449 616.48 173.931 616.287C162.168 615.988 151.464 608.088 148.23 605.464C148.069 605.85 132.258 629.204 139.35 635.166C144.882 639.806 220.115 639.613 225.609 636.054Z" fill="#355389"/>
<path d="M154.134 340.609L109.291 470.477L57.8503 590.696L14.7671 579.875C14.7671 579.875 30.3175 496.537 44.9215 470.363C55.9763 450.555 63.6901 336.882 63.6901 336.882L154.134 340.609Z" fill="#F47458"/>
<path d="M132.917 361.974L148.449 590.696H185.141C185.141 590.696 201.165 351.063 195.301 328.265C189.426 305.466 128.292 310.614 128.292 310.614L132.917 361.974Z" fill="#B75742"/>
<path d="M169.42 137.906C169.42 137.906 122.246 123.724 114.981 124.643C107.028 125.646 87.7055 135.918 87.7055 135.918C87.7055 135.918 88.8943 218.093 85.4789 241.325C82.0635 264.558 58.1465 338.998 58.1465 338.998C58.1465 338.998 91.819 358.586 148.437 352.224C205.045 345.862 201.149 332.144 201.149 332.144C201.149 332.144 195.78 249.874 190.412 213.634C185.034 177.394 169.42 137.906 169.42 137.906Z" fill="#96D9C9"/>
<path d="M67.376 214.127C67.376 214.127 67.376 255.825 67.376 264.62C67.376 273.414 77.4999 332.966 89.9062 353.361C102.313 373.757 119.142 396.504 122.617 397.808C126.102 399.112 133.669 403.892 137.58 399.981C141.501 396.07 144.598 397.865 149.504 395.749C154.4 393.633 148.85 386.623 141.994 379.784C135.137 372.944 133.669 371.31 134.806 370.176C135.952 369.033 141.501 375.391 144.437 374.409C147.373 373.426 142.638 363.167 134.967 359.587C127.296 356.006 115.041 348.997 113.904 345.256C112.758 341.515 112.758 342.488 112.758 341.515C112.758 340.533 104.102 281.406 104.102 269.844C104.102 258.281 100.674 220.655 100.674 220.655L67.376 214.127Z" fill="#F7A491"/>
<path d="M90.6968 133.947C86.2569 134.504 74.2031 138.888 69.9616 153.199C65.7295 167.501 54.5732 208.145 56.5286 227.982C56.5286 227.982 104.092 234.157 104.092 232.205C104.092 230.254 114.493 179.371 109.306 157.102C104.772 137.671 98.424 132.986 90.6968 133.947Z" fill="#50BFA5"/>
<path d="M259.353 345.604C259.353 345.604 267.49 332.958 270.147 332.347C272.803 331.736 269.539 340.978 269.539 342.68C269.539 344.382 274.375 329.668 277.041 329.668C279.697 329.668 280.062 331.614 278.977 335.384C277.892 339.154 275.348 344.015 276.554 344.015C277.761 344.015 281.212 327.665 283.205 329.668C285.197 331.67 284.43 345.049 280.661 348.838C276.9 352.636 265.816 350.267 259.353 345.604Z" fill="#F7A491"/>
<path d="M137.882 2.71058C137.882 2.71058 156.542 -4.0781 168.603 14.8942C180.665 33.857 174.143 32.0555 180.013 41.5464C185.883 51.0278 201.206 49.0652 201.206 63.7803C201.206 78.4954 194.362 80.7804 194.362 80.7804C194.362 80.7804 200.554 92.2245 193.71 103.991C186.866 115.767 169.794 125.902 155.511 124.262C155.511 124.262 134.053 136.057 112.539 130.491C91.0241 124.916 98.5203 124.916 89.7198 124.916C80.9192 124.916 57.1264 112.818 61.0304 95.1637C61.0304 95.1637 46.5299 77.8886 60.5956 63.7708C74.6614 49.6625 77.3271 35.3266 85.4755 16.3638C93.6238 -2.59901 128.098 -1.85946 137.882 2.71058Z" fill="#184655"/>
<path d="M150.474 103.379C150.474 103.379 149.684 129.324 152.14 131.762C154.596 134.2 158.022 138.244 154.415 144.432C150.807 150.621 135.13 146.671 127.83 143.128C120.824 139.727 116.293 133.397 116.293 133.397L119.948 92.2963L150.474 103.379Z" fill="#F7A491"/>
<path d="M139.906 114.026C134.815 112.286 125.923 108.928 119.062 98.0251L119.582 92.2963L150.443 103.321C150.443 103.321 150.25 109.624 150.347 116.293C146.026 116.115 142.331 114.854 139.906 114.026Z" fill="#B75742"/>
<path d="M114.7 62.6202C114.7 62.6202 113.94 47.2414 104.276 50.2237C94.6114 53.2157 101.976 76.4268 109.984 75.6646C117.992 74.9023 114.7 62.6202 114.7 62.6202Z" fill="#F7A491"/>
<path d="M144.168 107.699C144.168 107.699 158.979 108.031 166.546 96.5936C174.114 85.1563 182.34 52.4837 169.839 29.9313C157.338 7.38843 141.372 12.9413 134.788 15.2249C128.203 17.5086 115.206 22.5781 108.621 43.6523C102.046 64.7265 106.818 112.105 144.168 107.699Z" fill="#F7A491"/>
<path fill-rule="evenodd" clip-rule="evenodd" d="M129.977 60.9713C131.884 60.7517 133.228 58.7749 132.968 56.5785C132.708 54.3821 130.93 52.8007 129.023 53.0204C127.116 53.24 125.772 55.2168 126.032 57.4132C126.292 59.6535 128.07 61.2349 129.977 60.9713Z" fill="#1B3760"/>
<path fill-rule="evenodd" clip-rule="evenodd" d="M129.264 74.1501L156.35 71.8508C154.724 96.5816 131.114 92.8804 129.264 74.1501Z" fill="#1B3760"/>
<rect x="129.32" y="64.5607" width="35.8905" height="14.5805" fill="#F7A491"/>
<path fill-rule="evenodd" clip-rule="evenodd" d="M142.347 49.0431L142.305 50.3878C142.052 54.9684 141.757 60.6836 145.421 61.9443L146.095 62.1964C148.832 63.121 152.158 64.2136 152.284 68.7521C152.327 69.7607 152.032 70.5591 151.527 71.2315C150.684 72.3662 149.295 72.9965 147.905 73.3747C146.558 73.7529 145.21 73.837 144.494 73.837C144.031 73.837 143.694 73.7529 143.61 73.6689L144.2 72.8284C144.242 72.8704 144.242 72.7444 144.452 72.7444C145.126 72.7444 146.389 72.6603 147.653 72.3241C148.874 71.988 150.095 71.4416 150.769 70.5171C151.105 70.0549 151.316 69.4665 151.316 68.7521C151.19 65.012 148.284 64.0455 145.884 63.247L145.21 62.9949C140.789 61.44 141.084 55.2626 141.336 50.2617L141.421 48.917L142.347 49.0431Z" fill="#1B3760"/>
<path fill-rule="evenodd" clip-rule="evenodd" d="M155.977 58.9713C157.884 58.7517 159.228 56.7749 158.968 54.5785C158.708 52.3821 156.93 50.8007 155.023 51.0204C153.116 51.2839 151.772 53.2168 152.032 55.4132C152.292 57.6535 154.07 59.2349 155.977 58.9713Z" fill="#1B3760"/>
<path d="M280.388 190.904H406.108C407.893 190.904 409.34 189.457 409.34 187.671V129.499C409.34 127.714 407.893 126.266 406.108 126.266H280.383C278.598 126.266 277.15 127.714 277.15 129.499V187.671C277.156 189.457 278.603 190.904 280.388 190.904Z" fill="#327F6B"/>
<path d="M291.353 190.904H417.078C418.863 190.904 420.31 189.457 420.31 187.671V129.499C420.31 127.714 418.863 126.266 417.078 126.266H291.353C289.567 126.266 288.12 127.714 288.12 129.499V187.671C288.125 189.457 289.573 190.904 291.353 190.904Z" fill="#3C8F7C"/>
<path d="M263.861 408.282H253.894V222.763C253.894 212.04 245.174 203.318 234.452 203.318H222.917V193.35H234.452C250.667 193.35 263.861 206.546 263.861 222.763V408.282Z" fill="white"/>
<path opacity="0.6" d="M443.534 386.803C496.784 386.803 540.099 439.46 540.099 504.188C540.099 568.915 496.778 621.572 443.534 621.572C390.289 621.572 346.963 568.915 346.963 504.188C346.969 439.465 390.289 386.803 443.534 386.803Z" fill="#E5ECF2"/>
<path d="M512.581 327.411C515.703 327.411 518.238 324.881 518.238 321.754V294.157C518.238 291.035 515.708 288.5 512.581 288.5C509.46 288.5 506.924 291.03 506.924 294.157V321.754C506.924 324.876 509.46 327.411 512.581 327.411Z" fill="#0E2E35"/>
<path d="M183.67 197.787C183.67 201.844 186.955 205.13 191.011 205.13H226.837C230.893 205.13 234.179 201.844 234.179 197.787C234.179 193.73 230.893 190.445 226.837 190.445H191.011C186.955 190.445 183.67 193.73 183.67 197.787Z" fill="#0E2E35"/>
<path d="M429.31 621.133C454.572 621.133 478.234 607.879 495.938 583.817C513.357 560.141 522.954 528.73 522.954 495.366C522.954 462.006 513.357 430.59 495.938 406.914C478.234 382.852 454.572 369.598 429.31 369.598C404.053 369.598 380.391 382.852 362.681 406.914C345.262 430.59 335.666 462.001 335.666 495.366C335.666 528.725 345.262 560.141 362.681 583.817C380.391 607.879 404.053 621.133 429.31 621.133ZM429.31 377.981C476.322 377.981 514.572 430.638 514.572 495.366C514.572 560.093 476.322 612.75 429.31 612.75C382.298 612.75 344.048 560.093 344.048 495.366C344.048 430.643 382.298 377.981 429.31 377.981Z" fill="#C8C6AF"/>
<path d="M443.898 634.076C472.144 634.076 498.542 619.337 518.238 592.576C537.41 566.517 547.968 531.995 547.968 495.366C547.968 458.736 537.41 424.214 518.238 398.155C498.548 371.394 472.144 356.656 443.898 356.656C415.652 356.656 389.254 371.394 369.564 398.155C350.391 424.214 339.833 458.736 339.833 495.366C339.833 531.995 350.391 566.517 369.564 592.576C389.248 619.337 415.652 634.076 443.898 634.076ZM443.898 371.896C492.88 371.896 532.736 427.284 532.736 495.366C532.736 563.448 492.886 618.835 443.898 618.835C394.916 618.835 355.06 563.448 355.06 495.366C355.06 427.284 394.91 371.896 443.898 371.896Z" fill="#0F3338"/>
<path d="M475.264 474.961L603.554 598.255L598.031 604.003L469.742 480.709L475.264 474.961Z" fill="#7F7F79"/>
<path d="M325.325 456.903H439.985V461.314H325.325V456.903Z" fill="#7F7F79"/>
<path d="M437.951 398.547H447.447V603.479H437.951V398.547Z" fill="#7F7F79"/>
<path d="M373.404 341.886H518.491C518.845 341.886 519.136 341.595 519.136 341.241V329.635C519.136 329.281 518.845 328.991 518.491 328.991H373.404C373.05 328.991 372.759 329.281 372.759 329.635V341.241C372.759 341.595 373.05 341.886 373.404 341.886Z" fill="white"/>
<path d="M368.487 333.74H526.974C527.328 333.74 527.619 333.449 527.619 333.095V321.495C527.619 321.141 527.328 320.85 526.974 320.85H368.487C368.133 320.85 367.842 321.141 367.842 321.495V333.101C367.842 333.454 368.133 333.74 368.487 333.74Z" fill="#1E634F"/>
<path d="M317.391 495.107V381.241H327.96V495.107H445.361V381.241H455.93V504.468H455.343H445.361H327.96H317.391H316.219V495.107H317.391Z" fill="#7F7F79"/>
<path d="M268.367 391.933H415.525C420.041 391.933 423.701 388.272 423.701 383.755V211.295C423.701 206.778 420.041 203.117 415.525 203.117H268.367C263.851 203.117 260.191 206.778 260.191 211.295V383.755C260.191 388.272 263.851 391.933 268.367 391.933Z" fill="#327F6B"/>
<path d="M281.935 391.933H429.093C433.609 391.933 437.27 388.272 437.27 383.755V211.295C437.27 206.778 433.609 203.117 429.093 203.117H281.935C277.419 203.117 273.759 206.778 273.759 211.295V383.755C273.759 388.272 277.419 391.933 281.935 391.933Z" fill="#3C8F7C"/>
<path d="M506.381 396.513H265.314C264.606 396.513 264.036 397.083 264.036 397.791V421.019C264.036 421.726 264.606 422.297 265.314 422.297H506.381C507.088 422.297 507.659 421.721 507.659 421.019V397.791C507.659 397.083 507.088 396.513 506.381 396.513Z" fill="#327F6B"/>
<path d="M536.142 553.025C536.142 553.025 533.132 563.717 539.269 570.547C545.407 577.383 570.267 583.548 573.616 587.251C576.965 590.954 576.811 594.192 576.811 594.192L507.532 594.282L507.685 573.421L510.442 558.355L536.142 553.025Z" fill="#F7A491"/>
<path d="M543.674 573.918C543.674 573.918 526.741 579.903 517.651 576.849C509.28 574.039 508.889 572.417 506.449 574.071C504.009 575.724 503.681 595.286 503.681 595.286L581.591 595.333C587.005 595.053 589.63 590.996 585.13 587.721C582.046 585.476 578.512 584.013 576.5 582.935C570.31 579.628 543.674 573.918 543.674 573.918Z" fill="#0D2842"/>
<path d="M493.335 553.025C493.335 553.025 490.324 563.717 496.462 570.547C502.599 577.383 527.46 583.548 530.808 587.251C534.157 590.954 534.004 594.192 534.004 594.192L464.724 594.282L464.877 573.421L467.634 558.355L493.335 553.025Z" fill="#F7A491"/>
<path d="M500.872 573.918C500.872 573.918 483.289 581.598 474.574 577.6C465.86 573.601 466.087 572.417 463.647 574.071C461.207 575.724 460.879 595.286 460.879 595.286L538.789 595.328C544.203 595.048 546.828 590.991 542.328 587.716C539.243 585.471 535.71 584.007 533.698 582.93C527.502 579.628 500.872 573.918 500.872 573.918Z" fill="#2F5073"/>
<path d="M300.01 342.234C307.536 339.413 376.742 330.185 376.742 330.185C376.742 330.185 504.083 341.061 515.28 360.602C518.36 365.979 570.902 534.219 573.722 551.023C555.347 564.282 479.428 572.581 455.93 568.265C455.93 568.265 430.927 459.106 441.052 412.302C429.31 407.601 339.046 426.428 305.74 399.999C282.015 381.177 292.478 345.055 300.01 342.234Z" fill="#86B1F2"/>
<path d="M582.088 148.717C580.968 149.684 579.146 151.332 578.01 152.69C576.78 154.153 575.19 155.114 573.975 156.192C571.561 158.331 569.824 159.922 569.792 159.774C569.75 159.583 568.984 159.679 570.104 158.316C571.45 156.673 575.052 153.804 576.848 151.242C577.868 149.79 580.176 146.884 580.176 146.884C580.176 146.884 582.864 141.855 582.632 141.612C581.359 140.27 578.57 143.213 577.44 145.357C576.03 146.372 573.69 149.499 573.69 149.499C573.69 149.499 567.568 154.797 566.834 153.963C566.523 153.609 569.903 149.916 572.665 145.796C575.232 141.966 577.213 137.698 576.552 137.096C575.427 136.076 572.137 140.033 572.137 140.033C572.137 140.033 569.977 142.927 569.185 143.831C568.26 144.898 565.25 147.877 565.25 147.877C565.25 147.877 554.311 157.777 553.683 156.926C553.06 156.076 552.341 153.213 552.817 152.373C553.287 151.528 554.95 150.418 555.42 149.573C555.891 148.728 555.801 147.243 554.834 146.615C553.862 145.981 550.049 149.224 550.049 149.224C550.049 149.224 546.964 151.881 545.998 154.523C542.644 163.662 544.276 163.82 543.817 164.982C543.273 166.356 527.274 178.025 527.274 178.025C527.274 178.025 480.347 212.726 477.753 214.512L489.125 230.243C492.294 228.833 544.514 185.41 549.79 180.798C549.79 180.798 558.03 177.571 563.142 175.378C568.255 173.186 572.2 168.844 573.552 168.009C573.753 167.888 578.1 164.84 582.5 159.689C586.292 155.246 580.72 157.777 580.72 157.777C580.72 157.777 572.258 164.782 571.846 164.031C571.524 163.456 576.362 159.895 580.609 155.025C581.702 153.773 582.774 152.531 583.751 151.385C586.318 148.363 585.257 145.981 582.088 148.717Z" fill="#F8A492"/>
<path d="M474.252 205.104C474.252 205.104 532.657 171.015 535.171 170.133C537.638 169.267 546.902 183.957 551.497 189.399C552.97 191.142 494.798 233.799 482.819 237.951C469.763 242.473 420.316 223.064 407.138 216.017C396.083 210.106 374.423 195.014 370.615 183.26C368.038 175.305 403.134 172.098 409.309 170.714C431.825 181.168 474.252 205.104 474.252 205.104Z" fill="#E32D59"/>
<path d="M522.77 266.334C521.264 266.625 518.777 267.169 517.055 267.797C515.196 268.479 513.273 268.521 511.62 268.864C508.345 269.541 505.969 270.074 506.016 269.926C506.079 269.736 505.34 269.424 507.051 268.775C509.106 267.993 513.828 267.274 516.764 265.896C518.428 265.119 522.004 263.693 522.004 263.693C522.004 263.693 527.016 260.565 526.932 260.217C526.477 258.352 522.458 259.562 520.329 260.904C518.539 261.088 514.821 262.689 514.821 262.689C514.821 262.689 506.587 264.295 506.354 263.165C506.259 262.684 511.197 261.11 515.808 258.833C520.092 256.714 524.074 253.904 523.789 253.022C523.308 251.527 518.307 253.386 518.307 253.386C518.307 253.386 514.873 254.871 513.696 255.278C512.312 255.758 508.071 256.884 508.071 256.884C508.071 256.884 493.129 260.138 493.007 259.049C492.886 257.961 493.715 255.024 494.576 254.506C495.437 253.994 497.502 253.851 498.363 253.334C499.224 252.821 499.91 251.437 499.361 250.37C498.817 249.303 493.715 250.243 493.715 250.243C493.715 250.243 489.574 251.041 487.34 252.916C479.613 259.403 480.997 260.386 479.983 261.189C478.784 262.14 458.386 264.38 458.386 264.38C458.386 264.38 398.307 271.358 395.053 271.622L397.161 291.627C400.742 291.997 470.074 279.91 477.189 278.489C477.189 278.489 486.257 279.842 491.988 280.507C497.713 281.173 503.497 279.308 505.145 279.255C505.388 279.25 510.865 278.753 517.477 276.392C523.176 274.358 516.865 273.756 516.865 273.756C516.865 273.756 505.646 275.69 505.662 274.802C505.673 274.121 511.852 273.418 518.185 271.231C519.812 270.666 521.417 270.106 522.886 269.583C526.752 268.199 527.027 265.51 522.77 266.334Z" fill="#F8A492"/>
<path d="M321.497 483.99L449.786 607.284L444.264 613.032L315.974 489.738L321.497 483.99Z" fill="#7F7F79"/>
<path d="M308.683 496.929C308.683 506.264 314.387 513.828 321.417 513.828C328.452 513.828 334.151 506.264 334.151 496.929C334.151 487.595 328.447 480.03 321.417 480.03C314.382 480.03 308.683 487.595 308.683 496.929Z" fill="#1B1811"/>
<path d="M336.982 634.076C365.228 634.076 391.626 619.337 411.322 592.576C430.494 566.517 441.052 531.995 441.052 495.366C441.052 458.736 430.494 424.214 411.322 398.155C391.632 371.394 365.234 356.656 336.982 356.656C308.736 356.656 282.338 371.394 262.648 398.155C243.475 424.214 232.917 458.736 232.917 495.366C232.917 531.995 243.475 566.517 262.648 592.576C282.338 619.337 308.736 634.076 336.982 634.076ZM336.982 371.896C385.964 371.896 425.82 427.284 425.82 495.366C425.82 563.448 385.97 618.835 336.982 618.835C288 618.835 248.144 563.448 248.144 495.366C248.144 427.284 288 371.896 336.982 371.896Z" fill="#071B1E"/>
<path d="M437.867 612.47H620.539C620.771 612.47 620.961 612.28 620.961 612.047V604.414C620.961 604.182 620.771 603.991 620.539 603.991H437.861C437.629 603.991 437.439 604.182 437.439 604.414V612.047C437.439 612.28 437.629 612.47 437.867 612.47Z" fill="#C8C6AF"/>
<path d="M438.796 608.566H616.387C620.042 608.566 623 605.603 623 601.952C623 598.297 620.037 595.339 616.387 595.339H438.801C435.146 595.339 432.189 598.302 432.189 601.952C432.183 605.603 435.146 608.566 438.796 608.566Z" fill="#3C8F7C"/>
<path opacity="0.6" d="M319.959 377.981C366.971 377.981 405.221 430.638 405.221 495.366C405.221 560.093 366.971 612.75 319.959 612.75C272.947 612.75 234.691 560.093 234.691 495.366C234.691 430.644 272.941 377.981 319.959 377.981Z" fill="#E5ECF2"/>
<path d="M319.91 621.133C345.173 621.133 368.835 607.879 386.539 583.817C403.958 560.141 413.555 528.73 413.555 495.366C413.555 462.006 403.958 430.59 386.539 406.914C368.835 382.852 345.173 369.598 319.91 369.598C294.648 369.598 270.991 382.852 253.282 406.914C235.863 430.59 226.266 462.001 226.266 495.366C226.266 528.725 235.858 560.141 253.282 583.817C270.991 607.879 294.648 621.133 319.91 621.133ZM319.91 377.981C366.923 377.981 405.173 430.638 405.173 495.366C405.173 560.093 366.923 612.75 319.91 612.75C272.898 612.75 234.648 560.093 234.648 495.366C234.648 430.643 272.898 377.981 319.91 377.981Z" fill="white"/>
<path d="M363.504 162.442C373.296 162.452 397.521 165.315 408.769 168.918C408.769 168.918 413.87 241.596 401.33 294.132C397.815 306.235 403.384 335.263 403.384 335.263L298.117 341.496C298.117 341.496 310.468 258.654 306.218 243.704C292.17 194.312 302.43 174.132 302.43 174.132C302.43 174.132 308.414 169.584 328.425 165.458C338.675 163.345 353.049 162.426 363.504 162.442Z" fill="#FF9247"/>
<path d="M357.453 253.202C361.084 255.089 365.662 252.658 367.513 249.171C370.075 244.341 368.46 239.377 364.829 237.684C361.043 235.91 356.682 237.612 354.367 242.207C352.218 246.453 353.678 251.612 357.453 253.202ZM332.53 222.782C334.031 221.202 338.383 215.008 345.799 217.469C352.218 219.592 354.748 226.187 356.569 229.172C356.044 226.166 354.83 220.997 356.25 215.131C360.035 199.521 379.199 200.926 378.859 215.397C378.726 221.079 376.668 224.546 373.788 230.648C374.961 229.366 378.489 225.11 383.344 222.618C397.488 215.356 405.089 233.059 395.081 242.464C389.907 247.325 383.324 247.448 379.312 247.92C382.799 248.894 384.887 249.192 388.292 251.346C405.964 262.525 381.369 292.678 368.089 263.643C368.079 263.612 368.007 263.612 367.956 263.592C368.563 267.704 369.735 272.74 368.038 278.555C363.44 294.309 342.415 291.54 346.066 273.704C347.208 268.125 350.922 262.217 351.148 261.766C348.617 264.463 344.883 268.935 339.473 271.038C325.555 276.463 318.921 256.864 331.737 248.607C337.477 244.905 343.176 245.448 345.182 244.915C340.419 243.766 335.945 242.443 332.694 238.464C328.302 233.089 330.657 227.777 330.524 227.049C331.192 225.613 331.861 224.197 332.53 222.782Z" fill="#FAE0B2"/>
<path d="M373.99 260.025C373.99 260.025 448.272 258.93 450.982 259.432C453.645 259.93 453.698 277.137 455.019 284.41C455.442 286.744 377.652 296.483 364.738 294.033C350.661 291.355 315.217 252.35 307.005 239.187C300.115 228.145 289.426 199.325 292.068 186.764C293.854 178.269 302.752 171.923 309.013 173.871C333.996 181.625 373.99 260.025 373.99 260.025Z" fill="#E32D59"/>
<path d="M258.152 328.575H433.147C433.501 328.575 433.792 328.284 433.792 327.929V316.299C433.792 315.944 433.501 315.653 433.147 315.653H258.152C257.798 315.653 257.507 315.944 257.507 316.299V327.929C257.507 328.284 257.792 328.575 258.152 328.575Z" fill="white"/>
<path d="M415.792 314.73C419.104 314.73 421.794 312.15 421.794 308.96V280.813C421.794 277.629 419.11 275.043 415.792 275.043C412.48 275.043 409.795 277.624 409.795 280.813V308.96C409.79 312.15 412.48 314.73 415.792 314.73Z" fill="#0E2E35"/>
<path d="M249.844 320.268H440.532C440.886 320.268 441.176 319.977 441.176 319.622V307.992C441.176 307.638 440.886 307.347 440.532 307.347H249.844C249.49 307.347 249.2 307.638 249.2 307.992V319.622C249.2 319.977 249.49 320.268 249.844 320.268Z" fill="#1E634F"/>
<path d="M375.523 140.481C375.523 140.481 374.843 162.535 376.956 164.607C379.069 166.679 382.018 170.116 378.914 175.376C375.809 180.637 362.32 177.28 356.038 174.268C350.01 171.377 346.111 165.996 346.111 165.996L349.256 131.061L375.523 140.481Z" fill="#F8A492"/>
<path d="M366.355 149.448C362.312 147.975 355.251 145.134 349.803 135.908L350.215 131.061L374.723 140.39C374.723 140.39 374.57 145.723 374.646 151.366C371.215 151.215 368.281 150.148 366.355 149.448Z" fill="#B75742"/>
<path d="M251.259 68.146C251.259 68.146 249.149 78.0379 259.33 81.5134C269.512 84.9889 275.833 48.6782 281.619 41.5085C287.413 34.3306 304.963 32.3781 314.089 46.7015C319.108 54.5761 320.674 58.0111 321.074 59.5018C321.402 60.7251 320.938 60.6441 320.938 60.6441L318.189 65.8614C318.189 65.8614 309.358 60.4253 306.018 70.3496C302.685 80.2739 312.515 96.5173 304.084 109.998C295.66 123.479 280.212 113.943 280.212 113.943C267.402 122.669 252.657 109.342 247.918 96.736C243.187 84.1301 251.259 68.146 251.259 68.146Z" fill="#F7CC7F"/>
<path d="M350.68 133.627L347.957 138.601C355.965 145.791 366.227 152.261 375.932 155.981C376.837 149.94 377.492 145.128 377.492 145.128L352.086 119.062L350.68 133.627Z" fill="#F48C7F"/>
<path d="M378.799 71.1887C378.799 71.1887 385.547 77.294 388.021 80.7393C402.778 101.243 390.825 141.681 383.121 145.046C371.456 150.134 356.274 143.291 339.171 131.722C322.068 120.152 316.662 101.411 332.318 85.114C347.991 68.817 378.799 71.1887 378.799 71.1887Z" fill="#F7A491"/>
<path fill-rule="evenodd" clip-rule="evenodd" d="M389.455 107.886C390.889 107.447 391.682 105.693 391.191 103.939C390.7 102.225 389.153 101.188 387.681 101.626C386.246 102.065 385.454 103.859 385.944 105.574C386.473 107.288 388.02 108.325 389.455 107.886Z" fill="#1B3760"/>
<path fill-rule="evenodd" clip-rule="evenodd" d="M368.822 123.564L387.872 121.893C386.729 139.875 370.124 137.184 368.822 123.564Z" fill="#1B3760"/>
<ellipse cx="378.651" cy="115.368" rx="9.46589" ry="17.5341" fill="#F7A491"/>
<rect x="362.724" y="116.293" width="26.7659" height="11.0756" fill="#F7A491"/>
<path fill-rule="evenodd" clip-rule="evenodd" d="M379.171 105.302L379.142 106.198C378.974 109.252 378.778 113.062 381.22 113.903L381.669 114.071C383.494 114.687 385.711 115.416 385.796 118.441C385.824 119.114 385.627 119.646 385.29 120.094C384.729 120.851 383.802 121.271 382.876 121.523C381.978 121.775 381.079 121.831 380.602 121.831C380.293 121.831 380.069 121.775 380.013 121.719L380.406 121.159C380.434 121.187 380.434 121.103 380.574 121.103C381.023 121.103 381.865 121.047 382.708 120.823C383.522 120.598 384.336 120.234 384.785 119.618C385.01 119.31 385.15 118.917 385.15 118.441C385.066 115.948 383.129 115.303 381.529 114.771L381.079 114.603C378.132 113.566 378.328 109.448 378.497 106.114L378.553 105.218L379.171 105.302Z" fill="#1B3760"/>
<path fill-rule="evenodd" clip-rule="evenodd" d="M366.99 110.655C368.663 110.216 369.588 108.422 369.015 106.708C368.443 104.993 366.637 103.957 364.92 104.395C363.246 104.834 362.322 106.628 362.894 108.343C363.467 110.057 365.316 111.094 366.99 110.655Z" fill="#1B3760"/>
<path d="M321.652 66.6239L326.297 62.1298C344.516 62.1298 359.035 51.0482 379.488 62.1945C392.982 69.5499 387.441 79.9041 387.441 79.9041C337.469 79.9041 355.496 119.656 349.369 135.474C343.243 151.284 305.035 117.077 321.652 66.6239Z" fill="#F7CC7F"/>
<path d="M357.487 111.067C357.487 111.067 356.733 98.4254 348.256 100.932C339.779 103.438 346.39 122.487 353.42 121.814C360.458 121.148 357.487 111.067 357.487 111.067Z" fill="#F7A491"/>
<path d="M320.399 57.2238C320.399 57.2238 327.719 61.8455 330.67 61.457C333.622 61.0686 326.154 70.8194 322.19 71.8262C318.226 72.833 319.62 68.9564 318.787 67.6246C317.954 66.2928 314.87 67.3313 314.153 66.3483C312.534 64.1128 316.941 57.6518 320.399 57.2238Z" fill="#50BFA5"/>
</svg>
